{
copyright = "Copyright (c) 2015, Cadson Demak (info@cadsondemak.com)";
customParameters = (
{
name = vendorID;
value = CDK;
},
{
name = description;
value = "Copyright (c) 2015, Cadson Demak (info@cadsondemak.com)";
},
{
name = license;

glyphs = (
{
glyphname = A;
lastChange = "2015-10-24 21:18:09 +0000";
layers = (
{
layerId = "50AE23BC-B42B-4352-B38F-74DD4C968971";
name = Light;
paths = (
{
closed = 1;
nodes = (
"112 0 LINE",
"183 188 LINE",
"485 188 LINE",
"556 0 LINE",
"612 0 LINE",
"369 644 LINE",
"299 644 LINE",
"55 0 LINE"
);
},
{
closed = 1;
nodes = (
"333 600 LINE",
"472 233 LINE",
"195 233 LINE"
);
}
);
width = 667;
}
);
leftKerningGroup = A;
note = A;
rightKerningGroup = A;
unicode = 0041;
},
{
glyphname = Aacute;
lastChange = "2015-10-24 21:18:09 +0000";
layers = (
{
layerId = "50AE23BC-B42B-4352-B38F-74DD4C968971";
name = Light;
paths = (
{
closed = 1;
nodes = (
"112 0 LINE",
"183 188 LINE",
"485 188 LINE",
"556 0 LINE",
"612 0 LINE",
"369 644 LINE",
"299 644 LINE",
"55 0 LINE"
);
},
{
closed = 1;
nodes = (
"333 600 LINE",
"472 233 LINE",
"195 233 LINE"
);
},
{
closed = 1;
nodes = (
"345 688 LINE",
"419 846 LINE",
"367 846 LINE",
"300 688 LINE"
);
}
);
width = 667;
}
);
leftKerningGroup = A;
note = Aacute;
rightKerningGroup = A;
unicode = 00C1;
},
{
glyphname = Abreve;
lastChange = "2015-10-24 21:18:09 +0000";
layers = (
{
layerId = "50AE23BC-B42B-4352-B38F-74DD4C968971";
name = Light;
paths = (
{
closed = 1;
nodes = (
"112 0 LINE",
"183 188 LINE",
"485 188 LINE",
"556 0 LINE",
"612 0 LINE",
"369 644 LINE",
"299 644 LINE",
"55 0 LINE"
);
},
{
closed = 1;
nodes = (
"333 600 LINE",
"472 233 LINE",
"195 233 LINE"
);
},
{
closed = 1;
nodes = (
"402 687 OFFCURVE",
"445 734 OFFCURVE",
"445 798 CURVE",
"403 798 LINE",
"403 752 OFFCURVE",
"375 726 OFFCURVE",
"333 726 CURVE SMOOTH",
"292 726 OFFCURVE",
"264 752 OFFCURVE",
"264 798 CURVE",
"222 798 LINE",
"222 734 OFFCURVE",
"265 687 OFFCURVE",
"333 687 CURVE SMOOTH"
);
}
);
width = 667;
}
);
leftKerningGroup = A;
note = Abreve;
rightKerningGroup = A;
unicode = 0102;
},
{
glyphname = Abreveacute;
lastChange = "2015-10-24 21:18:09 +0000";
layers = (
{
layerId = "50AE23BC-B42B-4352-B38F-74DD4C968971";
name = Light;
paths = (
{
closed = 1;
nodes = (
"112 0 LINE",
"183 188 LINE",
"485 188 LINE",
"556 0 LINE",
"612 0 LINE",
"369 644 LINE",
"299 644 LINE",
"55 0 LINE"
);
},
{
closed = 1;
nodes = (
"333 600 LINE",
"472 233 LINE",
"195 233 LINE"
);
},
{
closed = 1;
nodes = (
"407 688 OFFCURVE",
"472 723 OFFCURVE",
"472 820 CURVE",
"434 820 LINE",
"434 754 OFFCURVE",
"393 724 OFFCURVE",
"334 724 CURVE SMOOTH",
"275 724 OFFCURVE",
"234 754 OFFCURVE",
"234 820 CURVE",
"195 820 LINE",
"195 723 OFFCURVE",
"261 688 OFFCURVE",
"334 688 CURVE SMOOTH"
);
},
{
closed = 1;
nodes = (
"343 786 LINE",
"409 903 LINE",
"362 903 LINE",
"302 786 LINE"
);
}
);
width = 667;
}
);
leftKerningGroup = A;
note = Abreveacute;
rightKerningGroup = A;
unicode = 1EAE;
},
{
glyphname = Abrevedotbelow;
lastChange = "2015-10-24 21:18:09 +0000";
layers = (
{
layerId = "50AE23BC-B42B-4352-B38F-74DD4C968971";
name = Light;
paths = (
{
closed = 1;
nodes = (
"112 0 LINE",
"183 188 LINE",
"485 188 LINE",
"556 0 LINE",
"612 0 LINE",
"369 644 LINE",
"299 644 LINE",
"55 0 LINE"
);
},
{
closed = 1;
nodes = (
"363 -152 LINE",
"363 -95 LINE",
"304 -95 LINE",
"304 -152 LINE"
);
},
{
closed = 1;
nodes = (
"333 600 LINE",
"472 233 LINE",
"195 233 LINE"
);
},
{
closed = 1;
nodes = (
"402 687 OFFCURVE",
"445 734 OFFCURVE",
"445 798 CURVE",
"403 798 LINE",
"403 752 OFFCURVE",
"375 726 OFFCURVE",
"333 726 CURVE SMOOTH",
"292 726 OFFCURVE",
"264 752 OFFCURVE",
"264 798 CURVE",
"222 798 LINE",
"222 734 OFFCURVE",
"265 687 OFFCURVE",
"333 687 CURVE SMOOTH"
);
}
);
width = 667;
}
);
leftKerningGroup = A;
note = Abrevedotbelow;
rightKerningGroup = A;
unicode = 1EB6;
},
{
glyphname = Abrevegrave;
lastChange = "2015-10-24 21:18:08 +0000";
layers = (
{
layerId = "50AE23BC-B42B-4352-B38F-74DD4C968971";
name = Light;
paths = (
{
closed = 1;
nodes = (
"112 0 LINE",
"183 188 LINE",
"485 188 LINE",
"556 0 LINE",
"612 0 LINE",
"369 644 LINE",
"299 644 LINE",
"55 0 LINE"
);
},
{
closed = 1;
nodes = (
"333 600 LINE",
"472 233 LINE",
"195 233 LINE"
);
},
{
closed = 1;
nodes = (
"407 688 OFFCURVE",
"472 723 OFFCURVE",
"472 820 CURVE",
"434 820 LINE",
"434 754 OFFCURVE",
"393 724 OFFCURVE",
"334 724 CURVE SMOOTH",
"275 724 OFFCURVE",
"234 754 OFFCURVE",
"234 820 CURVE",
"195 820 LINE",
"195 723 OFFCURVE",
"261 688 OFFCURVE",
"334 688 CURVE SMOOTH"
);
},
{
closed = 1;
nodes = (
"365 786 LINE",
"306 903 LINE",
"259 903 LINE",
"325 786 LINE"
);
}
);
width = 667;
}
);
leftKerningGroup = A;
note = Abrevegrave;
rightKerningGroup = A;
unicode = 1EB0;
},
{
glyphname = Abrevehookabove;
lastChange = "2015-10-24 21:18:09 +0000";
layers = (
{
layerId = "50AE23BC-B42B-4352-B38F-74DD4C968971";
name = Light;
paths = (
{
closed = 1;
nodes = (
"112 0 LINE",
"183 188 LINE",
"485 188 LINE",
"556 0 LINE",
"612 0 LINE",
"369 644 LINE",
"299 644 LINE",
"55 0 LINE"
);
},
{
closed = 1;
nodes = (
"333 600 LINE",
"472 233 LINE",
"195 233 LINE"
);
},
{
closed = 1;
nodes = (
"407 688 OFFCURVE",
"472 723 OFFCURVE",
"472 820 CURVE",
"434 820 LINE",
"434 754 OFFCURVE",
"393 724 OFFCURVE",
"334 724 CURVE SMOOTH",
"275 724 OFFCURVE",
"234 754 OFFCURVE",
"234 820 CURVE",
"195 820 LINE",
"195 723 OFFCURVE",
"261 688 OFFCURVE",
"334 688 CURVE SMOOTH"
);
},
{
closed = 1;
nodes = (
"343 776 LINE",
"343 811 LINE",
"400 819 OFFCURVE",
"423 840 OFFCURVE",
"423 883 CURVE SMOOTH",
"423 928 OFFCURVE",
"391 954 OFFCURVE",
"336 954 CURVE SMOOTH",
"310 954 OFFCURVE",
"287 949 OFFCURVE",
"269 942 CURVE",
"269 909 LINE",
"287 917 OFFCURVE",
"305 922 OFFCURVE",
"328 922 CURVE SMOOTH",
"365 922 OFFCURVE",
"382 908 OFFCURVE",
"382 880 CURVE SMOOTH",
"382 851 OFFCURVE",
"368 836 OFFCURVE",
"299 833 CURVE",
"299 776 LINE"
);
}
);
width = 667;
}
);
leftKerningGroup = A;
note = Abrevehookabove;
rightKerningGroup = A;
unicode = 1EB2;
},
{
glyphname = Abrevetilde;
lastChange = "2015-10-24 21:18:09 +0000";
layers = (
{
layerId = "50AE23BC-B42B-4352-B38F-74DD4C968971";
name = Light;
paths = (
{
closed = 1;
nodes = (
"112 0 LINE",
"183 188 LINE",
"485 188 LINE",
"556 0 LINE",
"612 0 LINE",
"369 644 LINE",
"299 644 LINE",
"55 0 LINE"
);
},
{
closed = 1;
nodes = (
"333 600 LINE",
"472 233 LINE",
"195 233 LINE"
);
},
{
closed = 1;
nodes = (
"406 688 OFFCURVE",
"471 723 OFFCURVE",
"471 820 CURVE",
"433 820 LINE",
"433 754 OFFCURVE",
"392 724 OFFCURVE",
"333 724 CURVE SMOOTH",
"274 724 OFFCURVE",
"233 754 OFFCURVE",
"233 820 CURVE",
"194 820 LINE",
"194 723 OFFCURVE",
"260 688 OFFCURVE",
"333 688 CURVE SMOOTH"
);
},
{
closed = 1;
nodes = (
"425 848 OFFCURVE",
"452 858 OFFCURVE",
"466 875 CURVE",
"466 919 LINE",
"446 894 OFFCURVE",
"423 886 OFFCURVE",
"394 886 CURVE SMOOTH",
"350 886 OFFCURVE",
"322 920 OFFCURVE",
"272 920 CURVE SMOOTH",
"244 920 OFFCURVE",
"215 910 OFFCURVE",
"199 893 CURVE",
"199 850 LINE",
"221 875 OFFCURVE",
"245 882 OFFCURVE",
"274 882 CURVE SMOOTH",
"312 882 OFFCURVE",
"348 848 OFFCURVE",
"395 848 CURVE SMOOTH"
);
}
);
width = 667;
}
);
leftKerningGroup = A;
note = Abrevetilde;
rightKerningGroup = A;
unicode = 1EB4;
},
{
glyphname = Acaron;
lastChange = "2015-10-24 21:18:09 +0000";
layers = (
{
layerId = "50AE23BC-B42B-4352-B38F-74DD4C968971";
name = Light;
paths = (
{
closed = 1;
nodes = (
"112 0 LINE",
"183 188 LINE",
"485 188 LINE",
"556 0 LINE",
"612 0 LINE",
"369 644 LINE",
"299 644 LINE",
"55 0 LINE"
);
},
{
closed = 1;
nodes = (
"333 600 LINE",
"472 233 LINE",
"195 233 LINE"
);
},
{
closed = 1;
nodes = (
"357 688 LINE",
"462 823 LINE",
"412 823 LINE",
"333 720 LINE",
"254 823 LINE",
"204 823 LINE",
"309 688 LINE"
);
}
);
width = 667;
}
);
leftKerningGroup = A;
note = Acaron;
rightKerningGroup = A;
unicode = 01CD;
},
{
glyphname = Acircumflex;
lastChange = "2015-10-24 21:18:09 +0000";
layers = (
{
layerId = "50AE23BC-B42B-4352-B38F-74DD4C968971";
name = Light;
paths = (
{
closed = 1;
nodes = (
"112 0 LINE",
"183 188 LINE",
"485 188 LINE",
"556 0 LINE",
"612 0 LINE",
"369 644 LINE",
"299 644 LINE",
"55 0 LINE"
);
},
{
closed = 1;
nodes = (
"333 600 LINE",
"472 233 LINE",
"195 233 LINE"
);
},
{
closed = 1;
nodes = (
"254 687 LINE",
"333 790 LINE",
"412 687 LINE",
"462 687 LINE",
"357 822 LINE",
"309 822 LINE",
"204 687 LINE"
);
}
);
width = 667;
}
);
leftKerningGroup = A;
note = Acircumflex;
rightKerningGroup = A;
unicode = 00C2;
},
{
glyphname = Acircumflexacute;
lastChange = "2015-10-24 21:18:08 +0000";
layers = (
{
layerId = "50AE23BC-B42B-4352-B38F-74DD4C968971";
name = Light;
paths = (
{
closed = 1;
nodes = (
"112 0 LINE",
"183 188 LINE",
"485 188 LINE",
"556 0 LINE",
"612 0 LINE",
"369 644 LINE",
"299 644 LINE",
"55 0 LINE"
);
},
{
closed = 1;
nodes = (
"333 600 LINE",
"472 233 LINE",
"195 233 LINE"
);
},
{
closed = 1;
nodes = (
"252 687 LINE",
"330 772 LINE",
"408 687 LINE",
"457 687 LINE",
"354 797 LINE",
"306 797 LINE",
"203 687 LINE"
);
},
{
closed = 1;
nodes = (
"440 793 LINE",
"506 910 LINE",
"459 910 LINE",
"399 793 LINE"
);
}
);
width = 667;
}
);
leftKerningGroup = A;
note = Acircumflexacute;
rightKerningGroup = A;
unicode = 1EA4;
},
{
glyphname = Acircumflexdotbelow;
lastChange = "2015-10-24 21:18:08 +0000";
layers = (
{
layerId = "50AE23BC-B42B-4352-B38F-74DD4C968971";
name = Light;
paths = (
{
closed = 1;
nodes = (
"112 0 LINE",
"183 188 LINE",
"485 188 LINE",
"556 0 LINE",
"612 0 LINE",
"369 644 LINE",
"299 644 LINE",
"55 0 LINE"
);
},
{
closed = 1;
nodes = (
"363 -152 LINE",
"363 -95 LINE",
"304 -95 LINE",
"304 -152 LINE"
);
},
{
closed = 1;
nodes = (
"333 600 LINE",
"472 233 LINE",
"195 233 LINE"
);
},
{
closed = 1;
nodes = (
"254 687 LINE",
"333 790 LINE",
"412 687 LINE",
"462 687 LINE",
"357 822 LINE",
"309 822 LINE",
"204 687 LINE"
);
}
);
width = 667;
}
);
leftKerningGroup = A;
note = Acircumflexdotbelow;
rightKerningGroup = A;
unicode = 1EAC;
},
{
glyphname = Acircumflexgrave;
lastChange = "2015-10-24 21:18:09 +0000";
layers = (
{
layerId = "50AE23BC-B42B-4352-B38F-74DD4C968971";
name = Light;
paths = (
{
closed = 1;
nodes = (
"112 0 LINE",
"183 188 LINE",
"485 188 LINE",
"556 0 LINE",
"612 0 LINE",
"369 644 LINE",
"299 644 LINE",
"55 0 LINE"
);
},
{
closed = 1;
nodes = (
"333 600 LINE",
"472 233 LINE",
"195 233 LINE"
);
},
{
closed = 1;
nodes = (
"265 793 LINE",
"206 910 LINE",
"159 910 LINE",
"225 793 LINE"
);
},
{
closed = 1;
nodes = (
"257 687 LINE",
"335 772 LINE",
"412 687 LINE",
"462 687 LINE",
"359 797 LINE",
"311 797 LINE",
"208 687 LINE"
);
}
);
width = 667;
}
);
leftKerningGroup = A;
note = Acircumflexgrave;
rightKerningGroup = A;
unicode = 1EA6;
},
{
glyphname = Acircumflexhookabove;
lastChange = "2015-10-24 21:18:09 +0000";
layers = (
{
layerId = "50AE23BC-B42B-4352-B38F-74DD4C968971";
name = Light;
paths = (
{
closed = 1;
nodes = (
"112 0 LINE",
"183 188 LINE",
"485 188 LINE",
"556 0 LINE",
"612 0 LINE",
"369 644 LINE",
"299 644 LINE",
"55 0 LINE"
);
},
{
closed = 1;
nodes = (
"333 600 LINE",
"472 233 LINE",
"195 233 LINE"
);
},
{
closed = 1;
nodes = (
"256 687 LINE",
"333 772 LINE",
"411 687 LINE",
"460 687 LINE",
"357 797 LINE",
"309 797 LINE",
"206 687 LINE"
);
},
{
closed = 1;
nodes = (
"455 772 LINE",
"455 808 LINE",
"511 814 OFFCURVE",
"535 837 OFFCURVE",
"535 879 CURVE SMOOTH",
"535 925 OFFCURVE",
"502 951 OFFCURVE",
"447 951 CURVE SMOOTH",
"420 951 OFFCURVE",
"398 946 OFFCURVE",
"381 939 CURVE",
"381 905 LINE",
"398 913 OFFCURVE",
"416 918 OFFCURVE",
"440 918 CURVE SMOOTH",
"476 918 OFFCURVE",
"493 904 OFFCURVE",
"493 877 CURVE SMOOTH",
"493 849 OFFCURVE",
"480 835 OFFCURVE",
"410 831 CURVE",
"410 772 LINE"
);
}
);
width = 667;
}
);
leftKerningGroup = A;
note = Acircumflexhookabove;
rightKerningGroup = A;
unicode = 1EA8;
},
{
glyphname = Acircumflextilde;
lastChange = "2015-10-24 21:18:08 +0000";
layers = (
{
layerId = "50AE23BC-B42B-4352-B38F-74DD4C968971";
name = Light;
paths = (
{
closed = 1;
nodes = (
"112 0 LINE",
"183 188 LINE",
"485 188 LINE",
"556 0 LINE",
"612 0 LINE",
"369 644 LINE",
"299 644 LINE",
"55 0 LINE"
);
},
{
closed = 1;
nodes = (
"333 600 LINE",
"472 233 LINE",
"195 233 LINE"
);
},
{
closed = 1;
nodes = (
"254 687 LINE",
"331 772 LINE",
"409 687 LINE",
"458 687 LINE",
"355 797 LINE",
"307 797 LINE",
"204 687 LINE"
);
},
{
closed = 1;
nodes = (
"426 805 OFFCURVE",
"453 815 OFFCURVE",
"467 831 CURVE",
"467 875 LINE",
"447 851 OFFCURVE",
"424 843 OFFCURVE",
"395 843 CURVE SMOOTH",
"351 843 OFFCURVE",
"323 876 OFFCURVE",
"273 876 CURVE SMOOTH",
"245 876 OFFCURVE",
"216 866 OFFCURVE",
"200 850 CURVE",
"200 806 LINE",
"222 831 OFFCURVE",
"246 838 OFFCURVE",
"275 838 CURVE SMOOTH",
"313 838 OFFCURVE",
"349 805 OFFCURVE",
"396 805 CURVE SMOOTH"
);
}
);
width = 667;
}
);
leftKerningGroup = A;
note = Acircumflextilde;
rightKerningGroup = A;
unicode = 1EAA;
},
{
glyphname = Adieresis;
lastChange = "2015-10-24 21:18:09 +0000";
layers = (
{
layerId = "50AE23BC-B42B-4352-B38F-74DD4C968971";
name = Light;
paths = (
{
closed = 1;
nodes = (
"112 0 LINE",
"183 188 LINE",
"485 188 LINE",
"556 0 LINE",
"612 0 LINE",
"369 644 LINE",
"299 644 LINE",
"55 0 LINE"
);
},
{
closed = 1;
nodes = (
"333 600 LINE",
"472 233 LINE",
"195 233 LINE"
);
},
{
closed = 1;
nodes = (
"279 713 LINE",
"279 768 LINE",
"222 768 LINE",
"222 713 LINE"
);
},
{
closed = 1;
nodes = (
"445 713 LINE",
"445 768 LINE",
"389 768 LINE",
"389 713 LINE"
);
}
);
width = 667;
}
);
leftKerningGroup = A;
note = Adieresis;
rightKerningGroup = A;
unicode = 00C4;
},
{
glyphname = Adotbelow;
lastChange = "2015-10-24 21:18:08 +0000";
layers = (
{
layerId = "50AE23BC-B42B-4352-B38F-74DD4C968971";
name = Light;
paths = (
{
closed = 1;
nodes = (
"112 0 LINE",
"183 188 LINE",
"485 188 LINE",
"556 0 LINE",
"612 0 LINE",
"369 644 LINE",
"299 644 LINE",
"55 0 LINE"
);
},
{
closed = 1;
nodes = (
"363 -152 LINE",
"363 -95 LINE",
"304 -95 LINE",
"304 -152 LINE"
);
},
{
closed = 1;
nodes = (
"333 600 LINE",
"472 233 LINE",
"195 233 LINE"
);
}
);
width = 667;
}
);
leftKerningGroup = A;
note = Adotbelow;
rightKerningGroup = A;
unicode = 1EA0;
},
{
glyphname = Agrave;
lastChange = "2015-10-24 21:18:08 +0000";
layers = (
{
layerId = "50AE23BC-B42B-4352-B38F-74DD4C968971";
name = Light;
paths = (
{
closed = 1;
nodes = (
"112 0 LINE",
"183 188 LINE",
"485 188 LINE",
"556 0 LINE",
"612 0 LINE",
"369 644 LINE",
"299 644 LINE",
"55 0 LINE"
);
},
{
closed = 1;
nodes = (
"333 600 LINE",
"472 233 LINE",
"195 233 LINE"
);
},
{
closed = 1;
nodes = (
"349 688 LINE",
"282 846 LINE",
"230 846 LINE",
"304 688 LINE"
);
}
);
width = 667;
}
);
leftKerningGroup = A;
note = Agrave;
rightKerningGroup = A;
unicode = 00C0;
},
{
glyphname = Ahookabove;
lastChange = "2015-10-24 21:18:09 +0000";
layers = (
{
layerId = "50AE23BC-B42B-4352-B38F-74DD4C968971";
name = Light;
paths = (
{
closed = 1;
nodes = (
"112 0 LINE",
"183 188 LINE",
"485 188 LINE",
"556 0 LINE",
"612 0 LINE",
"369 644 LINE",
"299 644 LINE",
"55 0 LINE"
);
},
{
closed = 1;
nodes = (
"333 600 LINE",
"472 233 LINE",
"195 233 LINE"
);
},
{
closed = 1;
nodes = (
"356 688 LINE",
"356 740 LINE",
"424 747 OFFCURVE",
"446 776 OFFCURVE",
"446 829 CURVE SMOOTH",
"446 885 OFFCURVE",
"406 917 OFFCURVE",
"330 917 CURVE SMOOTH",
"306 917 OFFCURVE",
"271 912 OFFCURVE",
"253 905 CURVE",
"253 867 LINE",
"270 874 OFFCURVE",
"299 879 OFFCURVE",
"320 879 CURVE SMOOTH",
"378 879 OFFCURVE",
"403 862 OFFCURVE",
"403 826 CURVE SMOOTH",
"403 788 OFFCURVE",
"389 771 OFFCURVE",
"309 767 CURVE",
"309 688 LINE"
);
}
);
width = 667;
}
);
leftKerningGroup = A;
note = Ahookabove;
rightKerningGroup = A;
unicode = 1EA2;
},
{
glyphname = Amacron;
lastChange = "2015-10-24 21:18:08 +0000";
layers = (
{
layerId = "50AE23BC-B42B-4352-B38F-74DD4C968971";
name = Light;
paths = (
{
closed = 1;
nodes = (
"112 0 LINE",
"183 188 LINE",
"485 188 LINE",
"556 0 LINE",
"612 0 LINE",
"369 644 LINE",
"299 644 LINE",
"55 0 LINE"
);
},
{
closed = 1;
nodes = (
"333 600 LINE",
"472 233 LINE",
"195 233 LINE"
);
},
{
closed = 1;
nodes = (
"472 715 LINE",
"472 757 LINE",
"195 757 LINE",
"195 715 LINE"
);
}
);
width = 667;
}
);
leftKerningGroup = A;
note = Amacron;
rightKerningGroup = A;
unicode = 0100;
},
{
glyphname = Aogonek;
lastChange = "2015-11-24 08:38:06 +0000";
layers = (
{
layerId = "50AE23BC-B42B-4352-B38F-74DD4C968971";
name = Light;
paths = (
{
closed = 1;
nodes = (
"591 -220 OFFCURVE",
"616 -217 OFFCURVE",
"631 -209 CURVE",
"631 -168 LINE",
"619 -175 OFFCURVE",
"598 -179 OFFCURVE",
"581 -179 CURVE SMOOTH",
"544 -179 OFFCURVE",
"528 -165 OFFCURVE",
"528 -128 CURVE SMOOTH",
"528 -83 OFFCURVE",
"546 -35 OFFCURVE",
"612 0 CURVE",
"369 644 LINE",
"299 644 LINE",
"55 0 LINE",
"112 0 LINE",
"183 188 LINE",
"485 188 LINE",
"556 0 LINE",
"514 -29 OFFCURVE",
"481 -80 OFFCURVE",
"481 -134 CURVE SMOOTH",
"481 -197 OFFCURVE",
"521 -220 OFFCURVE",
"572 -220 CURVE SMOOTH"
);
},
{
closed = 1;
nodes = (
"333 600 LINE",
"472 233 LINE",
"195 233 LINE"
);
}
);
width = 667;
}
);
leftKerningGroup = A;
note = Aogonek;
rightKerningGroup = A;
unicode = 0104;
},
{
glyphname = Aring;
lastChange = "2015-10-24 21:18:08 +0000";
layers = (
{
layerId = "50AE23BC-B42B-4352-B38F-74DD4C968971";
name = Light;
paths = (
{
closed = 1;
nodes = (
"112 0 LINE",
"183 188 LINE",
"485 188 LINE",
"556 0 LINE",
"612 0 LINE",
"375 626 LINE",
"412 642 OFFCURVE",
"436 677 OFFCURVE",
"436 719 CURVE SMOOTH",
"436 776 OFFCURVE",
"393 821 OFFCURVE",
"333 821 CURVE SMOOTH",
"274 821 OFFCURVE",
"231 776 OFFCURVE",
"231 719 CURVE SMOOTH",
"231 677 OFFCURVE",
"255 641 OFFCURVE",
"292 626 CURVE",
"55 0 LINE"
);
},
{
closed = 1;
nodes = (
"333 600 LINE",
"472 233 LINE",
"195 233 LINE"
);
},
{
closed = 1;
nodes = (
"295 654 OFFCURVE",
"267 682 OFFCURVE",
"267 719 CURVE SMOOTH",
"267 757 OFFCURVE",
"295 785 OFFCURVE",
"333 785 CURVE SMOOTH",
"372 785 OFFCURVE",
"399 757 OFFCURVE",
"399 719 CURVE SMOOTH",
"399 682 OFFCURVE",
"372 654 OFFCURVE",
"333 654 CURVE SMOOTH"
);
}
);
width = 667;
}
);
leftKerningGroup = A;
note = Aring;
rightKerningGroup = A;
unicode = 00C5;
},
{
glyphname = Aringacute;
lastChange = "2015-10-24 21:18:09 +0000";
layers = (
{
layerId = "50AE23BC-B42B-4352-B38F-74DD4C968971";
name = Light;
paths = (
{
closed = 1;
nodes = (
"112 0 LINE",
"183 188 LINE",
"485 188 LINE",
"556 0 LINE",
"612 0 LINE",
"375 626 LINE",
"412 642 OFFCURVE",
"436 677 OFFCURVE",
"436 719 CURVE SMOOTH",
"436 776 OFFCURVE",
"393 821 OFFCURVE",
"333 821 CURVE SMOOTH",
"274 821 OFFCURVE",
"231 776 OFFCURVE",
"231 719 CURVE SMOOTH",
"231 677 OFFCURVE",
"255 641 OFFCURVE",
"292 626 CURVE",
"55 0 LINE"
);
},
{
closed = 1;
nodes = (
"333 600 LINE",
"472 233 LINE",
"195 233 LINE"
);
},
{
closed = 1;
nodes = (
"295 654 OFFCURVE",
"267 682 OFFCURVE",
"267 719 CURVE SMOOTH",
"267 757 OFFCURVE",
"295 785 OFFCURVE",
"333 785 CURVE SMOOTH",
"372 785 OFFCURVE",
"399 757 OFFCURVE",
"399 719 CURVE SMOOTH",
"399 682 OFFCURVE",
"372 654 OFFCURVE",
"333 654 CURVE SMOOTH"
);
},
{
closed = 1;
nodes = (
"344 851 LINE",
"419 994 LINE",
"367 994 LINE",
"300 851 LINE"
);
}
);
width = 667;
}
);
leftKerningGroup = A;
note = Aringacute;
rightKerningGroup = A;
unicode = 01FA;
},
{
glyphname = Atilde;
lastChange = "2015-10-24 21:18:09 +0000";
layers = (
{
layerId = "50AE23BC-B42B-4352-B38F-74DD4C968971";
name = Light;
paths = (
{
closed = 1;
nodes = (
"112 0 LINE",
"183 188 LINE",
"485 188 LINE",
"556 0 LINE",
"612 0 LINE",
"369 644 LINE",
"299 644 LINE",
"55 0 LINE"
);
},
{
closed = 1;
nodes = (
"333 600 LINE",
"472 233 LINE",
"195 233 LINE"
);
},
{
closed = 1;
nodes = (
"436 710 OFFCURVE",
"462 721 OFFCURVE",
"475 739 CURVE",
"475 786 LINE",
"457 761 OFFCURVE",
"434 751 OFFCURVE",
"402 751 CURVE SMOOTH",
"356 751 OFFCURVE",
"322 788 OFFCURVE",
"270 788 CURVE SMOOTH",
"240 788 OFFCURVE",
"208 777 OFFCURVE",
"192 759 CURVE",
"192 712 LINE",
"214 739 OFFCURVE",
"241 747 OFFCURVE",
"271 747 CURVE SMOOTH",
"311 747 OFFCURVE",
"355 710 OFFCURVE",
"404 710 CURVE SMOOTH"
);
}
);
width = 667;
}
);
leftKerningGroup = A;
note = Atilde;
rightKerningGroup = A;
unicode = 00C3;
},
{
glyphname = AE;
lastChange = "2015-10-24 21:18:09 +0000";
layers = (
{
layerId = "50AE23BC-B42B-4352-B38F-74DD4C968971";
name = Light;
paths = (
{
closed = 1;
nodes = (
"113 0 LINE",
"185 189 LINE",
"410 189 LINE",
"410 0 LINE",
"777 0 LINE",
"777 44 LINE",
"465 44 LINE",
"465 299 LINE",
"742 299 LINE",
"742 344 LINE",
"465 344 LINE",
"465 598 LINE",
"777 598 LINE",
"777 644 LINE",
"299 644 LINE",
"55 0 LINE"
);
},
{
closed = 1;
nodes = (
"340 598 LINE",
"410 598 LINE",
"410 233 LINE",
"202 233 LINE"
);
}
);
width = 832;
}
);
leftKerningGroup = A;
note = AE;
rightKerningGroup = E;
unicode = 00C6;
},
{
glyphname = AEacute;
lastChange = "2015-10-24 21:18:09 +0000";
layers = (
{
layerId = "50AE23BC-B42B-4352-B38F-74DD4C968971";
name = Light;
paths = (
{
closed = 1;
nodes = (
"113 0 LINE",
"185 189 LINE",
"410 189 LINE",
"410 0 LINE",
"777 0 LINE",
"777 44 LINE",
"465 44 LINE",
"465 299 LINE",
"742 299 LINE",
"742 344 LINE",
"465 344 LINE",
"465 598 LINE",
"777 598 LINE",
"777 644 LINE",
"299 644 LINE",
"55 0 LINE"
);
},
{
closed = 1;
nodes = (
"340 598 LINE",
"410 598 LINE",
"410 233 LINE",
"202 233 LINE"
);
},
{
closed = 1;
nodes = (
"482 688 LINE",
"556 846 LINE",
"504 846 LINE",
"437 688 LINE"
);
}
);
width = 832;
}
);
leftKerningGroup = A;
note = AEacute;
rightKerningGroup = E;
unicode = 01FC;
},
{
glyphname = B;
lastChange = "2015-10-24 21:18:09 +0000";
layers = (
{
layerId = "50AE23BC-B42B-4352-B38F-74DD4C968971";
name = Light;
paths = (
{
closed = 1;
nodes = (
"377 0 LINE SMOOTH",
"501 0 OFFCURVE",
"564 56 OFFCURVE",
"564 182 CURVE SMOOTH",
"564 273 OFFCURVE",
"521 318 OFFCURVE",
"454 333 CURVE",
"506 356 OFFCURVE",
"538 404 OFFCURVE",
"538 476 CURVE SMOOTH",
"538 583 OFFCURVE",
"485 644 OFFCURVE",
"358 644 CURVE SMOOTH",
"75 644 LINE",
"75 0 LINE"
);
},
{
closed = 1;
nodes = (
"130 311 LINE",
"357 311 LINE SMOOTH",
"474 311 OFFCURVE",
"510 266 OFFCURVE",
"510 184 CURVE SMOOTH",
"510 82 OFFCURVE",
"467 43 OFFCURVE",
"372 43 CURVE SMOOTH",
"130 43 LINE"
);
},
{
closed = 1;
nodes = (
"130 600 LINE",
"346 600 LINE SMOOTH",
"457 600 OFFCURVE",
"486 555 OFFCURVE",
"486 473 CURVE SMOOTH",
"486 404 OFFCURVE",
"453 354 OFFCURVE",
"363 354 CURVE SMOOTH",
"130 354 LINE"
);
}
);
width = 619;
}
);
note = B;
unicode = 0042;
},
{
glyphname = C;
lastChange = "2015-10-24 21:18:06 +0000";
layers = (
{
layerId = "50AE23BC-B42B-4352-B38F-74DD4C968971";
name = Light;
paths = (
{
closed = 1;
nodes = (
"423 -10 OFFCURVE",
"483 -1 OFFCURVE",
"534 15 CURVE",
"534 64 LINE",
"483 46 OFFCURVE",
"417 37 OFFCURVE",
"358 37 CURVE SMOOTH",
"183 37 OFFCURVE",
"109 136 OFFCURVE",
"109 304 CURVE SMOOTH",
"109 487 OFFCURVE",
"168 606 OFFCURVE",
"355 606 CURVE SMOOTH",
"421 606 OFFCURVE",
"483 595 OFFCURVE",
"534 576 CURVE",
"534 625 LINE",
"483 643 OFFCURVE",
"423 654 OFFCURVE",
"350 654 CURVE SMOOTH",
"136 654 OFFCURVE",
"55 513 OFFCURVE",
"55 304 CURVE SMOOTH",
"55 116 OFFCURVE",
"147 -10 OFFCURVE",
"351 -10 CURVE SMOOTH"
);
}
);
width = 589;
}
);
leftKerningGroup = C;
note = C;
rightKerningGroup = C;
unicode = 0043;
},
{
glyphname = Cacute;
lastChange = "2015-10-24 21:18:09 +0000";
layers = (
{
layerId = "50AE23BC-B42B-4352-B38F-74DD4C968971";
name = Light;
paths = (
{
closed = 1;
nodes = (
"423 -10 OFFCURVE",
"483 -1 OFFCURVE",
"534 15 CURVE",
"534 64 LINE",
"483 46 OFFCURVE",
"417 37 OFFCURVE",
"358 37 CURVE SMOOTH",
"183 37 OFFCURVE",
"109 136 OFFCURVE",
"109 304 CURVE SMOOTH",
"109 487 OFFCURVE",
"168 606 OFFCURVE",
"355 606 CURVE SMOOTH",
"421 606 OFFCURVE",
"483 595 OFFCURVE",
"534 576 CURVE",
"534 625 LINE",
"483 643 OFFCURVE",
"423 654 OFFCURVE",
"350 654 CURVE SMOOTH",
"136 654 OFFCURVE",
"55 513 OFFCURVE",
"55 304 CURVE SMOOTH",
"55 116 OFFCURVE",
"147 -10 OFFCURVE",
"351 -10 CURVE SMOOTH"
);
},
{
closed = 1;
nodes = (
"359 688 LINE",
"433 846 LINE",
"381 846 LINE",
"314 688 LINE"
);
}
);
width = 589;
}
);
leftKerningGroup = C;
note = Cacute;
rightKerningGroup = C;
unicode = 0106;
},
{
glyphname = Ccaron;
lastChange = "2015-10-24 21:18:09 +0000";
layers = (
{
layerId = "50AE23BC-B42B-4352-B38F-74DD4C968971";
name = Light;
paths = (
{
closed = 1;
nodes = (
"423 -10 OFFCURVE",
"483 -1 OFFCURVE",
"534 15 CURVE",
"534 64 LINE",
"483 46 OFFCURVE",
"417 37 OFFCURVE",
"358 37 CURVE SMOOTH",
"183 37 OFFCURVE",
"109 136 OFFCURVE",
"109 304 CURVE SMOOTH",
"109 487 OFFCURVE",
"168 606 OFFCURVE",
"355 606 CURVE SMOOTH",
"421 606 OFFCURVE",
"483 595 OFFCURVE",
"534 576 CURVE",
"534 625 LINE",
"483 643 OFFCURVE",
"423 654 OFFCURVE",
"350 654 CURVE SMOOTH",
"136 654 OFFCURVE",
"55 513 OFFCURVE",
"55 304 CURVE SMOOTH",
"55 116 OFFCURVE",
"147 -10 OFFCURVE",
"351 -10 CURVE SMOOTH"
);
},
{
closed = 1;
nodes = (
"383 687 LINE",
"488 822 LINE",
"438 822 LINE",
"359 719 LINE",
"280 822 LINE",
"230 822 LINE",
"335 687 LINE"
);
}
);
width = 589;
}
);
leftKerningGroup = C;
note = Ccaron;
rightKerningGroup = C;
unicode = 010C;
},
{
glyphname = Ccedilla;
lastChange = "2015-10-24 21:18:09 +0000";
layers = (
{
layerId = "50AE23BC-B42B-4352-B38F-74DD4C968971";
name = Light;
paths = (
{
closed = 1;
nodes = (
"423 -10 OFFCURVE",
"483 -1 OFFCURVE",
"534 15 CURVE",
"534 64 LINE",
"483 46 OFFCURVE",
"417 37 OFFCURVE",
"358 37 CURVE SMOOTH",
"183 37 OFFCURVE",
"109 136 OFFCURVE",
"109 304 CURVE SMOOTH",
"109 487 OFFCURVE",
"168 606 OFFCURVE",
"355 606 CURVE SMOOTH",
"421 606 OFFCURVE",
"483 595 OFFCURVE",
"534 576 CURVE",
"534 625 LINE",
"483 643 OFFCURVE",
"423 654 OFFCURVE",
"350 654 CURVE SMOOTH",
"136 654 OFFCURVE",
"55 513 OFFCURVE",
"55 304 CURVE SMOOTH",
"55 116 OFFCURVE",
"147 -10 OFFCURVE",
"351 -10 CURVE SMOOTH"
);
},
{
closed = 1;
nodes = (
"422 -240 OFFCURVE",
"463 -204 OFFCURVE",
"463 -139 CURVE SMOOTH",
"463 -81 OFFCURVE",
"423 -51 OFFCURVE",
"349 -51 CURVE",
"366 0 LINE",
"323 0 LINE",
"295 -84 LINE",
"328 -84 LINE SMOOTH",
"390 -84 OFFCURVE",
"420 -96 OFFCURVE",
"420 -139 CURVE SMOOTH",
"420 -187 OFFCURVE",
"388 -203 OFFCURVE",
"321 -203 CURVE SMOOTH",
"299 -203 OFFCURVE",
"276 -200 OFFCURVE",
"258 -195 CURVE",
"258 -232 LINE",
"273 -236 OFFCURVE",
"303 -240 OFFCURVE",
"324 -240 CURVE SMOOTH"
);
}
);
width = 589;
}
);
leftKerningGroup = C;
note = Ccedilla;
rightKerningGroup = C;
unicode = 00C7;
},
{
glyphname = Ccircumflex;
lastChange = "2015-10-24 21:18:09 +0000";
layers = (
{
layerId = "50AE23BC-B42B-4352-B38F-74DD4C968971";
name = Light;
paths = (
{
closed = 1;
nodes = (
"423 -10 OFFCURVE",
"483 -1 OFFCURVE",
"534 15 CURVE",
"534 64 LINE",
"483 46 OFFCURVE",
"417 37 OFFCURVE",
"358 37 CURVE SMOOTH",
"183 37 OFFCURVE",
"109 136 OFFCURVE",
"109 304 CURVE SMOOTH",
"109 487 OFFCURVE",
"168 606 OFFCURVE",
"355 606 CURVE SMOOTH",
"421 606 OFFCURVE",
"483 595 OFFCURVE",
"534 576 CURVE",
"534 625 LINE",
"483 643 OFFCURVE",
"423 654 OFFCURVE",
"350 654 CURVE SMOOTH",
"136 654 OFFCURVE",
"55 513 OFFCURVE",
"55 304 CURVE SMOOTH",
"55 116 OFFCURVE",
"147 -10 OFFCURVE",
"351 -10 CURVE SMOOTH"
);
},
{
closed = 1;
nodes = (
"256 687 LINE",
"335 790 LINE",
"414 687 LINE",
"464 687 LINE",
"359 822 LINE",
"311 822 LINE",
"206 687 LINE"
);
}
);
width = 589;
}
);
leftKerningGroup = C;
note = Ccircumflex;
rightKerningGroup = C;
unicode = 0108;
},
{
glyphname = Cdotaccent;
lastChange = "2015-10-24 21:18:09 +0000";
layers = (
{
layerId = "50AE23BC-B42B-4352-B38F-74DD4C968971";
name = Light;
paths = (
{
closed = 1;
nodes = (
"423 -10 OFFCURVE",
"483 -1 OFFCURVE",
"534 15 CURVE",
"534 64 LINE",
"483 46 OFFCURVE",
"417 37 OFFCURVE",
"358 37 CURVE SMOOTH",
"183 37 OFFCURVE",
"109 136 OFFCURVE",
"109 304 CURVE SMOOTH",
"109 487 OFFCURVE",
"168 606 OFFCURVE",
"355 606 CURVE SMOOTH",
"421 606 OFFCURVE",
"483 595 OFFCURVE",
"534 576 CURVE",
"534 625 LINE",
"483 643 OFFCURVE",
"423 654 OFFCURVE",
"350 654 CURVE SMOOTH",
"136 654 OFFCURVE",
"55 513 OFFCURVE",
"55 304 CURVE SMOOTH",
"55 116 OFFCURVE",
"147 -10 OFFCURVE",
"351 -10 CURVE SMOOTH"
);
},
{
closed = 1;
nodes = (
"378 714 LINE",
"378 770 LINE",
"321 770 LINE",
"321 714 LINE"
);
}
);
width = 589;
}
);
leftKerningGroup = C;
note = Cdotaccent;
rightKerningGroup = C;
unicode = 010A;
},
{
glyphname = D;
lastChange = "2015-10-24 21:18:09 +0000";
layers = (
{
layerId = "50AE23BC-B42B-4352-B38F-74DD4C968971";
name = Light;
paths = (
{
closed = 1;
nodes = (
"317 0 LINE SMOOTH",
"505 0 OFFCURVE",
"577 98 OFFCURVE",
"577 317 CURVE SMOOTH",
"577 549 OFFCURVE",
"502 644 OFFCURVE",
"317 644 CURVE SMOOTH",
"75 644 LINE",
"75 0 LINE"
);
},
{
closed = 1;
nodes = (
"130 599 LINE",
"305 599 LINE SMOOTH",
"462 599 OFFCURVE",
"522 537 OFFCURVE",
"522 317 CURVE SMOOTH",
"522 95 OFFCURVE",
"451 44 OFFCURVE",
"305 44 CURVE SMOOTH",
"130 44 LINE"
);
}
);
width = 632;
}
);
note = D;
rightKerningGroup = D;
unicode = 0044;
},
{
glyphname = Eth;
lastChange = "2015-10-24 21:18:08 +0000";
layers = (
{
layerId = "50AE23BC-B42B-4352-B38F-74DD4C968971";
name = Light;
paths = (
{
closed = 1;
nodes = (
"359 0 LINE SMOOTH",
"546 0 OFFCURVE",
"618 98 OFFCURVE",
"618 317 CURVE SMOOTH",
"618 549 OFFCURVE",
"543 644 OFFCURVE",
"359 644 CURVE SMOOTH",
"116 644 LINE",
"116 339 LINE",
"35 339 LINE",
"35 294 LINE",
"116 294 LINE",
"116 0 LINE"
);
},
{
closed = 1;
nodes = (
"171 294 LINE",
"361 294 LINE",
"361 339 LINE",
"171 339 LINE",
"171 598 LINE",
"346 598 LINE SMOOTH",
"504 598 OFFCURVE",
"564 537 OFFCURVE",
"564 317 CURVE SMOOTH",
"564 95 OFFCURVE",
"493 44 OFFCURVE",
"346 44 CURVE SMOOTH",
"171 44 LINE"
);
}
);
width = 673;
}
);
note = Eth;
rightKerningGroup = D;
unicode = 00D0;
},
{
glyphname = Dcaron;
lastChange = "2015-10-24 21:18:08 +0000";
layers = (
{
layerId = "50AE23BC-B42B-4352-B38F-74DD4C968971";
name = Light;
paths = (
{
closed = 1;
nodes = (
"317 0 LINE SMOOTH",
"505 0 OFFCURVE",
"577 98 OFFCURVE",
"577 317 CURVE SMOOTH",
"577 549 OFFCURVE",
"502 644 OFFCURVE",
"317 644 CURVE SMOOTH",
"75 644 LINE",
"75 0 LINE"
);
},
{
closed = 1;
nodes = (
"130 599 LINE",
"305 599 LINE SMOOTH",
"462 599 OFFCURVE",
"522 537 OFFCURVE",
"522 317 CURVE SMOOTH",
"522 95 OFFCURVE",
"451 44 OFFCURVE",
"305 44 CURVE SMOOTH",
"130 44 LINE"
);
},
{
closed = 1;
nodes = (
"327 709 LINE",
"432 844 LINE",
"382 844 LINE",
"303 741 LINE",
"224 844 LINE",
"174 844 LINE",
"279 709 LINE"
);
}
);
width = 632;
}
);
note = Dcaron;
rightKerningGroup = D;
unicode = 010E;
},
{
glyphname = Dcroat;
lastChange = "2015-10-24 21:18:09 +0000";
layers = (
{
layerId = "50AE23BC-B42B-4352-B38F-74DD4C968971";
name = Light;
paths = (
{
closed = 1;
nodes = (
"349 0 LINE SMOOTH",
"536 0 OFFCURVE",
"608 98 OFFCURVE",
"608 317 CURVE SMOOTH",
"608 549 OFFCURVE",
"533 644 OFFCURVE",
"349 644 CURVE SMOOTH",
"106 644 LINE",
"106 339 LINE",
"25 339 LINE",
"25 294 LINE",
"106 294 LINE",
"106 0 LINE"
);
},
{
closed = 1;
nodes = (
"161 294 LINE",
"351 294 LINE",
"351 339 LINE",
"161 339 LINE",
"161 598 LINE",
"336 598 LINE SMOOTH",
"494 598 OFFCURVE",
"554 537 OFFCURVE",
"554 317 CURVE SMOOTH",
"554 95 OFFCURVE",
"483 44 OFFCURVE",
"336 44 CURVE SMOOTH",
"161 44 LINE"
);
}
);
width = 663;
}
);
note = Dcroat;
rightKerningGroup = D;
unicode = 0110;
},
{
glyphname = Ddotbelow;
lastChange = "2015-11-24 08:38:31 +0000";
layers = (
{
layerId = "50AE23BC-B42B-4352-B38F-74DD4C968971";
name = Light;
paths = (
{
closed = 1;
nodes = (
"317 0 LINE SMOOTH",
"505 0 OFFCURVE",
"577 98 OFFCURVE",
"577 317 CURVE SMOOTH",
"577 549 OFFCURVE",
"502 644 OFFCURVE",
"317 644 CURVE SMOOTH",
"75 644 LINE",
"75 0 LINE"
);
},
{
closed = 1;
nodes = (
"130 599 LINE",
"305 599 LINE SMOOTH",
"462 599 OFFCURVE",
"522 537 OFFCURVE",
"522 317 CURVE SMOOTH",
"522 95 OFFCURVE",
"451 44 OFFCURVE",
"305 44 CURVE SMOOTH",
"130 44 LINE"
);
},
{
closed = 1;
nodes = (
"355 -152 LINE",
"355 -95 LINE",
"296 -95 LINE",
"296 -152 LINE"
);
}
);
width = 632;
}
);
note = Ddotbelow;
rightKerningGroup = D;
unicode = 1E0C;
},
{
glyphname = Dlinebelow;
lastChange = "2015-11-24 08:38:35 +0000";
layers = (
{
layerId = "50AE23BC-B42B-4352-B38F-74DD4C968971";
name = Light;
paths = (
{
closed = 1;
nodes = (
"317 0 LINE SMOOTH",
"505 0 OFFCURVE",
"577 98 OFFCURVE",
"577 317 CURVE SMOOTH",
"577 549 OFFCURVE",
"502 644 OFFCURVE",
"317 644 CURVE SMOOTH",
"75 644 LINE",
"75 0 LINE"
);
},
{
closed = 1;
nodes = (
"130 599 LINE",
"305 599 LINE SMOOTH",
"462 599 OFFCURVE",
"522 537 OFFCURVE",
"522 317 CURVE SMOOTH",
"522 95 OFFCURVE",
"451 44 OFFCURVE",
"305 44 CURVE SMOOTH",
"130 44 LINE"
);
},
{
closed = 1;
nodes = (
"426 -123 LINE",
"426 -81 LINE",
"149 -81 LINE",
"149 -123 LINE"
);
}
);
width = 632;
}
);
note = Dlinebelow;
rightKerningGroup = D;
unicode = 1E0E;
},
{
glyphname = E;
lastChange = "2015-10-24 21:18:06 +0000";
layers = (
{
layerId = "50AE23BC-B42B-4352-B38F-74DD4C968971";
name = Light;
paths = (
{
closed = 1;
nodes = (
"496 0 LINE",
"496 44 LINE",
"130 44 LINE",
"130 300 LINE",
"461 300 LINE",
"461 344 LINE",
"130 344 LINE",
"130 599 LINE",
"496 599 LINE",
"496 644 LINE",
"75 644 LINE",
"75 0 LINE"
);
}
);
width = 541;
}
);
leftKerningGroup = E;
note = E;
rightKerningGroup = E;
unicode = 0045;
},
{
glyphname = Eacute;
lastChange = "2015-10-24 21:18:09 +0000";
layers = (
{
layerId = "50AE23BC-B42B-4352-B38F-74DD4C968971";
name = Light;
paths = (
{
closed = 1;
nodes = (
"496 0 LINE",
"496 44 LINE",
"130 44 LINE",
"130 300 LINE",
"461 300 LINE",
"461 344 LINE",
"130 344 LINE",
"130 599 LINE",
"496 599 LINE",
"496 644 LINE",
"75 644 LINE",
"75 0 LINE"
);
},
{
closed = 1;
nodes = (
"302 688 LINE",
"376 846 LINE",
"324 846 LINE",
"257 688 LINE"
);
}
);
width = 541;
}
);
leftKerningGroup = E;
note = Eacute;
rightKerningGroup = E;
unicode = 00C9;
},
{
glyphname = Ebreve;
lastChange = "2015-11-24 08:39:34 +0000";
layers = (
{
layerId = "50AE23BC-B42B-4352-B38F-74DD4C968971";
name = Light;
paths = (
{
closed = 1;
nodes = (
"496 0 LINE",
"496 44 LINE",
"130 44 LINE",
"130 300 LINE",
"461 300 LINE",
"461 344 LINE",
"130 344 LINE",
"130 599 LINE",
"496 599 LINE",
"496 644 LINE",
"75 644 LINE",
"75 0 LINE"
);
},
{
closed = 1;
nodes = (
"360 687 OFFCURVE",
"403 734 OFFCURVE",
"403 798 CURVE",
"361 798 LINE",
"361 752 OFFCURVE",
"333 726 OFFCURVE",
"291 726 CURVE SMOOTH",
"250 726 OFFCURVE",
"222 752 OFFCURVE",
"222 798 CURVE",
"180 798 LINE",
"180 734 OFFCURVE",
"223 687 OFFCURVE",
"291 687 CURVE SMOOTH"
);
}
);
width = 541;
}
);
leftKerningGroup = E;
note = Ebreve;
rightKerningGroup = E;
unicode = 0114;
},
{
glyphname = Ecaron;
lastChange = "2015-11-24 08:39:56 +0000";
layers = (
{
layerId = "50AE23BC-B42B-4352-B38F-74DD4C968971";
name = Light;
paths = (
{
closed = 1;
nodes = (
"496 0 LINE",
"496 44 LINE",
"130 44 LINE",
"130 300 LINE",
"461 300 LINE",
"461 344 LINE",
"130 344 LINE",
"130 599 LINE",
"496 599 LINE",
"496 644 LINE",
"75 644 LINE",
"75 0 LINE"
);
},
{
closed = 1;
nodes = (
"316 687 LINE",
"421 822 LINE",
"371 822 LINE",
"292 719 LINE",
"213 822 LINE",
"163 822 LINE",
"268 687 LINE"
);
}
);
width = 541;
}
);
leftKerningGroup = E;
note = Ecaron;
rightKerningGroup = E;
unicode = 011A;
},
{
glyphname = Ecircumflex;
lastChange = "2015-11-24 08:39:56 +0000";
layers = (
{
layerId = "50AE23BC-B42B-4352-B38F-74DD4C968971";
name = Light;
paths = (
{
closed = 1;
nodes = (
"496 0 LINE",
"496 44 LINE",
"130 44 LINE",
"130 300 LINE",
"461 300 LINE",
"461 344 LINE",
"130 344 LINE",
"130 599 LINE",
"496 599 LINE",
"496 644 LINE",
"75 644 LINE",
"75 0 LINE"
);
},
{
closed = 1;
nodes = (
"198 687 LINE",
"277 790 LINE",
"356 687 LINE",
"406 687 LINE",
"301 822 LINE",
"253 822 LINE",
"148 687 LINE"
);
}
);
width = 541;
}
);
leftKerningGroup = E;
note = Ecircumflex;
rightKerningGroup = E;
unicode = 00CA;
},
{
glyphname = Ecircumflexacute;
lastChange = "2015-11-24 08:40:12 +0000";
layers = (
{
layerId = "50AE23BC-B42B-4352-B38F-74DD4C968971";
name = Light;
paths = (
{
closed = 1;
nodes = (
"496 0 LINE",
"496 44 LINE",
"130 44 LINE",
"130 300 LINE",
"461 300 LINE",
"461 344 LINE",
"130 344 LINE",
"130 599 LINE",
"496 599 LINE",
"496 644 LINE",
"75 644 LINE",
"75 0 LINE"
);
},
{
closed = 1;
nodes = (
"200 687 LINE",
"278 772 LINE",
"356 687 LINE",
"405 687 LINE",
"302 797 LINE",
"254 797 LINE",
"151 687 LINE"
);
},
{
closed = 1;
nodes = (
"388 793 LINE",
"454 910 LINE",
"407 910 LINE",
"347 793 LINE"
);
}
);
width = 541;
}
);
leftKerningGroup = E;
note = Ecircumflexacute;
rightKerningGroup = E;
unicode = 1EBE;
},
{
glyphname = Ecircumflexdotbelow;
lastChange = "2015-11-24 08:40:31 +0000";
layers = (
{
layerId = "50AE23BC-B42B-4352-B38F-74DD4C968971";
name = Light;
paths = (
{
closed = 1;
nodes = (
"496 0 LINE",
"496 44 LINE",
"130 44 LINE",
"130 300 LINE",
"461 300 LINE",
"461 344 LINE",
"130 344 LINE",
"130 599 LINE",
"496 599 LINE",
"496 644 LINE",
"75 644 LINE",
"75 0 LINE"
);
},
{
closed = 1;
nodes = (
"303 -152 LINE",
"303 -95 LINE",
"244 -95 LINE",
"244 -152 LINE"
);
},
{
closed = 1;
nodes = (
"194 687 LINE",
"273 790 LINE",
"352 687 LINE",
"402 687 LINE",
"297 822 LINE",
"249 822 LINE",
"144 687 LINE"
);
}
);
width = 541;
}
);
leftKerningGroup = E;
note = Ecircumflexdotbelow;
rightKerningGroup = E;
unicode = 1EC6;
},
{
glyphname = Ecircumflexgrave;
lastChange = "2015-11-24 08:40:31 +0000";
layers = (
{
layerId = "50AE23BC-B42B-4352-B38F-74DD4C968971";
name = Light;
paths = (
{
closed = 1;
nodes = (
"496 0 LINE",
"496 44 LINE",
"130 44 LINE",
"130 300 LINE",
"461 300 LINE",
"461 344 LINE",
"130 344 LINE",
"130 599 LINE",
"496 599 LINE",
"496 644 LINE",
"75 644 LINE",
"75 0 LINE"
);
},
{
closed = 1;
nodes = (
"224 793 LINE",
"165 910 LINE",
"118 910 LINE",
"184 793 LINE"
);
},
{
closed = 1;
nodes = (
"216 687 LINE",
"294 772 LINE",
"371 687 LINE",
"421 687 LINE",
"318 797 LINE",
"270 797 LINE",
"167 687 LINE"
);
}
);
width = 541;
}
);
leftKerningGroup = E;
note = Ecircumflexgrave;
rightKerningGroup = E;
unicode = 1EC0;
},
{
glyphname = Ecircumflexhookabove;
lastChange = "2015-11-24 08:40:57 +0000";
layers = (
{
layerId = "50AE23BC-B42B-4352-B38F-74DD4C968971";
name = Light;
paths = (
{
closed = 1;
nodes = (
"496 0 LINE",
"496 44 LINE",
"130 44 LINE",
"130 300 LINE",
"461 300 LINE",
"461 344 LINE",
"130 344 LINE",
"130 599 LINE",
"496 599 LINE",
"496 644 LINE",
"75 644 LINE",
"75 0 LINE"
);
},
{
closed = 1;
nodes = (
"208 687 LINE",
"285 772 LINE",
"363 687 LINE",
"412 687 LINE",
"309 797 LINE",
"261 797 LINE",
"158 687 LINE"
);
},
{
closed = 1;
nodes = (
"407 772 LINE",
"407 808 LINE",
"463 814 OFFCURVE",
"487 837 OFFCURVE",
"487 879 CURVE SMOOTH",
"487 925 OFFCURVE",
"454 951 OFFCURVE",
"399 951 CURVE SMOOTH",
"372 951 OFFCURVE",
"350 946 OFFCURVE",
"333 939 CURVE",
"333 905 LINE",
"350 913 OFFCURVE",
"368 918 OFFCURVE",
"392 918 CURVE SMOOTH",
"428 918 OFFCURVE",
"445 904 OFFCURVE",
"445 877 CURVE SMOOTH",
"445 849 OFFCURVE",
"432 835 OFFCURVE",
"362 831 CURVE",
"362 772 LINE"
);
}
);
width = 541;
}
);
leftKerningGroup = E;
note = Ecircumflexhookabove;
rightKerningGroup = E;
unicode = 1EC2;
},
{
glyphname = Ecircumflextilde;
lastChange = "2015-11-24 08:40:38 +0000";
layers = (
{
layerId = "50AE23BC-B42B-4352-B38F-74DD4C968971";
name = Light;
paths = (
{
closed = 1;
nodes = (
"496 0 LINE",
"496 44 LINE",
"130 44 LINE",
"130 300 LINE",
"461 300 LINE",
"461 344 LINE",
"130 344 LINE",
"130 599 LINE",
"496 599 LINE",
"496 644 LINE",
"75 644 LINE",
"75 0 LINE"
);
},
{
closed = 1;
nodes = (
"209 687 LINE",
"286 772 LINE",
"364 687 LINE",
"413 687 LINE",
"310 797 LINE",
"262 797 LINE",
"159 687 LINE"
);
},
{
closed = 1;
nodes = (
"381 805 OFFCURVE",
"408 815 OFFCURVE",
"422 831 CURVE",
"422 875 LINE",
"402 851 OFFCURVE",
"379 843 OFFCURVE",
"350 843 CURVE SMOOTH",
"306 843 OFFCURVE",
"278 876 OFFCURVE",
"228 876 CURVE SMOOTH",
"200 876 OFFCURVE",
"171 866 OFFCURVE",
"155 850 CURVE",
"155 806 LINE",
"177 831 OFFCURVE",
"201 838 OFFCURVE",
"230 838 CURVE SMOOTH",
"268 838 OFFCURVE",
"304 805 OFFCURVE",
"351 805 CURVE SMOOTH"
);
}
);
width = 541;
}
);
leftKerningGroup = E;
note = Ecircumflextilde;
rightKerningGroup = E;
unicode = 1EC4;
},
{
glyphname = Edieresis;
lastChange = "2015-11-24 08:40:38 +0000";
layers = (
{
layerId = "50AE23BC-B42B-4352-B38F-74DD4C968971";
name = Light;
paths = (
{
closed = 1;
nodes = (
"496 0 LINE",
"496 44 LINE",
"130 44 LINE",
"130 300 LINE",
"461 300 LINE",
"461 344 LINE",
"130 344 LINE",
"130 599 LINE",
"496 599 LINE",
"496 644 LINE",
"75 644 LINE",
"75 0 LINE"
);
},
{
closed = 1;
nodes = (
"229 714 LINE",
"229 769 LINE",
"172 769 LINE",
"172 714 LINE"
);
},
{
closed = 1;
nodes = (
"395 714 LINE",
"395 769 LINE",
"339 769 LINE",
"339 714 LINE"
);
}
);
width = 541;
}
);
leftKerningGroup = E;
note = Edieresis;
rightKerningGroup = E;
unicode = 00CB;
},
{
glyphname = Edotaccent;
lastChange = "2015-11-24 08:40:38 +0000";
layers = (
{
layerId = "50AE23BC-B42B-4352-B38F-74DD4C968971";
name = Light;
paths = (
{
closed = 1;
nodes = (
"496 0 LINE",
"496 44 LINE",
"130 44 LINE",
"130 300 LINE",
"461 300 LINE",
"461 344 LINE",
"130 344 LINE",
"130 599 LINE",
"496 599 LINE",
"496 644 LINE",
"75 644 LINE",
"75 0 LINE"
);
},
{
closed = 1;
nodes = (
"313 714 LINE",
"313 770 LINE",
"256 770 LINE",
"256 714 LINE"
);
}
);
width = 541;
}
);
leftKerningGroup = E;
note = Edotaccent;
rightKerningGroup = E;
unicode = 0116;
},
{
glyphname = Edotbelow;
lastChange = "2015-11-24 08:40:38 +0000";
layers = (
{
layerId = "50AE23BC-B42B-4352-B38F-74DD4C968971";
name = Light;
paths = (
{
closed = 1;
nodes = (
"496 0 LINE",
"496 44 LINE",
"130 44 LINE",
"130 300 LINE",
"461 300 LINE",
"461 344 LINE",
"130 344 LINE",
"130 599 LINE",
"496 599 LINE",
"496 644 LINE",
"75 644 LINE",
"75 0 LINE"
);
},
{
closed = 1;
nodes = (
"311 -152 LINE",
"311 -95 LINE",
"252 -95 LINE",
"252 -152 LINE"
);
}
);
width = 541;
}
);
leftKerningGroup = E;
note = Edotbelow;
rightKerningGroup = E;
unicode = 1EB8;
},
{
glyphname = Egrave;
lastChange = "2015-11-24 08:40:38 +0000";
layers = (
{
layerId = "50AE23BC-B42B-4352-B38F-74DD4C968971";
name = Light;
paths = (
{
closed = 1;
nodes = (
"496 0 LINE",
"496 44 LINE",
"130 44 LINE",
"130 300 LINE",
"461 300 LINE",
"461 344 LINE",
"130 344 LINE",
"130 599 LINE",
"496 599 LINE",
"496 644 LINE",
"75 644 LINE",
"75 0 LINE"
);
},
{
closed = 1;
nodes = (
"316 688 LINE",
"249 846 LINE",
"197 846 LINE",
"271 688 LINE"
);
}
);
width = 541;
}
);
leftKerningGroup = E;
note = Egrave;
rightKerningGroup = E;
unicode = 00C8;
},
{
glyphname = Ehookabove;
lastChange = "2015-11-24 08:40:38 +0000";
layers = (
{
layerId = "50AE23BC-B42B-4352-B38F-74DD4C968971";
name = Light;
paths = (
{
closed = 1;
nodes = (
"496 0 LINE",
"496 44 LINE",
"130 44 LINE",
"130 300 LINE",
"461 300 LINE",
"461 344 LINE",
"130 344 LINE",
"130 599 LINE",
"496 599 LINE",
"496 644 LINE",
"75 644 LINE",
"75 0 LINE"
);
},
{
closed = 1;
nodes = (
"300 688 LINE",
"300 740 LINE",
"368 747 OFFCURVE",
"390 776 OFFCURVE",
"390 829 CURVE SMOOTH",
"390 885 OFFCURVE",
"350 917 OFFCURVE",
"274 917 CURVE SMOOTH",
"250 917 OFFCURVE",
"215 912 OFFCURVE",
"197 905 CURVE",
"197 867 LINE",
"214 874 OFFCURVE",
"243 879 OFFCURVE",
"264 879 CURVE SMOOTH",
"322 879 OFFCURVE",
"347 862 OFFCURVE",
"347 826 CURVE SMOOTH",
"347 788 OFFCURVE",
"333 771 OFFCURVE",
"253 767 CURVE",
"253 688 LINE"
);
}
);
width = 541;
}
);
leftKerningGroup = E;
note = Ehookabove;
rightKerningGroup = E;
unicode = 1EBA;
},
{
glyphname = Emacron;
lastChange = "2015-11-24 08:40:38 +0000";
layers = (
{
layerId = "50AE23BC-B42B-4352-B38F-74DD4C968971";
name = Light;
paths = (
{
closed = 1;
nodes = (
"496 0 LINE",
"496 44 LINE",
"130 44 LINE",
"130 300 LINE",
"461 300 LINE",
"461 344 LINE",
"130 344 LINE",
"130 599 LINE",
"496 599 LINE",
"496 644 LINE",
"75 644 LINE",
"75 0 LINE"
);
},
{
closed = 1;
nodes = (
"419 719 LINE",
"419 761 LINE",
"142 761 LINE",
"142 719 LINE"
);
}
);
width = 541;
}
);
leftKerningGroup = E;
note = Emacron;
rightKerningGroup = E;
unicode = 0112;
},
{
glyphname = Eogonek;
lastChange = "2015-11-24 08:40:46 +0000";
layers = (
{
layerId = "50AE23BC-B42B-4352-B38F-74DD4C968971";
name = Light;
paths = (
{
closed = 1;
nodes = (
"496 0 LINE",
"496 44 LINE",
"130 44 LINE",
"130 300 LINE",
"461 300 LINE",
"461 344 LINE",
"130 344 LINE",
"130 599 LINE",
"496 599 LINE",
"496 644 LINE",
"75 644 LINE",
"75 0 LINE"
);
},
{
closed = 1;
nodes = (
"444 -220 OFFCURVE",
"469 -217 OFFCURVE",
"484 -209 CURVE",
"484 -168 LINE",
"472 -175 OFFCURVE",
"451 -179 OFFCURVE",
"434 -179 CURVE SMOOTH",
"397 -179 OFFCURVE",
"381 -165 OFFCURVE",
"381 -128 CURVE SMOOTH",
"381 -83 OFFCURVE",
"405 -37 OFFCURVE",
"455 0 CURVE",
"409 0 LINE",
"367 -29 OFFCURVE",
"334 -80 OFFCURVE",
"334 -134 CURVE SMOOTH",
"334 -197 OFFCURVE",
"374 -220 OFFCURVE",
"425 -220 CURVE SMOOTH"
);
}
);
width = 541;
}
);
leftKerningGroup = E;
note = Eogonek;
rightKerningGroup = E;
unicode = 0118;
},
{
glyphname = Etilde;
lastChange = "2015-11-24 08:40:46 +0000";
layers = (
{
layerId = "50AE23BC-B42B-4352-B38F-74DD4C968971";
name = Light;
paths = (
{
closed = 1;
nodes = (
"496 0 LINE",
"496 44 LINE",
"130 44 LINE",
"130 300 LINE",
"461 300 LINE",
"461 344 LINE",
"130 344 LINE",
"130 599 LINE",
"496 599 LINE",
"496 644 LINE",
"75 644 LINE",
"75 0 LINE"
);
},
{
closed = 1;
nodes = (
"384 713 OFFCURVE",
"410 724 OFFCURVE",
"423 742 CURVE",
"423 789 LINE",
"405 764 OFFCURVE",
"382 754 OFFCURVE",
"350 754 CURVE SMOOTH",
"304 754 OFFCURVE",
"270 791 OFFCURVE",
"218 791 CURVE SMOOTH",
"188 791 OFFCURVE",
"156 780 OFFCURVE",
"140 762 CURVE",
"140 715 LINE",
"162 742 OFFCURVE",
"189 750 OFFCURVE",
"219 750 CURVE SMOOTH",
"259 750 OFFCURVE",
"303 713 OFFCURVE",
"352 713 CURVE SMOOTH"
);
}
);
width = 541;
}
);
leftKerningGroup = E;
note = Etilde;
rightKerningGroup = E;
unicode = 1EBC;
},
{
glyphname = F;
lastChange = "2015-10-24 21:18:06 +0000";
layers = (
{
layerId = "50AE23BC-B42B-4352-B38F-74DD4C968971";
name = Light;
paths = (
{
closed = 1;
nodes = (
"130 0 LINE",
"130 300 LINE",
"444 300 LINE",
"444 344 LINE",
"130 344 LINE",
"130 599 LINE",
"481 599 LINE",
"481 644 LINE",
"75 644 LINE",
"75 0 LINE"
);
}
);
width = 516;
}
);
note = F;
unicode = 0046;
},
{
glyphname = G;
lastChange = "2015-10-24 21:18:06 +0000";
layers = (
{
layerId = "50AE23BC-B42B-4352-B38F-74DD4C968971";
name = Light;
paths = (
{
closed = 1;
nodes = (
"472 -10 OFFCURVE",
"542 15 OFFCURVE",
"578 39 CURVE",
"578 340 LINE",
"345 340 LINE",
"345 296 LINE",
"528 296 LINE",
"528 67 LINE",
"484 49 OFFCURVE",
"419 37 OFFCURVE",
"357 37 CURVE SMOOTH",
"182 37 OFFCURVE",
"109 136 OFFCURVE",
"109 304 CURVE SMOOTH",
"109 487 OFFCURVE",
"168 606 OFFCURVE",
"356 606 CURVE SMOOTH",
"421 606 OFFCURVE",
"483 595 OFFCURVE",
"534 578 CURVE",
"534 627 LINE",
"483 644 OFFCURVE",
"423 654 OFFCURVE",
"350 654 CURVE SMOOTH",
"136 654 OFFCURVE",
"55 513 OFFCURVE",
"55 304 CURVE SMOOTH",
"55 116 OFFCURVE",
"147 -10 OFFCURVE",
"351 -10 CURVE SMOOTH"
);
}
);
width = 633;
}
);
leftKerningGroup = G;
note = G;
unicode = 0047;
},
{
glyphname = Gbreve;
lastChange = "2015-10-24 21:18:08 +0000";
layers = (
{
layerId = "50AE23BC-B42B-4352-B38F-74DD4C968971";
name = Light;
paths = (
{
closed = 1;
nodes = (
"472 -10 OFFCURVE",
"542 15 OFFCURVE",
"578 39 CURVE",
"578 340 LINE",
"345 340 LINE",
"345 296 LINE",
"528 296 LINE",
"528 67 LINE",
"484 49 OFFCURVE",
"419 37 OFFCURVE",
"357 37 CURVE SMOOTH",
"182 37 OFFCURVE",
"109 136 OFFCURVE",
"109 304 CURVE SMOOTH",
"109 487 OFFCURVE",
"168 606 OFFCURVE",
"356 606 CURVE SMOOTH",
"421 606 OFFCURVE",
"483 595 OFFCURVE",
"534 578 CURVE",
"534 627 LINE",
"483 644 OFFCURVE",
"423 654 OFFCURVE",
"350 654 CURVE SMOOTH",
"136 654 OFFCURVE",
"55 513 OFFCURVE",
"55 304 CURVE SMOOTH",
"55 116 OFFCURVE",
"147 -10 OFFCURVE",
"351 -10 CURVE SMOOTH"
);
},
{
closed = 1;
nodes = (
"419 687 OFFCURVE",
"462 734 OFFCURVE",
"462 798 CURVE",
"420 798 LINE",
"420 752 OFFCURVE",
"392 726 OFFCURVE",
"350 726 CURVE SMOOTH",
"309 726 OFFCURVE",
"281 752 OFFCURVE",
"281 798 CURVE",
"239 798 LINE",
"239 734 OFFCURVE",
"282 687 OFFCURVE",
"350 687 CURVE SMOOTH"
);
}
);
width = 633;
}
);
leftKerningGroup = G;
note = Gbreve;
unicode = 011E;
},
{
glyphname = Gcaron;
lastChange = "2015-10-24 21:18:08 +0000";
layers = (
{
layerId = "50AE23BC-B42B-4352-B38F-74DD4C968971";
name = Light;
paths = (
{
closed = 1;
nodes = (
"472 -10 OFFCURVE",
"542 15 OFFCURVE",
"578 39 CURVE",
"578 340 LINE",
"345 340 LINE",
"345 296 LINE",
"528 296 LINE",
"528 67 LINE",
"484 49 OFFCURVE",
"419 37 OFFCURVE",
"357 37 CURVE SMOOTH",
"182 37 OFFCURVE",
"109 136 OFFCURVE",
"109 304 CURVE SMOOTH",
"109 487 OFFCURVE",
"168 606 OFFCURVE",
"356 606 CURVE SMOOTH",
"421 606 OFFCURVE",
"483 595 OFFCURVE",
"534 578 CURVE",
"534 627 LINE",
"483 644 OFFCURVE",
"423 654 OFFCURVE",
"350 654 CURVE SMOOTH",
"136 654 OFFCURVE",
"55 513 OFFCURVE",
"55 304 CURVE SMOOTH",
"55 116 OFFCURVE",
"147 -10 OFFCURVE",
"351 -10 CURVE SMOOTH"
);
},
{
closed = 1;
nodes = (
"375 687 LINE",
"480 822 LINE",
"430 822 LINE",
"351 719 LINE",
"272 822 LINE",
"222 822 LINE",
"327 687 LINE"
);
}
);
width = 633;
}
);
leftKerningGroup = G;
note = Gcaron;
unicode = 01E6;
},
{
glyphname = Gcircumflex;
lastChange = "2015-10-24 21:18:08 +0000";
layers = (
{
layerId = "50AE23BC-B42B-4352-B38F-74DD4C968971";
name = Light;
paths = (
{
closed = 1;
nodes = (
"472 -10 OFFCURVE",
"542 15 OFFCURVE",
"578 39 CURVE",
"578 340 LINE",
"345 340 LINE",
"345 296 LINE",
"528 296 LINE",
"528 67 LINE",
"484 49 OFFCURVE",
"419 37 OFFCURVE",
"357 37 CURVE SMOOTH",
"182 37 OFFCURVE",
"109 136 OFFCURVE",
"109 304 CURVE SMOOTH",
"109 487 OFFCURVE",
"168 606 OFFCURVE",
"356 606 CURVE SMOOTH",
"421 606 OFFCURVE",
"483 595 OFFCURVE",
"534 578 CURVE",
"534 627 LINE",
"483 644 OFFCURVE",
"423 654 OFFCURVE",
"350 654 CURVE SMOOTH",
"136 654 OFFCURVE",
"55 513 OFFCURVE",
"55 304 CURVE SMOOTH",
"55 116 OFFCURVE",
"147 -10 OFFCURVE",
"351 -10 CURVE SMOOTH"
);
},
{
closed = 1;
nodes = (
"274 687 LINE",
"353 790 LINE",
"432 687 LINE",
"482 687 LINE",
"377 822 LINE",
"329 822 LINE",
"224 687 LINE"
);
}
);
width = 633;
}
);
leftKerningGroup = G;
note = Gcircumflex;
unicode = 011C;
},
{
glyphname = Gcommaaccent;
lastChange = "2015-10-24 21:18:08 +0000";
layers = (
{
layerId = "50AE23BC-B42B-4352-B38F-74DD4C968971";
name = Light;
paths = (
{
closed = 1;
nodes = (
"472 -10 OFFCURVE",
"542 15 OFFCURVE",
"578 39 CURVE",
"578 340 LINE",
"345 340 LINE",
"345 296 LINE",
"528 296 LINE",
"528 67 LINE",
"484 49 OFFCURVE",
"419 37 OFFCURVE",
"357 37 CURVE SMOOTH",
"182 37 OFFCURVE",
"109 136 OFFCURVE",
"109 304 CURVE SMOOTH",
"109 487 OFFCURVE",
"168 606 OFFCURVE",
"356 606 CURVE SMOOTH",
"421 606 OFFCURVE",
"483 595 OFFCURVE",
"534 578 CURVE",
"534 627 LINE",
"483 644 OFFCURVE",
"423 654 OFFCURVE",
"350 654 CURVE SMOOTH",
"136 654 OFFCURVE",
"55 513 OFFCURVE",
"55 304 CURVE SMOOTH",
"55 116 OFFCURVE",
"147 -10 OFFCURVE",
"351 -10 CURVE SMOOTH"
);
},
{
closed = 1;
nodes = (
"353 -207 LINE",
"391 -42 LINE",
"338 -42 LINE",
"312 -207 LINE"
);
}
);
width = 633;
}
);
leftKerningGroup = G;
note = Gcommaaccent;
unicode = 0122;
},
{
glyphname = Gdotaccent;
lastChange = "2015-10-24 21:18:08 +0000";
layers = (
{
layerId = "50AE23BC-B42B-4352-B38F-74DD4C968971";
name = Light;
paths = (
{
closed = 1;
nodes = (
"472 -10 OFFCURVE",
"542 15 OFFCURVE",
"578 39 CURVE",
"578 340 LINE",
"345 340 LINE",
"345 296 LINE",
"528 296 LINE",
"528 67 LINE",
"484 49 OFFCURVE",
"419 37 OFFCURVE",
"357 37 CURVE SMOOTH",
"182 37 OFFCURVE",
"109 136 OFFCURVE",
"109 304 CURVE SMOOTH",
"109 487 OFFCURVE",
"168 606 OFFCURVE",
"356 606 CURVE SMOOTH",
"421 606 OFFCURVE",
"483 595 OFFCURVE",
"534 578 CURVE",
"534 627 LINE",
"483 644 OFFCURVE",
"423 654 OFFCURVE",
"350 654 CURVE SMOOTH",
"136 654 OFFCURVE",
"55 513 OFFCURVE",
"55 304 CURVE SMOOTH",
"55 116 OFFCURVE",
"147 -10 OFFCURVE",
"351 -10 CURVE SMOOTH"
);
},
{
closed = 1;
nodes = (
"379 714 LINE",
"379 770 LINE",
"322 770 LINE",
"322 714 LINE"
);
}
);
width = 633;
}
);
leftKerningGroup = G;
note = Gdotaccent;
unicode = 0120;
},
{
glyphname = Gmacron;
lastChange = "2015-10-24 21:18:08 +0000";
layers = (
{
layerId = "50AE23BC-B42B-4352-B38F-74DD4C968971";
name = Light;
paths = (
{
closed = 1;
nodes = (
"472 -10 OFFCURVE",
"542 15 OFFCURVE",
"578 39 CURVE",
"578 340 LINE",
"345 340 LINE",
"345 296 LINE",
"528 296 LINE",
"528 67 LINE",
"484 49 OFFCURVE",
"419 37 OFFCURVE",
"357 37 CURVE SMOOTH",
"182 37 OFFCURVE",
"109 136 OFFCURVE",
"109 304 CURVE SMOOTH",
"109 487 OFFCURVE",
"168 606 OFFCURVE",
"356 606 CURVE SMOOTH",
"421 606 OFFCURVE",
"483 595 OFFCURVE",
"534 578 CURVE",
"534 627 LINE",
"483 644 OFFCURVE",
"423 654 OFFCURVE",
"350 654 CURVE SMOOTH",
"136 654 OFFCURVE",
"55 513 OFFCURVE",
"55 304 CURVE SMOOTH",
"55 116 OFFCURVE",
"147 -10 OFFCURVE",
"351 -10 CURVE SMOOTH"
);
},
{
closed = 1;
nodes = (
"490 717 LINE",
"490 759 LINE",
"213 759 LINE",
"213 717 LINE"
);
}
);
width = 633;
}
);
leftKerningGroup = G;
note = Gmacron;
unicode = 1E20;
},
{
glyphname = H;
lastChange = "2015-10-24 21:18:06 +0000";
layers = (
{
layerId = "50AE23BC-B42B-4352-B38F-74DD4C968971";
name = Light;
paths = (
{
closed = 1;
nodes = (
"130 0 LINE",
"130 300 LINE",
"500 300 LINE",
"500 0 LINE",
"555 0 LINE",
"555 644 LINE",
"500 644 LINE",
"500 344 LINE",
"130 344 LINE",
"130 644 LINE",
"75 644 LINE",
"75 0 LINE"
);
}
);
width = 630;
}
);
note = H;
unicode = 0048;
},
{
glyphname = Hbar;
lastChange = "2015-10-24 21:18:09 +0000";
layers = (
{
layerId = "50AE23BC-B42B-4352-B38F-74DD4C968971";
name = Light;
paths = (
{
closed = 1;
nodes = (
"144 0 LINE",
"144 300 LINE",
"514 300 LINE",
"514 0 LINE",
"569 0 LINE",
"569 471 LINE",
"646 471 LINE",
"646 516 LINE",
"569 516 LINE",
"569 644 LINE",
"514 644 LINE",
"514 516 LINE",
"144 516 LINE",
"144 644 LINE",
"89 644 LINE",
"89 516 LINE",
"25 516 LINE",
"25 471 LINE",
"89 471 LINE",
"89 0 LINE"
);
},
{
closed = 1;
nodes = (
"144 471 LINE",
"514 471 LINE",
"514 344 LINE",
"144 344 LINE"
);
}
);
width = 671;
}
);
note = Hbar;
unicode = 0126;
},
{
glyphname = Hbrevebelow;
lastChange = "2015-11-24 08:42:41 +0000";
layers = (
{
layerId = "50AE23BC-B42B-4352-B38F-74DD4C968971";
name = Light;
paths = (
{
closed = 1;
nodes = (
"130 0 LINE",
"130 300 LINE",
"500 300 LINE",
"500 0 LINE",
"555 0 LINE",
"555 644 LINE",
"500 644 LINE",
"500 344 LINE",
"130 344 LINE",
"130 644 LINE",
"75 644 LINE",
"75 0 LINE"
);
},
{
closed = 1;
nodes = (
"392 -185 OFFCURVE",
"451 -144 OFFCURVE",
"451 -55 CURVE",
"410 -55 LINE",
"410 -120 OFFCURVE",
"370 -147 OFFCURVE",
"315 -147 CURVE SMOOTH",
"261 -147 OFFCURVE",
"221 -120 OFFCURVE",
"221 -55 CURVE",
"179 -55 LINE",
"179 -144 OFFCURVE",
"238 -185 OFFCURVE",
"315 -185 CURVE SMOOTH"
);
}
);
width = 630;
}
);
note = Hbrevebelow;
unicode = 1E2A;
},
{
glyphname = Hcircumflex;
lastChange = "2015-11-24 08:43:09 +0000";
layers = (
{
layerId = "50AE23BC-B42B-4352-B38F-74DD4C968971";
name = Light;
paths = (
{
closed = 1;
nodes = (
"130 0 LINE",
"130 300 LINE",
"500 300 LINE",
"500 0 LINE",
"555 0 LINE",
"555 644 LINE",
"500 644 LINE",
"500 344 LINE",
"130 344 LINE",
"130 644 LINE",
"75 644 LINE",
"75 0 LINE"
);
},
{
closed = 1;
nodes = (
"236 687 LINE",
"315 790 LINE",
"394 687 LINE",
"444 687 LINE",
"339 822 LINE",
"291 822 LINE",
"186 687 LINE"
);
}
);
width = 630;
}
);
note = Hcircumflex;
unicode = 0124;
},
{
glyphname = Hdotbelow;
lastChange = "2015-11-24 08:43:09 +0000";
layers = (
{
layerId = "50AE23BC-B42B-4352-B38F-74DD4C968971";
name = Light;
paths = (
{
closed = 1;
nodes = (
"130 0 LINE",
"130 300 LINE",
"500 300 LINE",
"500 0 LINE",
"555 0 LINE",
"555 644 LINE",
"500 644 LINE",
"500 344 LINE",
"130 344 LINE",
"130 644 LINE",
"75 644 LINE",
"75 0 LINE"
);
},
{
closed = 1;
nodes = (
"345 -152 LINE",
"345 -95 LINE",
"286 -95 LINE",
"286 -152 LINE"
);
}
);
width = 630;
}
);
note = Hdotbelow;
unicode = 1E24;
},
{
glyphname = I;
lastChange = "2015-10-24 21:18:06 +0000";
layers = (
{
layerId = "50AE23BC-B42B-4352-B38F-74DD4C968971";
name = Light;
paths = (
{
closed = 1;
nodes = (
"130 0 LINE",
"130 644 LINE",
"75 644 LINE",
"75 0 LINE"
);
}
);
width = 205;
}
);
note = I;
unicode = 0049;
},
{
glyphname = IJ;
lastChange = "2015-10-24 21:18:09 +0000";
layers = (
{
layerId = "50AE23BC-B42B-4352-B38F-74DD4C968971";
name = Light;
paths = (
{
closed = 1;
nodes = (
"474 -10 OFFCURVE",
"532 52 OFFCURVE",
"532 165 CURVE SMOOTH",
"532 644 LINE",
"477 644 LINE",
"477 168 LINE SMOOTH",
"477 77 OFFCURVE",
"441 37 OFFCURVE",
"341 37 CURVE SMOOTH",
"296 37 OFFCURVE",
"249 47 OFFCURVE",
"218 61 CURVE",
"218 13 LINE",
"250 0 OFFCURVE",
"295 -10 OFFCURVE",
"348 -10 CURVE SMOOTH"
);
},
{
closed = 1;
nodes = (
"130 0 LINE",
"130 644 LINE",
"75 644 LINE",
"75 0 LINE"
);
}
);
width = 602;
}
);
note = IJ;
unicode = 0132;
},
{
glyphname = Iacute;
lastChange = "2015-10-24 21:18:08 +0000";
layers = (
{
layerId = "50AE23BC-B42B-4352-B38F-74DD4C968971";
name = Light;
paths = (
{
closed = 1;
nodes = (
"130 0 LINE",
"130 644 LINE",
"75 644 LINE",
"75 0 LINE"
);
},
{
closed = 1;
nodes = (
"123 688 LINE",
"197 846 LINE",
"145 846 LINE",
"78 688 LINE"
);
}
);
width = 205;
}
);
note = Iacute;
unicode = 00CD;
},
{
glyphname = Ibreve;
lastChange = "2015-10-24 21:18:09 +0000";
layers = (
{
layerId = "50AE23BC-B42B-4352-B38F-74DD4C968971";
name = Light;
paths = (
{
closed = 1;
nodes = (
"130 0 LINE",
"130 644 LINE",
"75 644 LINE",
"75 0 LINE"
);
},
{
closed = 1;
nodes = (
"171 691 OFFCURVE",
"214 738 OFFCURVE",
"214 802 CURVE",
"172 802 LINE",
"172 756 OFFCURVE",
"144 730 OFFCURVE",
"102 730 CURVE SMOOTH",
"61 730 OFFCURVE",
"33 756 OFFCURVE",
"33 802 CURVE",
"-9 802 LINE",
"-9 738 OFFCURVE",
"34 691 OFFCURVE",
"102 691 CURVE SMOOTH"
);
}
);
width = 205;
}
);
note = Ibreve;
unicode = 012C;
},
{
glyphname = Icaron;
lastChange = "2015-10-24 21:18:09 +0000";
layers = (
{
layerId = "50AE23BC-B42B-4352-B38F-74DD4C968971";
name = Light;
paths = (
{
closed = 1;
nodes = (
"130 0 LINE",
"130 644 LINE",
"75 644 LINE",
"75 0 LINE"
);
},
{
closed = 1;
nodes = (
"126 687 LINE",
"231 822 LINE",
"181 822 LINE",
"102 719 LINE",
"23 822 LINE",
"-27 822 LINE",
"78 687 LINE"
);
}
);
width = 205;
}
);
note = Icaron;
unicode = 01CF;
},
{
glyphname = Icircumflex;
lastChange = "2015-10-24 21:18:09 +0000";
layers = (
{
layerId = "50AE23BC-B42B-4352-B38F-74DD4C968971";
name = Light;
paths = (
{
closed = 1;
nodes = (
"130 0 LINE",
"130 644 LINE",
"75 644 LINE",
"75 0 LINE"
);
},
{
closed = 1;
nodes = (
"23 687 LINE",
"102 790 LINE",
"181 687 LINE",
"231 687 LINE",
"126 822 LINE",
"78 822 LINE",
"-27 687 LINE"
);
}
);
width = 205;
}
);
note = Icircumflex;
unicode = 00CE;
},
{
glyphname = Idieresis;
lastChange = "2015-10-24 21:18:09 +0000";
layers = (
{
layerId = "50AE23BC-B42B-4352-B38F-74DD4C968971";
name = Light;
paths = (
{
closed = 1;
nodes = (
"130 0 LINE",
"130 644 LINE",
"75 644 LINE",
"75 0 LINE"
);
},
{
closed = 1;
nodes = (
"47 715 LINE",
"47 770 LINE",
"-10 770 LINE",
"-10 715 LINE"
);
},
{
closed = 1;
nodes = (
"213 715 LINE",
"213 770 LINE",
"157 770 LINE",
"157 715 LINE"
);
}
);
width = 205;
}
);
note = Idieresis;
unicode = 00CF;
},
{
glyphname = Idotaccent;
lastChange = "2015-10-24 21:18:08 +0000";
layers = (
{
layerId = "50AE23BC-B42B-4352-B38F-74DD4C968971";
name = Light;
paths = (
{
closed = 1;
nodes = (
"130 0 LINE",
"130 644 LINE",
"75 644 LINE",
"75 0 LINE"
);
},
{
closed = 1;
nodes = (
"131 715 LINE",
"131 771 LINE",
"74 771 LINE",
"74 715 LINE"
);
}
);
width = 205;
}
);
note = Idotaccent;
unicode = 0130;
},
{
glyphname = Idotbelow;
lastChange = "2015-10-24 21:18:08 +0000";
layers = (
{
layerId = "50AE23BC-B42B-4352-B38F-74DD4C968971";
name = Light;
paths = (
{
closed = 1;
nodes = (
"130 0 LINE",
"130 644 LINE",
"75 644 LINE",
"75 0 LINE"
);
},
{
closed = 1;
nodes = (
"132 -152 LINE",
"132 -95 LINE",
"73 -95 LINE",
"73 -152 LINE"
);
}
);
width = 205;
}
);
note = Idotbelow;
unicode = 1ECA;
},
{
glyphname = Igrave;
lastChange = "2015-10-24 21:18:09 +0000";
layers = (
{
layerId = "50AE23BC-B42B-4352-B38F-74DD4C968971";
name = Light;
paths = (
{
closed = 1;
nodes = (
"130 0 LINE",
"130 644 LINE",
"75 644 LINE",
"75 0 LINE"
);
},
{
closed = 1;
nodes = (
"125 688 LINE",
"58 846 LINE",
"6 846 LINE",
"80 688 LINE"
);
}
);
width = 205;
}
);
note = Igrave;
unicode = 00CC;
},
{
glyphname = Ihookabove;
lastChange = "2015-10-24 21:18:09 +0000";
layers = (
{
layerId = "50AE23BC-B42B-4352-B38F-74DD4C968971";
name = Light;
paths = (
{
closed = 1;
nodes = (
"125 688 LINE",
"125 740 LINE",
"193 747 OFFCURVE",
"215 776 OFFCURVE",
"215 829 CURVE SMOOTH",
"215 885 OFFCURVE",
"175 917 OFFCURVE",
"99 917 CURVE SMOOTH",
"75 917 OFFCURVE",
"40 912 OFFCURVE",
"22 905 CURVE",
"22 867 LINE",
"39 874 OFFCURVE",
"68 879 OFFCURVE",
"89 879 CURVE SMOOTH",
"147 879 OFFCURVE",
"172 862 OFFCURVE",
"172 826 CURVE SMOOTH",
"172 788 OFFCURVE",
"158 771 OFFCURVE",
"78 767 CURVE",
"78 688 LINE"
);
},
{
closed = 1;
nodes = (
"130 0 LINE",
"130 644 LINE",
"75 644 LINE",
"75 0 LINE"
);
}
);
width = 205;
}
);
note = Ihookabove;
unicode = 1EC8;
},
{
glyphname = Imacron;
lastChange = "2015-10-24 21:18:08 +0000";
layers = (
{
layerId = "50AE23BC-B42B-4352-B38F-74DD4C968971";
name = Light;
paths = (
{
closed = 1;
nodes = (
"130 0 LINE",
"130 644 LINE",
"75 644 LINE",
"75 0 LINE"
);
},
{
closed = 1;
nodes = (
"241 719 LINE",
"241 761 LINE",
"-36 761 LINE",
"-36 719 LINE"
);
}
);
width = 205;
}
);
note = Imacron;
unicode = 012A;
},
{
glyphname = Iogonek;
lastChange = "2015-10-24 21:18:09 +0000";
layers = (
{
layerId = "50AE23BC-B42B-4352-B38F-74DD4C968971";
name = Light;
paths = (
{
closed = 1;
nodes = (
"130 0 LINE",
"130 644 LINE",
"75 644 LINE",
"75 0 LINE"
);
},
{
closed = 1;
nodes = (
"115 -220 OFFCURVE",
"140 -217 OFFCURVE",
"155 -209 CURVE",
"155 -168 LINE",
"143 -175 OFFCURVE",
"122 -179 OFFCURVE",
"105 -179 CURVE SMOOTH",
"68 -179 OFFCURVE",
"52 -165 OFFCURVE",
"52 -128 CURVE SMOOTH",
"52 -83 OFFCURVE",
"76 -37 OFFCURVE",
"126 0 CURVE",
"80 0 LINE",
"38 -29 OFFCURVE",
"5 -80 OFFCURVE",
"5 -134 CURVE SMOOTH",
"5 -197 OFFCURVE",
"45 -220 OFFCURVE",
"96 -220 CURVE SMOOTH"
);
}
);
width = 205;
}
);
note = Iogonek;
unicode = 012E;
},
{
glyphname = Itilde;
lastChange = "2015-10-24 21:18:09 +0000";
layers = (
{
layerId = "50AE23BC-B42B-4352-B38F-74DD4C968971";
name = Light;
paths = (
{
closed = 1;
nodes = (
"130 0 LINE",
"130 644 LINE",
"75 644 LINE",
"75 0 LINE"
);
},
{
closed = 1;
nodes = (
"205 690 OFFCURVE",
"231 701 OFFCURVE",
"244 719 CURVE",
"244 766 LINE",
"226 741 OFFCURVE",
"203 731 OFFCURVE",
"171 731 CURVE SMOOTH",
"125 731 OFFCURVE",
"91 768 OFFCURVE",
"39 768 CURVE SMOOTH",
"9 768 OFFCURVE",
"-23 757 OFFCURVE",
"-39 739 CURVE",
"-39 692 LINE",
"-17 719 OFFCURVE",
"10 727 OFFCURVE",
"40 727 CURVE SMOOTH",
"80 727 OFFCURVE",
"124 690 OFFCURVE",
"173 690 CURVE SMOOTH"
);
}
);
width = 205;
}
);
note = Itilde;
unicode = 0128;
},
{
glyphname = J;
lastChange = "2015-10-24 21:18:06 +0000";
layers = (
{
layerId = "50AE23BC-B42B-4352-B38F-74DD4C968971";
name = Light;
paths = (
{
closed = 1;
nodes = (
"291 -10 OFFCURVE",
"349 52 OFFCURVE",
"349 165 CURVE SMOOTH",
"349 644 LINE",
"294 644 LINE",
"294 168 LINE SMOOTH",
"294 77 OFFCURVE",
"258 37 OFFCURVE",
"158 37 CURVE SMOOTH",
"113 37 OFFCURVE",
"66 47 OFFCURVE",
"35 61 CURVE",
"35 13 LINE",
"67 0 OFFCURVE",
"112 -10 OFFCURVE",
"165 -10 CURVE SMOOTH"
);
}
);
width = 419;
}
);
note = J;
unicode = 004A;
},
{
glyphname = Jcircumflex;
lastChange = "2015-10-24 21:18:08 +0000";
layers = (
{
layerId = "50AE23BC-B42B-4352-B38F-74DD4C968971";
name = Light;
paths = (
{
closed = 1;
nodes = (
"291 -10 OFFCURVE",
"349 52 OFFCURVE",
"349 165 CURVE SMOOTH",
"349 644 LINE",
"294 644 LINE",
"294 168 LINE SMOOTH",
"294 77 OFFCURVE",
"258 37 OFFCURVE",
"158 37 CURVE SMOOTH",
"113 37 OFFCURVE",
"66 47 OFFCURVE",
"35 61 CURVE",
"35 13 LINE",
"67 0 OFFCURVE",
"112 -10 OFFCURVE",
"165 -10 CURVE SMOOTH"
);
},
{
closed = 1;
nodes = (
"240 687 LINE",
"319 790 LINE",
"398 687 LINE",
"448 687 LINE",
"343 822 LINE",
"295 822 LINE",
"190 687 LINE"
);
}
);
width = 419;
}
);
note = Jcircumflex;
unicode = 0134;
},
{
glyphname = K;
lastChange = "2015-10-24 21:18:07 +0000";
layers = (
{
layerId = "50AE23BC-B42B-4352-B38F-74DD4C968971";
name = Light;
paths = (
{
closed = 1;
nodes = (
"130 0 LINE",
"130 231 LINE",
"245 352 LINE",
"470 0 LINE",
"530 0 LINE",
"279 388 LINE",
"524 644 LINE",
"457 644 LINE",
"130 302 LINE",
"130 644 LINE",
"75 644 LINE",
"75 0 LINE"
);
}
);
width = 585;
}
);
leftKerningGroup = K;
note = K;
rightKerningGroup = K;
unicode = 004B;
},
{
glyphname = Kcommaaccent;
lastChange = "2015-10-24 21:18:09 +0000";
layers = (
{
layerId = "50AE23BC-B42B-4352-B38F-74DD4C968971";
name = Light;
paths = (
{
closed = 1;
nodes = (
"130 0 LINE",
"130 231 LINE",
"245 352 LINE",
"470 0 LINE",
"530 0 LINE",
"279 388 LINE",
"524 644 LINE",
"457 644 LINE",
"130 302 LINE",
"130 644 LINE",
"75 644 LINE",
"75 0 LINE"
);
},
{
closed = 1;
nodes = (
"282 -202 LINE",
"320 -37 LINE",
"267 -37 LINE",
"241 -202 LINE"
);
}
);
width = 585;
}
);
leftKerningGroup = K;
note = Kcommaaccent;
rightKerningGroup = K;
unicode = 0136;
},
{
glyphname = L;
lastChange = "2015-10-24 21:18:07 +0000";
layers = (
{
layerId = "50AE23BC-B42B-4352-B38F-74DD4C968971";
name = Light;
paths = (
{
closed = 1;
nodes = (
"486 0 LINE",
"486 44 LINE",
"130 44 LINE",
"130 644 LINE",
"75 644 LINE",
"75 0 LINE"
);
}
);
width = 521;
}
);
note = L;
rightKerningGroup = L;
unicode = 004C;
},
{
glyphname = Lacute;
lastChange = "2015-10-24 21:18:09 +0000";
layers = (
{
layerId = "50AE23BC-B42B-4352-B38F-74DD4C968971";
name = Light;
paths = (
{
closed = 1;
nodes = (
"486 0 LINE",
"486 44 LINE",
"130 44 LINE",
"130 644 LINE",
"75 644 LINE",
"75 0 LINE"
);
},
{
closed = 1;
nodes = (
"122 688 LINE",
"196 846 LINE",
"144 846 LINE",
"77 688 LINE"
);
}
);
width = 521;
}
);
note = Lacute;
rightKerningGroup = L;
unicode = 0139;
},
{
glyphname = Lcaron;
lastChange = "2015-10-24 21:18:08 +0000";
layers = (
{
layerId = "50AE23BC-B42B-4352-B38F-74DD4C968971";
name = Light;
paths = (
{
closed = 1;
nodes = (
"486 0 LINE",
"486 44 LINE",
"130 44 LINE",
"130 644 LINE",
"75 644 LINE",
"75 0 LINE"
);
},
{
closed = 1;
nodes = (
"332 570 LINE",
"370 735 LINE",
"317 735 LINE",
"291 570 LINE"
);
}
);
width = 521;
}
);
note = Lcaron;
rightKerningGroup = L;
unicode = 013D;
},
{
glyphname = Lcommaaccent;
lastChange = "2015-10-24 21:18:09 +0000";
layers = (
{
layerId = "50AE23BC-B42B-4352-B38F-74DD4C968971";
name = Light;
paths = (
{
closed = 1;
nodes = (
"486 0 LINE",
"486 44 LINE",
"130 44 LINE",
"130 644 LINE",
"75 644 LINE",
"75 0 LINE"
);
},
{
closed = 1;
nodes = (
"266 -202 LINE",
"304 -37 LINE",
"251 -37 LINE",
"225 -202 LINE"
);
}
);
width = 521;
}
);
note = Lcommaaccent;
rightKerningGroup = L;
unicode = 013B;
},
{
glyphname = Ldot;
lastChange = "2015-11-24 08:44:02 +0000";
layers = (
{
layerId = "50AE23BC-B42B-4352-B38F-74DD4C968971";
name = Light;
paths = (
{
closed = 1;
nodes = (
"486 0 LINE",
"486 44 LINE",
"130 44 LINE",
"130 644 LINE",
"75 644 LINE",
"75 0 LINE"
);
},
{
closed = 1;
nodes = (
"366 252 LINE",
"366 309 LINE",
"307 309 LINE",
"307 252 LINE"
);
}
);
width = 521;
}
);
note = Ldot;
rightKerningGroup = L;
unicode = 013F;
},
{
glyphname = Ldotbelow;
lastChange = "2015-11-24 08:44:43 +0000";
layers = (
{
layerId = "50AE23BC-B42B-4352-B38F-74DD4C968971";
name = Light;
paths = (
{
closed = 1;
nodes = (
"486 0 LINE",
"486 44 LINE",
"130 44 LINE",
"130 644 LINE",
"75 644 LINE",
"75 0 LINE"
);
},
{
closed = 1;
nodes = (
"305 -152 LINE",
"305 -95 LINE",
"246 -95 LINE",
"246 -152 LINE"
);
}
);
width = 521;
}
);
note = Ldotbelow;
rightKerningGroup = L;
unicode = 1E36;
},
{
glyphname = Ldotbelowmacron;
lastChange = "2015-11-24 08:44:32 +0000";
layers = (
{
layerId = "50AE23BC-B42B-4352-B38F-74DD4C968971";
name = Light;
paths = (
{
closed = 1;
nodes = (
"486 0 LINE",
"486 44 LINE",
"130 44 LINE",
"130 644 LINE",
"75 644 LINE",
"75 0 LINE"
);
},
{
closed = 1;
nodes = (
"305 -152 LINE",
"305 -95 LINE",
"246 -95 LINE",
"246 -152 LINE"
);
},
{
closed = 1;
nodes = (
"277 717 LINE",
"277 759 LINE",
"0 759 LINE",
"0 717 LINE"
);
}
);
width = 521;
}
);
note = Ldotbelowmacron;
rightKerningGroup = L;
unicode = 1E38;
},
{
glyphname = Llinebelow;
lastChange = "2015-10-24 21:18:09 +0000";
layers = (
{
layerId = "50AE23BC-B42B-4352-B38F-74DD4C968971";
name = Light;
paths = (
{
closed = 1;
nodes = (
"486 0 LINE",
"486 44 LINE",
"130 44 LINE",
"130 644 LINE",
"75 644 LINE",
"75 0 LINE"
);
},
{
closed = 1;
nodes = (
"411 -117 LINE",
"411 -75 LINE",
"134 -75 LINE",
"134 -117 LINE"
);
}
);
width = 521;
}
);
note = Llinebelow;
rightKerningGroup = L;
unicode = 1E3A;
},
{
glyphname = Lslash;
lastChange = "2015-10-24 21:18:07 +0000";
layers = (
{
layerId = "50AE23BC-B42B-4352-B38F-74DD4C968971";
name = Light;
paths = (
{
closed = 1;
nodes = (
"510 0 LINE",
"510 44 LINE",
"153 44 LINE",
"153 316 LINE",
"306 383 LINE",
"306 431 LINE",
"153 364 LINE",
"153 644 LINE",
"98 644 LINE",
"98 340 LINE",
"0 297 LINE",
"0 249 LINE",
"98 292 LINE",
"98 0 LINE"
);
}
);
width = 545;
}
);
note = Lslash;
rightKerningGroup = L;
unicode = 0141;
},
{
glyphname = M;
lastChange = "2015-10-24 21:18:07 +0000";
layers = (
{
layerId = "50AE23BC-B42B-4352-B38F-74DD4C968971";
name = Light;
paths = (
{
closed = 1;
nodes = (
"129 0 LINE",
"129 564 LINE",
"351 112 LINE",
"394 112 LINE",
"615 564 LINE",
"615 0 LINE",
"669 0 LINE",
"669 644 LINE",
"605 644 LINE",
"372 167 LINE",
"139 644 LINE",
"75 644 LINE",
"75 0 LINE"
);
}
);
width = 744;
}
);
note = M;
unicode = 004D;
},
{
glyphname = Mdotbelow;
lastChange = "2015-10-24 21:18:09 +0000";
layers = (
{
layerId = "50AE23BC-B42B-4352-B38F-74DD4C968971";
name = Light;
paths = (
{
closed = 1;
nodes = (
"129 0 LINE",
"129 564 LINE",
"351 112 LINE",
"394 112 LINE",
"615 564 LINE",
"615 0 LINE",
"669 0 LINE",
"669 644 LINE",
"605 644 LINE",
"372 167 LINE",
"139 644 LINE",
"75 644 LINE",
"75 0 LINE"
);
},
{
closed = 1;
nodes = (
"402 -152 LINE",
"402 -95 LINE",
"343 -95 LINE",
"343 -152 LINE"
);
}
);
width = 744;
}
);
note = Mdotbelow;
unicode = 1E42;
},
{
glyphname = N;
lastChange = "2015-10-24 21:18:07 +0000";
layers = (
{
layerId = "50AE23BC-B42B-4352-B38F-74DD4C968971";
name = Light;
paths = (
{
closed = 1;
nodes = (
"130 0 LINE",
"130 561 LINE",
"528 0 LINE",
"581 0 LINE",
"581 644 LINE",
"526 644 LINE",
"526 82 LINE",
"127 644 LINE",
"75 644 LINE",
"75 0 LINE"
);
}
);
width = 656;
}
);
note = N;
unicode = 004E;
},
{
glyphname = Nacute;
lastChange = "2015-10-24 21:18:09 +0000";
layers = (
{
layerId = "50AE23BC-B42B-4352-B38F-74DD4C968971";
name = Light;
paths = (
{
closed = 1;
nodes = (
"130 0 LINE",
"130 561 LINE",
"528 0 LINE",
"581 0 LINE",
"581 644 LINE",
"526 644 LINE",
"526 82 LINE",
"127 644 LINE",
"75 644 LINE",
"75 0 LINE"
);
},
{
closed = 1;
nodes = (
"354 688 LINE",
"428 846 LINE",
"376 846 LINE",
"309 688 LINE"
);
}
);
width = 656;
}
);
note = Nacute;
unicode = 0143;
},
{
glyphname = Ncaron;
lastChange = "2015-10-24 21:18:08 +0000";
layers = (
{
layerId = "50AE23BC-B42B-4352-B38F-74DD4C968971";
name = Light;
paths = (
{
closed = 1;
nodes = (
"130 0 LINE",
"130 561 LINE",
"528 0 LINE",
"581 0 LINE",
"581 644 LINE",
"526 644 LINE",
"526 82 LINE",
"127 644 LINE",
"75 644 LINE",
"75 0 LINE"
);
},
{
closed = 1;
nodes = (
"372 687 LINE",
"477 822 LINE",
"427 822 LINE",
"348 719 LINE",
"269 822 LINE",
"219 822 LINE",
"324 687 LINE"
);
}
);
width = 656;
}
);
note = Ncaron;
unicode = 0147;
},
{
glyphname = Ncommaaccent;
lastChange = "2015-10-24 21:18:09 +0000";
layers = (
{
layerId = "50AE23BC-B42B-4352-B38F-74DD4C968971";
name = Light;
paths = (
{
closed = 1;
nodes = (
"130 0 LINE",
"130 561 LINE",
"528 0 LINE",
"581 0 LINE",
"581 644 LINE",
"526 644 LINE",
"526 82 LINE",
"127 644 LINE",
"75 644 LINE",
"75 0 LINE"
);
},
{
closed = 1;
nodes = (
"321 -202 LINE",
"359 -37 LINE",
"306 -37 LINE",
"280 -202 LINE"
);
}
);
width = 656;
}
);
note = Ncommaaccent;
unicode = 0145;
},
{
glyphname = Ndotaccent;
lastChange = "2015-10-24 21:18:09 +0000";
layers = (
{
layerId = "50AE23BC-B42B-4352-B38F-74DD4C968971";
name = Light;
paths = (
{
closed = 1;
nodes = (
"130 0 LINE",
"130 561 LINE",
"528 0 LINE",
"581 0 LINE",
"581 644 LINE",
"526 644 LINE",
"526 82 LINE",
"127 644 LINE",
"75 644 LINE",
"75 0 LINE"
);
},
{
closed = 1;
nodes = (
"372 714 LINE",
"372 770 LINE",
"315 770 LINE",
"315 714 LINE"
);
}
);
width = 656;
}
);
note = Ndotaccent;
unicode = 1E44;
},
{
glyphname = Ndotbelow;
lastChange = "2015-10-24 21:18:08 +0000";
layers = (
{
layerId = "50AE23BC-B42B-4352-B38F-74DD4C968971";
name = Light;
paths = (
{
closed = 1;
nodes = (
"130 0 LINE",
"130 561 LINE",
"528 0 LINE",
"581 0 LINE",
"581 644 LINE",
"526 644 LINE",
"526 82 LINE",
"127 644 LINE",
"75 644 LINE",
"75 0 LINE"
);
},
{
closed = 1;
nodes = (
"355 -152 LINE",
"355 -95 LINE",
"296 -95 LINE",
"296 -152 LINE"
);
}
);
width = 656;
}
);
note = Ndotbelow;
unicode = 1E46;
},
{
glyphname = Eng;
lastChange = "2015-10-24 21:18:07 +0000";
layers = (
{
layerId = "50AE23BC-B42B-4352-B38F-74DD4C968971";
name = Light;
paths = (
{
closed = 1;
nodes = (
"531 -234 OFFCURVE",
"581 -184 OFFCURVE",
"581 -102 CURVE SMOOTH",
"581 644 LINE",
"526 644 LINE",
"526 82 LINE",
"127 644 LINE",
"75 644 LINE",
"75 0 LINE",
"130 0 LINE",
"130 561 LINE",
"526 3 LINE",
"526 -99 LINE SMOOTH",
"526 -159 OFFCURVE",
"501 -187 OFFCURVE",
"427 -187 CURVE SMOOTH",
"411 -187 OFFCURVE",
"389 -184 OFFCURVE",
"366 -177 CURVE",
"366 -222 LINE",
"388 -230 OFFCURVE",
"417 -234 OFFCURVE",
"446 -234 CURVE SMOOTH"
);
}
);
width = 656;
}
);
note = Eng;
unicode = 014A;
},
{
glyphname = Nlinebelow;
lastChange = "2015-10-24 21:18:09 +0000";
layers = (
{
layerId = "50AE23BC-B42B-4352-B38F-74DD4C968971";
name = Light;
paths = (
{
closed = 1;
nodes = (
"130 0 LINE",
"130 561 LINE",
"528 0 LINE",
"581 0 LINE",
"581 644 LINE",
"526 644 LINE",
"526 82 LINE",
"127 644 LINE",
"75 644 LINE",
"75 0 LINE"
);
},
{
closed = 1;
nodes = (
"467 -116 LINE",
"467 -74 LINE",
"190 -74 LINE",
"190 -116 LINE"
);
}
);
width = 656;
}
);
note = Nlinebelow;
unicode = 1E48;
},
{
glyphname = Ntilde;
lastChange = "2015-10-24 21:18:09 +0000";
layers = (
{
layerId = "50AE23BC-B42B-4352-B38F-74DD4C968971";
name = Light;
paths = (
{
closed = 1;
nodes = (
"130 0 LINE",
"130 561 LINE",
"528 0 LINE",
"581 0 LINE",
"581 644 LINE",
"526 644 LINE",
"526 82 LINE",
"127 644 LINE",
"75 644 LINE",
"75 0 LINE"
);
},
{
closed = 1;
nodes = (
"431 713 OFFCURVE",
"457 724 OFFCURVE",
"470 742 CURVE",
"470 789 LINE",
"452 764 OFFCURVE",
"429 754 OFFCURVE",
"397 754 CURVE SMOOTH",
"351 754 OFFCURVE",
"317 791 OFFCURVE",
"265 791 CURVE SMOOTH",
"235 791 OFFCURVE",
"203 780 OFFCURVE",
"187 762 CURVE",
"187 715 LINE",
"209 742 OFFCURVE",
"236 750 OFFCURVE",
"266 750 CURVE SMOOTH",
"306 750 OFFCURVE",
"350 713 OFFCURVE",
"399 713 CURVE SMOOTH"
);
}
);
width = 656;
}
);
note = Ntilde;
unicode = 00D1;
},
{
glyphname = O;
lastChange = "2015-10-24 21:18:08 +0000";
layers = (
{
layerId = "50AE23BC-B42B-4352-B38F-74DD4C968971";
name = Light;
paths = (
{
closed = 1;
nodes = (
"542 -10 OFFCURVE",
"633 104 OFFCURVE",
"633 319 CURVE SMOOTH",
"633 549 OFFCURVE",
"543 654 OFFCURVE",
"344 654 CURVE SMOOTH",
"145 654 OFFCURVE",
"55 549 OFFCURVE",
"55 319 CURVE SMOOTH",
"55 104 OFFCURVE",
"145 -10 OFFCURVE",
"344 -10 CURVE SMOOTH"
);
},
{
closed = 1;
nodes = (
"185 37 OFFCURVE",
"109 124 OFFCURVE",
"109 319 CURVE SMOOTH",
"109 531 OFFCURVE",
"185 606 OFFCURVE",
"344 606 CURVE SMOOTH",
"502 606 OFFCURVE",
"578 531 OFFCURVE",
"578 319 CURVE SMOOTH",
"578 124 OFFCURVE",
"502 37 OFFCURVE",
"344 37 CURVE SMOOTH"
);
}
);
width = 688;
}
);
leftKerningGroup = O;
note = O;
rightKerningGroup = O;
unicode = 004F;
},
{
glyphname = Oacute;
lastChange = "2015-10-24 21:18:09 +0000";
layers = (
{
layerId = "50AE23BC-B42B-4352-B38F-74DD4C968971";
name = Light;
paths = (
{
closed = 1;
nodes = (
"542 -10 OFFCURVE",
"633 104 OFFCURVE",
"633 319 CURVE SMOOTH",
"633 549 OFFCURVE",
"543 654 OFFCURVE",
"344 654 CURVE SMOOTH",
"145 654 OFFCURVE",
"55 549 OFFCURVE",
"55 319 CURVE SMOOTH",
"55 104 OFFCURVE",
"145 -10 OFFCURVE",
"344 -10 CURVE SMOOTH"
);
},
{
closed = 1;
nodes = (
"185 37 OFFCURVE",
"109 124 OFFCURVE",
"109 319 CURVE SMOOTH",
"109 531 OFFCURVE",
"185 606 OFFCURVE",
"344 606 CURVE SMOOTH",
"502 606 OFFCURVE",
"578 531 OFFCURVE",
"578 319 CURVE SMOOTH",
"578 124 OFFCURVE",
"502 37 OFFCURVE",
"344 37 CURVE SMOOTH"
);
},
{
closed = 1;
nodes = (
"367 688 LINE",
"441 846 LINE",
"389 846 LINE",
"322 688 LINE"
);
}
);
width = 688;
}
);
leftKerningGroup = O;
note = Oacute;
rightKerningGroup = O;
unicode = 00D3;
},
{
glyphname = Obreve;
lastChange = "2015-10-24 21:18:09 +0000";
layers = (
{
layerId = "50AE23BC-B42B-4352-B38F-74DD4C968971";
name = Light;
paths = (
{
closed = 1;
nodes = (
"542 -10 OFFCURVE",
"633 104 OFFCURVE",
"633 319 CURVE SMOOTH",
"633 549 OFFCURVE",
"543 654 OFFCURVE",
"344 654 CURVE SMOOTH",
"145 654 OFFCURVE",
"55 549 OFFCURVE",
"55 319 CURVE SMOOTH",
"55 104 OFFCURVE",
"145 -10 OFFCURVE",
"344 -10 CURVE SMOOTH"
);
},
{
closed = 1;
nodes = (
"185 37 OFFCURVE",
"109 124 OFFCURVE",
"109 319 CURVE SMOOTH",
"109 531 OFFCURVE",
"185 606 OFFCURVE",
"344 606 CURVE SMOOTH",
"502 606 OFFCURVE",
"578 531 OFFCURVE",
"578 319 CURVE SMOOTH",
"578 124 OFFCURVE",
"502 37 OFFCURVE",
"344 37 CURVE SMOOTH"
);
},
{
closed = 1;
nodes = (
"413 687 OFFCURVE",
"456 734 OFFCURVE",
"456 798 CURVE",
"414 798 LINE",
"414 752 OFFCURVE",
"386 726 OFFCURVE",
"344 726 CURVE SMOOTH",
"303 726 OFFCURVE",
"275 752 OFFCURVE",
"275 798 CURVE",
"233 798 LINE",
"233 734 OFFCURVE",
"276 687 OFFCURVE",
"344 687 CURVE SMOOTH"
);
}
);
width = 688;
}
);
leftKerningGroup = O;
note = Obreve;
rightKerningGroup = O;
unicode = 014E;
},
{
glyphname = Ocaron;
lastChange = "2015-10-24 21:18:09 +0000";
layers = (
{
layerId = "50AE23BC-B42B-4352-B38F-74DD4C968971";
name = Light;
paths = (
{
closed = 1;
nodes = (
"542 -10 OFFCURVE",
"633 104 OFFCURVE",
"633 319 CURVE SMOOTH",
"633 549 OFFCURVE",
"543 654 OFFCURVE",
"344 654 CURVE SMOOTH",
"145 654 OFFCURVE",
"55 549 OFFCURVE",
"55 319 CURVE SMOOTH",
"55 104 OFFCURVE",
"145 -10 OFFCURVE",
"344 -10 CURVE SMOOTH"
);
},
{
closed = 1;
nodes = (
"185 37 OFFCURVE",
"109 124 OFFCURVE",
"109 319 CURVE SMOOTH",
"109 531 OFFCURVE",
"185 606 OFFCURVE",
"344 606 CURVE SMOOTH",
"502 606 OFFCURVE",
"578 531 OFFCURVE",
"578 319 CURVE SMOOTH",
"578 124 OFFCURVE",
"502 37 OFFCURVE",
"344 37 CURVE SMOOTH"
);
},
{
closed = 1;
nodes = (
"368 687 LINE",
"473 822 LINE",
"423 822 LINE",
"344 719 LINE",
"265 822 LINE",
"215 822 LINE",
"320 687 LINE"
);
}
);
width = 688;
}
);
leftKerningGroup = O;
note = Ocaron;
rightKerningGroup = O;
unicode = 01D1;
},
{
glyphname = Ocircumflex;
lastChange = "2015-10-24 21:18:08 +0000";
layers = (
{
layerId = "50AE23BC-B42B-4352-B38F-74DD4C968971";
name = Light;
paths = (
{
closed = 1;
nodes = (
"542 -10 OFFCURVE",
"633 104 OFFCURVE",
"633 319 CURVE SMOOTH",
"633 549 OFFCURVE",
"543 654 OFFCURVE",
"344 654 CURVE SMOOTH",
"145 654 OFFCURVE",
"55 549 OFFCURVE",
"55 319 CURVE SMOOTH",
"55 104 OFFCURVE",
"145 -10 OFFCURVE",
"344 -10 CURVE SMOOTH"
);
},
{
closed = 1;
nodes = (
"185 37 OFFCURVE",
"109 124 OFFCURVE",
"109 319 CURVE SMOOTH",
"109 531 OFFCURVE",
"185 606 OFFCURVE",
"344 606 CURVE SMOOTH",
"502 606 OFFCURVE",
"578 531 OFFCURVE",
"578 319 CURVE SMOOTH",
"578 124 OFFCURVE",
"502 37 OFFCURVE",
"344 37 CURVE SMOOTH"
);
},
{
closed = 1;
nodes = (
"265 687 LINE",
"344 790 LINE",
"423 687 LINE",
"473 687 LINE",
"368 822 LINE",
"320 822 LINE",
"215 687 LINE"
);
}
);
width = 688;
}
);
leftKerningGroup = O;
note = Ocircumflex;
rightKerningGroup = O;
unicode = 00D4;
},
{
glyphname = Ocircumflexacute;
lastChange = "2015-10-24 21:18:09 +0000";
layers = (
{
layerId = "50AE23BC-B42B-4352-B38F-74DD4C968971";
name = Light;
paths = (
{
closed = 1;
nodes = (
"542 -10 OFFCURVE",
"633 104 OFFCURVE",
"633 319 CURVE SMOOTH",
"633 549 OFFCURVE",
"543 654 OFFCURVE",
"344 654 CURVE SMOOTH",
"145 654 OFFCURVE",
"55 549 OFFCURVE",
"55 319 CURVE SMOOTH",
"55 104 OFFCURVE",
"145 -10 OFFCURVE",
"344 -10 CURVE SMOOTH"
);
},
{
closed = 1;
nodes = (
"185 37 OFFCURVE",
"109 124 OFFCURVE",
"109 319 CURVE SMOOTH",
"109 531 OFFCURVE",
"185 606 OFFCURVE",
"344 606 CURVE SMOOTH",
"502 606 OFFCURVE",
"578 531 OFFCURVE",
"578 319 CURVE SMOOTH",
"578 124 OFFCURVE",
"502 37 OFFCURVE",
"344 37 CURVE SMOOTH"
);
},
{
closed = 1;
nodes = (
"271 687 LINE",
"349 772 LINE",
"427 687 LINE",
"476 687 LINE",
"373 797 LINE",
"325 797 LINE",
"222 687 LINE"
);
},
{
closed = 1;
nodes = (
"459 793 LINE",
"525 910 LINE",
"478 910 LINE",
"418 793 LINE"
);
}
);
width = 688;
}
);
leftKerningGroup = O;
note = Ocircumflexacute;
rightKerningGroup = O;
unicode = 1ED0;
},
{
glyphname = Ocircumflexdotbelow;
lastChange = "2015-11-24 08:45:03 +0000";
layers = (
{
layerId = "50AE23BC-B42B-4352-B38F-74DD4C968971";
name = Light;
paths = (
{
closed = 1;
nodes = (
"542 -10 OFFCURVE",
"633 104 OFFCURVE",
"633 319 CURVE SMOOTH",
"633 549 OFFCURVE",
"543 654 OFFCURVE",
"344 654 CURVE SMOOTH",
"145 654 OFFCURVE",
"55 549 OFFCURVE",
"55 319 CURVE SMOOTH",
"55 104 OFFCURVE",
"145 -10 OFFCURVE",
"344 -10 CURVE SMOOTH"
);
},
{
closed = 1;
nodes = (
"185 37 OFFCURVE",
"109 124 OFFCURVE",
"109 319 CURVE SMOOTH",
"109 531 OFFCURVE",
"185 606 OFFCURVE",
"344 606 CURVE SMOOTH",
"502 606 OFFCURVE",
"578 531 OFFCURVE",
"578 319 CURVE SMOOTH",
"578 124 OFFCURVE",
"502 37 OFFCURVE",
"344 37 CURVE SMOOTH"
);
},
{
closed = 1;
nodes = (
"374 -152 LINE",
"374 -95 LINE",
"315 -95 LINE",
"315 -152 LINE"
);
},
{
closed = 1;
nodes = (
"265 697 LINE",
"344 800 LINE",
"423 697 LINE",
"473 697 LINE",
"368 832 LINE",
"320 832 LINE",
"215 697 LINE"
);
}
);
width = 688;
}
);
leftKerningGroup = O;
note = Ocircumflexdotbelow;
rightKerningGroup = O;
unicode = 1ED8;
},
{
glyphname = Ocircumflexgrave;
lastChange = "2015-10-24 21:18:09 +0000";
layers = (
{
layerId = "50AE23BC-B42B-4352-B38F-74DD4C968971";
name = Light;
paths = (
{
closed = 1;
nodes = (
"542 -10 OFFCURVE",
"633 104 OFFCURVE",
"633 319 CURVE SMOOTH",
"633 549 OFFCURVE",
"543 654 OFFCURVE",
"344 654 CURVE SMOOTH",
"145 654 OFFCURVE",
"55 549 OFFCURVE",
"55 319 CURVE SMOOTH",
"55 104 OFFCURVE",
"145 -10 OFFCURVE",
"344 -10 CURVE SMOOTH"
);
},
{
closed = 1;
nodes = (
"185 37 OFFCURVE",
"109 124 OFFCURVE",
"109 319 CURVE SMOOTH",
"109 531 OFFCURVE",
"185 606 OFFCURVE",
"344 606 CURVE SMOOTH",
"502 606 OFFCURVE",
"578 531 OFFCURVE",
"578 319 CURVE SMOOTH",
"578 124 OFFCURVE",
"502 37 OFFCURVE",
"344 37 CURVE SMOOTH"
);
},
{
closed = 1;
nodes = (
"269 793 LINE",
"210 910 LINE",
"163 910 LINE",
"229 793 LINE"
);
},
{
closed = 1;
nodes = (
"261 687 LINE",
"339 772 LINE",
"416 687 LINE",
"466 687 LINE",
"363 797 LINE",
"315 797 LINE",
"212 687 LINE"
);
}
);
width = 688;
}
);
leftKerningGroup = O;
note = Ocircumflexgrave;
rightKerningGroup = O;
unicode = 1ED2;
},
{
glyphname = Ocircumflexhookabove;
lastChange = "2015-10-24 21:18:08 +0000";
layers = (
{
layerId = "50AE23BC-B42B-4352-B38F-74DD4C968971";
name = Light;
paths = (
{
closed = 1;
nodes = (
"542 -10 OFFCURVE",
"633 104 OFFCURVE",
"633 319 CURVE SMOOTH",
"633 549 OFFCURVE",
"543 654 OFFCURVE",
"344 654 CURVE SMOOTH",
"145 654 OFFCURVE",
"55 549 OFFCURVE",
"55 319 CURVE SMOOTH",
"55 104 OFFCURVE",
"145 -10 OFFCURVE",
"344 -10 CURVE SMOOTH"
);
},
{
closed = 1;
nodes = (
"185 37 OFFCURVE",
"109 124 OFFCURVE",
"109 319 CURVE SMOOTH",
"109 531 OFFCURVE",
"185 606 OFFCURVE",
"344 606 CURVE SMOOTH",
"502 606 OFFCURVE",
"578 531 OFFCURVE",
"578 319 CURVE SMOOTH",
"578 124 OFFCURVE",
"502 37 OFFCURVE",
"344 37 CURVE SMOOTH"
);
},
{
closed = 1;
nodes = (
"267 687 LINE",
"344 772 LINE",
"422 687 LINE",
"471 687 LINE",
"368 797 LINE",
"320 797 LINE",
"217 687 LINE"
);
},
{
closed = 1;
nodes = (
"466 772 LINE",
"466 808 LINE",
"522 814 OFFCURVE",
"546 837 OFFCURVE",
"546 879 CURVE SMOOTH",
"546 925 OFFCURVE",
"513 951 OFFCURVE",
"458 951 CURVE SMOOTH",
"431 951 OFFCURVE",
"409 946 OFFCURVE",
"392 939 CURVE",
"392 905 LINE",
"409 913 OFFCURVE",
"427 918 OFFCURVE",
"451 918 CURVE SMOOTH",
"487 918 OFFCURVE",
"504 904 OFFCURVE",
"504 877 CURVE SMOOTH",
"504 849 OFFCURVE",
"491 835 OFFCURVE",
"421 831 CURVE",
"421 772 LINE"
);
}
);
width = 688;
}
);
leftKerningGroup = O;
note = Ocircumflexhookabove;
rightKerningGroup = O;
unicode = 1ED4;
},
{
glyphname = Ocircumflextilde;
lastChange = "2015-10-24 21:18:09 +0000";
layers = (
{
layerId = "50AE23BC-B42B-4352-B38F-74DD4C968971";
name = Light;
paths = (
{
closed = 1;
nodes = (
"542 -10 OFFCURVE",
"633 104 OFFCURVE",
"633 319 CURVE SMOOTH",
"633 549 OFFCURVE",
"543 654 OFFCURVE",
"344 654 CURVE SMOOTH",
"145 654 OFFCURVE",
"55 549 OFFCURVE",
"55 319 CURVE SMOOTH",
"55 104 OFFCURVE",
"145 -10 OFFCURVE",
"344 -10 CURVE SMOOTH"
);
},
{
closed = 1;
nodes = (
"185 37 OFFCURVE",
"109 124 OFFCURVE",
"109 319 CURVE SMOOTH",
"109 531 OFFCURVE",
"185 606 OFFCURVE",
"344 606 CURVE SMOOTH",
"502 606 OFFCURVE",
"578 531 OFFCURVE",
"578 319 CURVE SMOOTH",
"578 124 OFFCURVE",
"502 37 OFFCURVE",
"344 37 CURVE SMOOTH"
);
},
{
closed = 1;
nodes = (
"417 688 OFFCURVE",
"482 723 OFFCURVE",
"482 820 CURVE",
"444 820 LINE",
"444 754 OFFCURVE",
"403 724 OFFCURVE",
"344 724 CURVE SMOOTH",
"285 724 OFFCURVE",
"244 754 OFFCURVE",
"244 820 CURVE",
"205 820 LINE",
"205 723 OFFCURVE",
"271 688 OFFCURVE",
"344 688 CURVE SMOOTH"
);
},
{
closed = 1;
nodes = (
"436 848 OFFCURVE",
"463 858 OFFCURVE",
"477 875 CURVE",
"477 919 LINE",
"457 894 OFFCURVE",
"434 886 OFFCURVE",
"405 886 CURVE SMOOTH",
"361 886 OFFCURVE",
"333 920 OFFCURVE",
"283 920 CURVE SMOOTH",
"255 920 OFFCURVE",
"226 910 OFFCURVE",
"210 893 CURVE",
"210 850 LINE",
"232 875 OFFCURVE",
"256 882 OFFCURVE",
"285 882 CURVE SMOOTH",
"323 882 OFFCURVE",
"359 848 OFFCURVE",
"406 848 CURVE SMOOTH"
);
}
);
width = 688;
}
);
leftKerningGroup = O;
note = Ocircumflextilde;
rightKerningGroup = O;
unicode = 1ED6;
},
{
glyphname = Odieresis;
lastChange = "2015-10-24 21:18:09 +0000";
layers = (
{
layerId = "50AE23BC-B42B-4352-B38F-74DD4C968971";
name = Light;
paths = (
{
closed = 1;
nodes = (
"542 -10 OFFCURVE",
"633 104 OFFCURVE",
"633 319 CURVE SMOOTH",
"633 549 OFFCURVE",
"543 654 OFFCURVE",
"344 654 CURVE SMOOTH",
"145 654 OFFCURVE",
"55 549 OFFCURVE",
"55 319 CURVE SMOOTH",
"55 104 OFFCURVE",
"145 -10 OFFCURVE",
"344 -10 CURVE SMOOTH"
);
},
{
closed = 1;
nodes = (
"185 37 OFFCURVE",
"109 124 OFFCURVE",
"109 319 CURVE SMOOTH",
"109 531 OFFCURVE",
"185 606 OFFCURVE",
"344 606 CURVE SMOOTH",
"502 606 OFFCURVE",
"578 531 OFFCURVE",
"578 319 CURVE SMOOTH",
"578 124 OFFCURVE",
"502 37 OFFCURVE",
"344 37 CURVE SMOOTH"
);
},
{
closed = 1;
nodes = (
"290 714 LINE",
"290 769 LINE",
"233 769 LINE",
"233 714 LINE"
);
},
{
closed = 1;
nodes = (
"456 714 LINE",
"456 769 LINE",
"400 769 LINE",
"400 714 LINE"
);
}
);
width = 688;
}
);
leftKerningGroup = O;
note = Odieresis;
rightKerningGroup = O;
unicode = 00D6;
},
{
glyphname = Odotbelow;
lastChange = "2015-11-24 08:45:10 +0000";
layers = (
{
layerId = "50AE23BC-B42B-4352-B38F-74DD4C968971";
name = Light;
paths = (
{
closed = 1;
nodes = (
"542 -10 OFFCURVE",
"633 104 OFFCURVE",
"633 319 CURVE SMOOTH",
"633 549 OFFCURVE",
"543 654 OFFCURVE",
"344 654 CURVE SMOOTH",
"145 654 OFFCURVE",
"55 549 OFFCURVE",
"55 319 CURVE SMOOTH",
"55 104 OFFCURVE",
"145 -10 OFFCURVE",
"344 -10 CURVE SMOOTH"
);
},
{
closed = 1;
nodes = (
"185 37 OFFCURVE",
"109 124 OFFCURVE",
"109 319 CURVE SMOOTH",
"109 531 OFFCURVE",
"185 606 OFFCURVE",
"344 606 CURVE SMOOTH",
"502 606 OFFCURVE",
"578 531 OFFCURVE",
"578 319 CURVE SMOOTH",
"578 124 OFFCURVE",
"502 37 OFFCURVE",
"344 37 CURVE SMOOTH"
);
},
{
closed = 1;
nodes = (
"373 -152 LINE",
"373 -95 LINE",
"314 -95 LINE",
"314 -152 LINE"
);
}
);
width = 688;
}
);
leftKerningGroup = O;
note = Odotbelow;
rightKerningGroup = O;
unicode = 1ECC;
},
{
glyphname = Ograve;
lastChange = "2015-10-24 21:18:09 +0000";
layers = (
{
layerId = "50AE23BC-B42B-4352-B38F-74DD4C968971";
name = Light;
paths = (
{
closed = 1;
nodes = (
"542 -10 OFFCURVE",
"633 104 OFFCURVE",
"633 319 CURVE SMOOTH",
"633 549 OFFCURVE",
"543 654 OFFCURVE",
"344 654 CURVE SMOOTH",
"145 654 OFFCURVE",
"55 549 OFFCURVE",
"55 319 CURVE SMOOTH",
"55 104 OFFCURVE",
"145 -10 OFFCURVE",
"344 -10 CURVE SMOOTH"
);
},
{
closed = 1;
nodes = (
"185 37 OFFCURVE",
"109 124 OFFCURVE",
"109 319 CURVE SMOOTH",
"109 531 OFFCURVE",
"185 606 OFFCURVE",
"344 606 CURVE SMOOTH",
"502 606 OFFCURVE",
"578 531 OFFCURVE",
"578 319 CURVE SMOOTH",
"578 124 OFFCURVE",
"502 37 OFFCURVE",
"344 37 CURVE SMOOTH"
);
},
{
closed = 1;
nodes = (
"372 688 LINE",
"305 846 LINE",
"253 846 LINE",
"327 688 LINE"
);
}
);
width = 688;
}
);
leftKerningGroup = O;
note = Ograve;
rightKerningGroup = O;
unicode = 00D2;
},
{
glyphname = Ohookabove;
lastChange = "2015-10-24 21:18:09 +0000";
layers = (
{
layerId = "50AE23BC-B42B-4352-B38F-74DD4C968971";
name = Light;
paths = (
{
closed = 1;
nodes = (
"542 -10 OFFCURVE",
"633 104 OFFCURVE",
"633 319 CURVE SMOOTH",
"633 549 OFFCURVE",
"543 654 OFFCURVE",
"344 654 CURVE SMOOTH",
"145 654 OFFCURVE",
"55 549 OFFCURVE",
"55 319 CURVE SMOOTH",
"55 104 OFFCURVE",
"145 -10 OFFCURVE",
"344 -10 CURVE SMOOTH"
);
},
{
closed = 1;
nodes = (
"185 37 OFFCURVE",
"109 124 OFFCURVE",
"109 319 CURVE SMOOTH",
"109 531 OFFCURVE",
"185 606 OFFCURVE",
"344 606 CURVE SMOOTH",
"502 606 OFFCURVE",
"578 531 OFFCURVE",
"578 319 CURVE SMOOTH",
"578 124 OFFCURVE",
"502 37 OFFCURVE",
"344 37 CURVE SMOOTH"
);
},
{
closed = 1;
nodes = (
"370 688 LINE",
"370 740 LINE",
"438 747 OFFCURVE",
"460 776 OFFCURVE",
"460 829 CURVE SMOOTH",
"460 885 OFFCURVE",
"420 917 OFFCURVE",
"344 917 CURVE SMOOTH",
"320 917 OFFCURVE",
"285 912 OFFCURVE",
"267 905 CURVE",
"267 867 LINE",
"284 874 OFFCURVE",
"313 879 OFFCURVE",
"334 879 CURVE SMOOTH",
"392 879 OFFCURVE",
"417 862 OFFCURVE",
"417 826 CURVE SMOOTH",
"417 788 OFFCURVE",
"403 771 OFFCURVE",
"323 767 CURVE",
"323 688 LINE"
);
}
);
width = 688;
}
);
leftKerningGroup = O;
note = Ohookabove;
rightKerningGroup = O;
unicode = 1ECE;
},
{
glyphname = Ohorn;
lastChange = "2015-10-24 21:18:08 +0000";
layers = (
{
layerId = "50AE23BC-B42B-4352-B38F-74DD4C968971";
name = Light;
paths = (
{
closed = 1;
nodes = (
"542 -10 OFFCURVE",
"633 104 OFFCURVE",
"633 319 CURVE SMOOTH",
"633 403 OFFCURVE",
"620 470 OFFCURVE",
"595 522 CURVE",
"678 530 OFFCURVE",
"724 571 OFFCURVE",
"724 688 CURVE",
"676 688 LINE",
"676 595 OFFCURVE",
"649 567 OFFCURVE",
"568 566 CURVE",
"520 625 OFFCURVE",
"447 654 OFFCURVE",
"344 654 CURVE SMOOTH",
"145 654 OFFCURVE",
"55 549 OFFCURVE",
"55 319 CURVE SMOOTH",
"55 104 OFFCURVE",
"145 -10 OFFCURVE",
"344 -10 CURVE SMOOTH"
);
},
{
closed = 1;
nodes = (
"185 37 OFFCURVE",
"109 124 OFFCURVE",
"109 319 CURVE SMOOTH",
"109 531 OFFCURVE",
"185 606 OFFCURVE",
"344 606 CURVE SMOOTH",
"502 606 OFFCURVE",
"578 531 OFFCURVE",
"578 319 CURVE SMOOTH",
"578 124 OFFCURVE",
"502 37 OFFCURVE",
"344 37 CURVE SMOOTH"
);
}
);
width = 749;
}
);
leftKerningGroup = O;
note = Ohorn;
rightKerningGroup = O;
unicode = 01A0;
},
{
glyphname = Ohornacute;
lastChange = "2015-10-24 21:18:08 +0000";
layers = (
{
layerId = "50AE23BC-B42B-4352-B38F-74DD4C968971";
name = Light;
paths = (
{
closed = 1;
nodes = (
"542 -10 OFFCURVE",
"633 104 OFFCURVE",
"633 319 CURVE SMOOTH",
"633 403 OFFCURVE",
"620 470 OFFCURVE",
"595 522 CURVE",
"678 530 OFFCURVE",
"724 571 OFFCURVE",
"724 688 CURVE",
"676 688 LINE",
"676 595 OFFCURVE",
"649 567 OFFCURVE",
"568 566 CURVE",
"520 625 OFFCURVE",
"447 654 OFFCURVE",
"344 654 CURVE SMOOTH",
"145 654 OFFCURVE",
"55 549 OFFCURVE",
"55 319 CURVE SMOOTH",
"55 104 OFFCURVE",
"145 -10 OFFCURVE",
"344 -10 CURVE SMOOTH"
);
},
{
closed = 1;
nodes = (
"185 37 OFFCURVE",
"109 124 OFFCURVE",
"109 319 CURVE SMOOTH",
"109 531 OFFCURVE",
"185 606 OFFCURVE",
"344 606 CURVE SMOOTH",
"502 606 OFFCURVE",
"578 531 OFFCURVE",
"578 319 CURVE SMOOTH",
"578 124 OFFCURVE",
"502 37 OFFCURVE",
"344 37 CURVE SMOOTH"
);
},
{
closed = 1;
nodes = (
"378 688 LINE",
"452 846 LINE",
"400 846 LINE",
"333 688 LINE"
);
}
);
width = 749;
}
);
leftKerningGroup = O;
note = Ohornacute;
rightKerningGroup = O;
unicode = 1EDA;
},
{
glyphname = Ohorndotbelow;
lastChange = "2015-11-24 08:45:50 +0000";
layers = (
{
layerId = "50AE23BC-B42B-4352-B38F-74DD4C968971";
name = Light;
paths = (
{
closed = 1;
nodes = (
"542 -10 OFFCURVE",
"633 104 OFFCURVE",
"633 319 CURVE SMOOTH",
"633 403 OFFCURVE",
"620 470 OFFCURVE",
"595 522 CURVE",
"678 530 OFFCURVE",
"724 571 OFFCURVE",
"724 688 CURVE",
"676 688 LINE",
"676 595 OFFCURVE",
"649 567 OFFCURVE",
"568 566 CURVE",
"520 625 OFFCURVE",
"447 654 OFFCURVE",
"344 654 CURVE SMOOTH",
"145 654 OFFCURVE",
"55 549 OFFCURVE",
"55 319 CURVE SMOOTH",
"55 104 OFFCURVE",
"145 -10 OFFCURVE",
"344 -10 CURVE SMOOTH"
);
},
{
closed = 1;
nodes = (
"185 37 OFFCURVE",
"109 124 OFFCURVE",
"109 319 CURVE SMOOTH",
"109 531 OFFCURVE",
"185 606 OFFCURVE",
"344 606 CURVE SMOOTH",
"502 606 OFFCURVE",
"578 531 OFFCURVE",
"578 319 CURVE SMOOTH",
"578 124 OFFCURVE",
"502 37 OFFCURVE",
"344 37 CURVE SMOOTH"
);
},
{
closed = 1;
nodes = (
"377 -152 LINE",
"377 -95 LINE",
"318 -95 LINE",
"318 -152 LINE"
);
}
);
width = 749;
}
);
leftKerningGroup = O;
note = Ohorndotbelow;
rightKerningGroup = O;
unicode = 1EE2;
},
{
glyphname = Ohorngrave;
lastChange = "2015-10-24 21:18:09 +0000";
layers = (
{
layerId = "50AE23BC-B42B-4352-B38F-74DD4C968971";
name = Light;
paths = (
{
closed = 1;
nodes = (
"542 -10 OFFCURVE",
"633 104 OFFCURVE",
"633 319 CURVE SMOOTH",
"633 403 OFFCURVE",
"620 470 OFFCURVE",
"595 522 CURVE",
"678 530 OFFCURVE",
"724 571 OFFCURVE",
"724 688 CURVE",
"676 688 LINE",
"676 595 OFFCURVE",
"649 567 OFFCURVE",
"568 566 CURVE",
"520 625 OFFCURVE",
"447 654 OFFCURVE",
"344 654 CURVE SMOOTH",
"145 654 OFFCURVE",
"55 549 OFFCURVE",
"55 319 CURVE SMOOTH",
"55 104 OFFCURVE",
"145 -10 OFFCURVE",
"344 -10 CURVE SMOOTH"
);
},
{
closed = 1;
nodes = (
"185 37 OFFCURVE",
"109 124 OFFCURVE",
"109 319 CURVE SMOOTH",
"109 531 OFFCURVE",
"185 606 OFFCURVE",
"344 606 CURVE SMOOTH",
"502 606 OFFCURVE",
"578 531 OFFCURVE",
"578 319 CURVE SMOOTH",
"578 124 OFFCURVE",
"502 37 OFFCURVE",
"344 37 CURVE SMOOTH"
);
},
{
closed = 1;
nodes = (
"390 688 LINE",
"323 846 LINE",
"271 846 LINE",
"345 688 LINE"
);
}
);
width = 749;
}
);
leftKerningGroup = O;
note = Ohorngrave;
rightKerningGroup = O;
unicode = 1EDC;
},
{
glyphname = Ohornhookabove;
lastChange = "2015-10-24 21:18:09 +0000";
layers = (
{
layerId = "50AE23BC-B42B-4352-B38F-74DD4C968971";
name = Light;
paths = (
{
closed = 1;
nodes = (
"542 -10 OFFCURVE",
"633 104 OFFCURVE",
"633 319 CURVE SMOOTH",
"633 403 OFFCURVE",
"620 470 OFFCURVE",
"595 522 CURVE",
"678 530 OFFCURVE",
"724 571 OFFCURVE",
"724 688 CURVE",
"676 688 LINE",
"676 595 OFFCURVE",
"649 567 OFFCURVE",
"568 566 CURVE",
"520 625 OFFCURVE",
"447 654 OFFCURVE",
"344 654 CURVE SMOOTH",
"145 654 OFFCURVE",
"55 549 OFFCURVE",
"55 319 CURVE SMOOTH",
"55 104 OFFCURVE",
"145 -10 OFFCURVE",
"344 -10 CURVE SMOOTH"
);
},
{
closed = 1;
nodes = (
"185 37 OFFCURVE",
"109 124 OFFCURVE",
"109 319 CURVE SMOOTH",
"109 531 OFFCURVE",
"185 606 OFFCURVE",
"344 606 CURVE SMOOTH",
"502 606 OFFCURVE",
"578 531 OFFCURVE",
"578 319 CURVE SMOOTH",
"578 124 OFFCURVE",
"502 37 OFFCURVE",
"344 37 CURVE SMOOTH"
);
},
{
closed = 1;
nodes = (
"377 688 LINE",
"377 740 LINE",
"445 747 OFFCURVE",
"467 776 OFFCURVE",
"467 829 CURVE SMOOTH",
"467 885 OFFCURVE",
"427 917 OFFCURVE",
"351 917 CURVE SMOOTH",
"327 917 OFFCURVE",
"292 912 OFFCURVE",
"274 905 CURVE",
"274 867 LINE",
"291 874 OFFCURVE",
"320 879 OFFCURVE",
"341 879 CURVE SMOOTH",
"399 879 OFFCURVE",
"424 862 OFFCURVE",
"424 826 CURVE SMOOTH",
"424 788 OFFCURVE",
"410 771 OFFCURVE",
"330 767 CURVE",
"330 688 LINE"
);
}
);
width = 749;
}
);
leftKerningGroup = O;
note = Ohornhookabove;
rightKerningGroup = O;
unicode = 1EDE;
},
{
glyphname = Ohorntilde;
lastChange = "2015-10-24 21:18:09 +0000";
layers = (
{
layerId = "50AE23BC-B42B-4352-B38F-74DD4C968971";
name = Light;
paths = (
{
closed = 1;
nodes = (
"542 -10 OFFCURVE",
"633 104 OFFCURVE",
"633 319 CURVE SMOOTH",
"633 403 OFFCURVE",
"620 470 OFFCURVE",
"595 522 CURVE",
"678 530 OFFCURVE",
"724 571 OFFCURVE",
"724 688 CURVE",
"676 688 LINE",
"676 595 OFFCURVE",
"649 567 OFFCURVE",
"568 566 CURVE",
"520 625 OFFCURVE",
"447 654 OFFCURVE",
"344 654 CURVE SMOOTH",
"145 654 OFFCURVE",
"55 549 OFFCURVE",
"55 319 CURVE SMOOTH",
"55 104 OFFCURVE",
"145 -10 OFFCURVE",
"344 -10 CURVE SMOOTH"
);
},
{
closed = 1;
nodes = (
"185 37 OFFCURVE",
"109 124 OFFCURVE",
"109 319 CURVE SMOOTH",
"109 531 OFFCURVE",
"185 606 OFFCURVE",
"344 606 CURVE SMOOTH",
"502 606 OFFCURVE",
"578 531 OFFCURVE",
"578 319 CURVE SMOOTH",
"578 124 OFFCURVE",
"502 37 OFFCURVE",
"344 37 CURVE SMOOTH"
);
},
{
closed = 1;
nodes = (
"464 712 OFFCURVE",
"490 723 OFFCURVE",
"503 741 CURVE",
"503 788 LINE",
"485 763 OFFCURVE",
"462 753 OFFCURVE",
"430 753 CURVE SMOOTH",
"384 753 OFFCURVE",
"350 790 OFFCURVE",
"298 790 CURVE SMOOTH",
"268 790 OFFCURVE",
"236 779 OFFCURVE",
"220 761 CURVE",
"220 714 LINE",
"242 741 OFFCURVE",
"269 749 OFFCURVE",
"299 749 CURVE SMOOTH",
"339 749 OFFCURVE",
"383 712 OFFCURVE",
"432 712 CURVE SMOOTH"
);
}
);
width = 749;
}
);
leftKerningGroup = O;
note = Ohorntilde;
rightKerningGroup = O;
unicode = 1EE0;
},
{
glyphname = Ohungarumlaut;
lastChange = "2015-10-24 21:18:09 +0000";
layers = (
{
layerId = "50AE23BC-B42B-4352-B38F-74DD4C968971";
name = Light;
paths = (
{
closed = 1;
nodes = (
"542 -10 OFFCURVE",
"633 104 OFFCURVE",
"633 319 CURVE SMOOTH",
"633 549 OFFCURVE",
"543 654 OFFCURVE",
"344 654 CURVE SMOOTH",
"145 654 OFFCURVE",
"55 549 OFFCURVE",
"55 319 CURVE SMOOTH",
"55 104 OFFCURVE",
"145 -10 OFFCURVE",
"344 -10 CURVE SMOOTH"
);
},
{
closed = 1;
nodes = (
"185 37 OFFCURVE",
"109 124 OFFCURVE",
"109 319 CURVE SMOOTH",
"109 531 OFFCURVE",
"185 606 OFFCURVE",
"344 606 CURVE SMOOTH",
"502 606 OFFCURVE",
"578 531 OFFCURVE",
"578 319 CURVE SMOOTH",
"578 124 OFFCURVE",
"502 37 OFFCURVE",
"344 37 CURVE SMOOTH"
);
},
{
closed = 1;
nodes = (
"247 687 LINE",
"323 828 LINE",
"269 828 LINE",
"202 687 LINE"
);
},
{
closed = 1;
nodes = (
"446 687 LINE",
"522 828 LINE",
"468 828 LINE",
"401 687 LINE"
);
}
);
width = 688;
}
);
leftKerningGroup = O;
note = Ohungarumlaut;
rightKerningGroup = O;
unicode = 0150;
},
{
glyphname = Omacron;
lastChange = "2015-10-24 21:18:09 +0000";
layers = (
{
layerId = "50AE23BC-B42B-4352-B38F-74DD4C968971";
name = Light;
paths = (
{
closed = 1;
nodes = (
"542 -10 OFFCURVE",
"633 104 OFFCURVE",
"633 319 CURVE SMOOTH",
"633 549 OFFCURVE",
"543 654 OFFCURVE",
"344 654 CURVE SMOOTH",
"145 654 OFFCURVE",
"55 549 OFFCURVE",
"55 319 CURVE SMOOTH",
"55 104 OFFCURVE",
"145 -10 OFFCURVE",
"344 -10 CURVE SMOOTH"
);
},
{
closed = 1;
nodes = (
"185 37 OFFCURVE",
"109 124 OFFCURVE",
"109 319 CURVE SMOOTH",
"109 531 OFFCURVE",
"185 606 OFFCURVE",
"344 606 CURVE SMOOTH",
"502 606 OFFCURVE",
"578 531 OFFCURVE",
"578 319 CURVE SMOOTH",
"578 124 OFFCURVE",
"502 37 OFFCURVE",
"344 37 CURVE SMOOTH"
);
},
{
closed = 1;
nodes = (
"482 719 LINE",
"482 761 LINE",
"205 761 LINE",
"205 719 LINE"
);
}
);
width = 688;
}
);
leftKerningGroup = O;
note = Omacron;
rightKerningGroup = O;
unicode = 014C;
},
{
glyphname = Oslash;
lastChange = "2015-10-24 21:18:09 +0000";
layers = (
{
layerId = "50AE23BC-B42B-4352-B38F-74DD4C968971";
name = Light;
paths = (
{
closed = 1;
nodes = (
"224 -53 LINE",
"244 2 LINE",
"273 -6 OFFCURVE",
"307 -10 OFFCURVE",
"344 -10 CURVE SMOOTH",
"542 -10 OFFCURVE",
"633 104 OFFCURVE",
"633 319 CURVE SMOOTH",
"633 492 OFFCURVE",
"582 594 OFFCURVE",
"472 634 CURVE",
"493 693 LINE",
"443 693 LINE",
"426 647 LINE",
"401 652 OFFCURVE",
"374 654 OFFCURVE",
"344 654 CURVE SMOOTH",
"145 654 OFFCURVE",
"55 549 OFFCURVE",
"55 319 CURVE SMOOTH",
"55 165 OFFCURVE",
"101 63 OFFCURVE",
"199 17 CURVE",
"174 -53 LINE"
);
},
{
closed = 1;
nodes = (
"144 104 OFFCURVE",
"109 186 OFFCURVE",
"109 319 CURVE SMOOTH",
"109 531 OFFCURVE",
"185 606 OFFCURVE",
"344 606 CURVE SMOOTH",
"367 606 OFFCURVE",
"389 604 OFFCURVE",
"409 600 CURVE",
"216 64 LINE"
);
},
{
closed = 1;
nodes = (
"313 37 OFFCURVE",
"285 40 OFFCURVE",
"260 47 CURVE",
"455 588 LINE",
"538 555 OFFCURVE",
"578 473 OFFCURVE",
"578 319 CURVE SMOOTH",
"578 124 OFFCURVE",
"502 37 OFFCURVE",
"344 37 CURVE SMOOTH"
);
}
);
width = 688;
}
);
leftKerningGroup = O;
note = Oslash;
rightKerningGroup = O;
unicode = 00D8;
},
{
glyphname = Oslashacute;
lastChange = "2015-10-24 21:18:09 +0000";
layers = (
{
layerId = "50AE23BC-B42B-4352-B38F-74DD4C968971";
name = Light;
paths = (
{
closed = 1;
nodes = (
"224 -53 LINE",
"244 2 LINE",
"273 -6 OFFCURVE",
"307 -10 OFFCURVE",
"344 -10 CURVE SMOOTH",
"542 -10 OFFCURVE",
"633 104 OFFCURVE",
"633 319 CURVE SMOOTH",
"633 492 OFFCURVE",
"582 594 OFFCURVE",
"472 634 CURVE",
"493 693 LINE",
"443 693 LINE",
"426 647 LINE",
"401 652 OFFCURVE",
"374 654 OFFCURVE",
"344 654 CURVE SMOOTH",
"145 654 OFFCURVE",
"55 549 OFFCURVE",
"55 319 CURVE SMOOTH",
"55 165 OFFCURVE",
"101 63 OFFCURVE",
"199 17 CURVE",
"174 -53 LINE"
);
},
{
closed = 1;
nodes = (
"144 104 OFFCURVE",
"109 186 OFFCURVE",
"109 319 CURVE SMOOTH",
"109 531 OFFCURVE",
"185 606 OFFCURVE",
"344 606 CURVE SMOOTH",
"367 606 OFFCURVE",
"389 604 OFFCURVE",
"409 600 CURVE",
"216 64 LINE"
);
},
{
closed = 1;
nodes = (
"313 37 OFFCURVE",
"285 40 OFFCURVE",
"260 47 CURVE",
"455 588 LINE",
"538 555 OFFCURVE",
"578 473 OFFCURVE",
"578 319 CURVE SMOOTH",
"578 124 OFFCURVE",
"502 37 OFFCURVE",
"344 37 CURVE SMOOTH"
);
},
{
closed = 1;
nodes = (
"360 688 LINE",
"434 846 LINE",
"382 846 LINE",
"315 688 LINE"
);
}
);
width = 688;
}
);
leftKerningGroup = O;
note = Oslashacute;
rightKerningGroup = O;
unicode = 01FE;
},
{
glyphname = Otilde;
lastChange = "2015-10-24 21:18:08 +0000";
layers = (
{
layerId = "50AE23BC-B42B-4352-B38F-74DD4C968971";
name = Light;
paths = (
{
closed = 1;
nodes = (
"542 -10 OFFCURVE",
"633 104 OFFCURVE",
"633 319 CURVE SMOOTH",
"633 549 OFFCURVE",
"543 654 OFFCURVE",
"344 654 CURVE SMOOTH",
"145 654 OFFCURVE",
"55 549 OFFCURVE",
"55 319 CURVE SMOOTH",
"55 104 OFFCURVE",
"145 -10 OFFCURVE",
"344 -10 CURVE SMOOTH"
);
},
{
closed = 1;
nodes = (
"185 37 OFFCURVE",
"109 124 OFFCURVE",
"109 319 CURVE SMOOTH",
"109 531 OFFCURVE",
"185 606 OFFCURVE",
"344 606 CURVE SMOOTH",
"502 606 OFFCURVE",
"578 531 OFFCURVE",
"578 319 CURVE SMOOTH",
"578 124 OFFCURVE",
"502 37 OFFCURVE",
"344 37 CURVE SMOOTH"
);
},
{
closed = 1;
nodes = (
"447 715 OFFCURVE",
"473 726 OFFCURVE",
"486 744 CURVE",
"486 791 LINE",
"468 766 OFFCURVE",
"445 756 OFFCURVE",
"413 756 CURVE SMOOTH",
"367 756 OFFCURVE",
"333 793 OFFCURVE",
"281 793 CURVE SMOOTH",
"251 793 OFFCURVE",
"219 782 OFFCURVE",
"203 764 CURVE",
"203 717 LINE",
"225 744 OFFCURVE",
"252 752 OFFCURVE",
"282 752 CURVE SMOOTH",
"322 752 OFFCURVE",
"366 715 OFFCURVE",
"415 715 CURVE SMOOTH"
);
}
);
width = 688;
}
);
leftKerningGroup = O;
note = Otilde;
rightKerningGroup = O;
unicode = 00D5;
},
{
glyphname = OE;
lastChange = "2015-10-24 21:18:08 +0000";
layers = (
{
layerId = "50AE23BC-B42B-4352-B38F-74DD4C968971";
name = Light;
paths = (
{
closed = 1;
nodes = (
"542 -10 OFFCURVE",
"633 104 OFFCURVE",
"633 319 CURVE SMOOTH",
"633 549 OFFCURVE",
"543 654 OFFCURVE",
"344 654 CURVE SMOOTH",
"145 654 OFFCURVE",
"55 549 OFFCURVE",
"55 319 CURVE SMOOTH",
"55 104 OFFCURVE",
"145 -10 OFFCURVE",
"344 -10 CURVE SMOOTH"
);
},
{
closed = 1;
nodes = (
"185 37 OFFCURVE",
"109 124 OFFCURVE",
"109 319 CURVE SMOOTH",
"109 531 OFFCURVE",
"185 606 OFFCURVE",
"344 606 CURVE SMOOTH",
"502 606 OFFCURVE",
"578 531 OFFCURVE",
"578 319 CURVE SMOOTH",
"578 124 OFFCURVE",
"502 37 OFFCURVE",
"344 37 CURVE SMOOTH"
);
},
{
closed = 1;
nodes = (
"1000 0 LINE",
"1000 44 LINE",
"634 44 LINE",
"634 300 LINE",
"965 300 LINE",
"965 344 LINE",
"634 344 LINE",
"634 599 LINE",
"1000 599 LINE",
"1000 644 LINE",
"579 644 LINE",
"579 0 LINE"
);
}
);
width = 1056;
}
);
leftKerningGroup = O;
note = OE;
rightKerningGroup = E;
unicode = 0152;
},
{
glyphname = P;
lastChange = "2015-10-24 21:18:08 +0000";
layers = (
{
layerId = "50AE23BC-B42B-4352-B38F-74DD4C968971";
name = Light;
paths = (
{
closed = 1;
nodes = (
"130 0 LINE",
"130 247 LINE",
"327 247 LINE SMOOTH",
"456 247 OFFCURVE",
"536 321 OFFCURVE",
"536 443 CURVE SMOOTH",
"536 563 OFFCURVE",
"472 644 OFFCURVE",
"331 644 CURVE SMOOTH",
"75 644 LINE",
"75 0 LINE"
);
},
{
closed = 1;
nodes = (
"130 599 LINE",
"327 599 LINE SMOOTH",
"430 599 OFFCURVE",
"481 543 OFFCURVE",
"481 443 CURVE SMOOTH",
"481 350 OFFCURVE",
"427 291 OFFCURVE",
"322 291 CURVE SMOOTH",
"130 291 LINE"
);
}
);
width = 571;
}
);
note = P;
unicode = 0050;
},
{
glyphname = Thorn;
lastChange = "2015-11-24 08:46:08 +0000";
layers = (
{
layerId = "50AE23BC-B42B-4352-B38F-74DD4C968971";
name = Light;
paths = (
{
closed = 1;
nodes = (
"130 0 LINE",
"130 122 LINE",
"327 122 LINE SMOOTH",
"456 122 OFFCURVE",
"536 197 OFFCURVE",
"536 320 CURVE SMOOTH",
"536 439 OFFCURVE",
"472 519 OFFCURVE",
"331 519 CURVE SMOOTH",
"130 519 LINE",
"130 644 LINE",
"75 644 LINE",
"75 0 LINE"
);
},
{
closed = 1;
nodes = (
"130 474 LINE",
"327 474 LINE SMOOTH",
"430 474 OFFCURVE",
"481 419 OFFCURVE",
"481 320 CURVE SMOOTH",
"481 227 OFFCURVE",
"427 167 OFFCURVE",
"322 167 CURVE SMOOTH",
"130 167 LINE"
);
}
);
width = 571;
}
);
note = Thorn;
unicode = 00DE;
},
{
glyphname = Q;
lastChange = "2015-10-24 21:18:09 +0000";
layers = (
{
layerId = "50AE23BC-B42B-4352-B38F-74DD4C968971";
name = Light;
paths = (
{
closed = 1;
nodes = (
"465 -172 OFFCURVE",
"497 -168 OFFCURVE",
"518 -162 CURVE",
"518 -114 LINE",
"498 -120 OFFCURVE",
"468 -124 OFFCURVE",
"447 -124 CURVE SMOOTH",
"383 -124 OFFCURVE",
"365 -93 OFFCURVE",
"365 -9 CURVE",
"548 -1 OFFCURVE",
"633 112 OFFCURVE",
"633 319 CURVE SMOOTH",
"633 549 OFFCURVE",
"543 654 OFFCURVE",
"344 654 CURVE SMOOTH",
"145 654 OFFCURVE",
"55 549 OFFCURVE",
"55 319 CURVE SMOOTH",
"55 116 OFFCURVE",
"135 3 OFFCURVE",
"311 -8 CURVE",
"312 -111 OFFCURVE",
"344 -172 OFFCURVE",
"439 -172 CURVE SMOOTH"
);
},
{
closed = 1;
nodes = (
"185 37 OFFCURVE",
"109 124 OFFCURVE",
"109 319 CURVE SMOOTH",
"109 531 OFFCURVE",
"185 606 OFFCURVE",
"344 606 CURVE SMOOTH",
"502 606 OFFCURVE",
"578 531 OFFCURVE",
"578 319 CURVE SMOOTH",
"578 124 OFFCURVE",
"502 37 OFFCURVE",
"344 37 CURVE SMOOTH"
);
}
);
width = 688;
}
);
leftKerningGroup = O;
note = Q;
rightKerningGroup = O;
unicode = 0051;
},
{
glyphname = R;
lastChange = "2015-10-24 21:18:09 +0000";
layers = (
{
layerId = "50AE23BC-B42B-4352-B38F-74DD4C968971";
name = Light;
paths = (
{
closed = 1;
nodes = (
"130 0 LINE",
"130 258 LINE",
"281 258 LINE SMOOTH",
"356 258 OFFCURVE",
"375 240 OFFCURVE",
"395 194 CURVE SMOOTH",
"480 0 LINE",
"536 0 LINE",
"450 201 LINE SMOOTH",
"434 236 OFFCURVE",
"424 255 OFFCURVE",
"394 270 CURVE",
"488 288 OFFCURVE",
"536 353 OFFCURVE",
"536 452 CURVE SMOOTH",
"536 569 OFFCURVE",
"479 644 OFFCURVE",
"344 644 CURVE SMOOTH",
"75 644 LINE",
"75 0 LINE"
);
},
{
closed = 1;
nodes = (
"130 599 LINE",
"340 599 LINE SMOOTH",
"434 599 OFFCURVE",
"481 549 OFFCURVE",
"481 452 CURVE SMOOTH",
"481 346 OFFCURVE",
"423 302 OFFCURVE",
"328 302 CURVE SMOOTH",
"130 302 LINE"
);
}
);
width = 592;
}
);
note = R;
rightKerningGroup = R;
unicode = 0052;
},
{
glyphname = Racute;
lastChange = "2015-10-24 21:18:09 +0000";
layers = (
{
layerId = "50AE23BC-B42B-4352-B38F-74DD4C968971";
name = Light;
paths = (
{
closed = 1;
nodes = (
"130 0 LINE",
"130 258 LINE",
"281 258 LINE SMOOTH",
"356 258 OFFCURVE",
"375 240 OFFCURVE",
"395 194 CURVE SMOOTH",
"480 0 LINE",
"536 0 LINE",
"450 201 LINE SMOOTH",
"434 236 OFFCURVE",
"424 255 OFFCURVE",
"394 270 CURVE",
"488 288 OFFCURVE",
"536 353 OFFCURVE",
"536 452 CURVE SMOOTH",
"536 569 OFFCURVE",
"479 644 OFFCURVE",
"344 644 CURVE SMOOTH",
"75 644 LINE",
"75 0 LINE"
);
},
{
closed = 1;
nodes = (
"130 599 LINE",
"340 599 LINE SMOOTH",
"434 599 OFFCURVE",
"481 549 OFFCURVE",
"481 452 CURVE SMOOTH",
"481 346 OFFCURVE",
"423 302 OFFCURVE",
"328 302 CURVE SMOOTH",
"130 302 LINE"
);
},
{
closed = 1;
nodes = (
"306 688 LINE",
"380 846 LINE",
"328 846 LINE",
"261 688 LINE"
);
}
);
width = 592;
}
);
note = Racute;
rightKerningGroup = R;
unicode = 0154;
},
{
glyphname = Rcaron;
lastChange = "2015-10-24 21:18:08 +0000";
layers = (
{
layerId = "50AE23BC-B42B-4352-B38F-74DD4C968971";
name = Light;
paths = (
{
closed = 1;
nodes = (
"130 0 LINE",
"130 258 LINE",
"281 258 LINE SMOOTH",
"356 258 OFFCURVE",
"375 240 OFFCURVE",
"395 194 CURVE SMOOTH",
"480 0 LINE",
"536 0 LINE",
"450 201 LINE SMOOTH",
"434 236 OFFCURVE",
"424 255 OFFCURVE",
"394 270 CURVE",
"488 288 OFFCURVE",
"536 353 OFFCURVE",
"536 452 CURVE SMOOTH",
"536 569 OFFCURVE",
"479 644 OFFCURVE",
"344 644 CURVE SMOOTH",
"75 644 LINE",
"75 0 LINE"
);
},
{
closed = 1;
nodes = (
"130 599 LINE",
"340 599 LINE SMOOTH",
"434 599 OFFCURVE",
"481 549 OFFCURVE",
"481 452 CURVE SMOOTH",
"481 346 OFFCURVE",
"423 302 OFFCURVE",
"328 302 CURVE SMOOTH",
"130 302 LINE"
);
},
{
closed = 1;
nodes = (
"317 687 LINE",
"422 822 LINE",
"372 822 LINE",
"293 719 LINE",
"214 822 LINE",
"164 822 LINE",
"269 687 LINE"
);
}
);
width = 592;
}
);
note = Rcaron;
rightKerningGroup = R;
unicode = 0158;
},
{
glyphname = Rcommaaccent;
lastChange = "2015-11-24 08:46:17 +0000";
layers = (
{
layerId = "50AE23BC-B42B-4352-B38F-74DD4C968971";
name = Light;
paths = (
{
closed = 1;
nodes = (
"130 0 LINE",
"130 258 LINE",
"281 258 LINE SMOOTH",
"356 258 OFFCURVE",
"375 240 OFFCURVE",
"395 194 CURVE SMOOTH",
"480 0 LINE",
"536 0 LINE",
"450 201 LINE SMOOTH",
"434 236 OFFCURVE",
"424 255 OFFCURVE",
"394 270 CURVE",
"488 288 OFFCURVE",
"536 353 OFFCURVE",
"536 452 CURVE SMOOTH",
"536 569 OFFCURVE",
"479 644 OFFCURVE",
"344 644 CURVE SMOOTH",
"75 644 LINE",
"75 0 LINE"
);
},
{
closed = 1;
nodes = (
"130 599 LINE",
"340 599 LINE SMOOTH",
"434 599 OFFCURVE",
"481 549 OFFCURVE",
"481 452 CURVE SMOOTH",
"481 346 OFFCURVE",
"423 302 OFFCURVE",
"328 302 CURVE SMOOTH",
"130 302 LINE"
);
},
{
closed = 1;
nodes = (
"266 -202 LINE",
"304 -37 LINE",
"251 -37 LINE",
"225 -202 LINE"
);
}
);
width = 592;
}
);
note = Rcommaaccent;
rightKerningGroup = R;
unicode = 0156;
},
{
glyphname = Rdotbelow;
lastChange = "2015-11-24 08:46:23 +0000";
layers = (
{
layerId = "50AE23BC-B42B-4352-B38F-74DD4C968971";
name = Light;
paths = (
{
closed = 1;
nodes = (
"130 0 LINE",
"130 258 LINE",
"281 258 LINE SMOOTH",
"356 258 OFFCURVE",
"375 240 OFFCURVE",
"395 194 CURVE SMOOTH",
"480 0 LINE",
"536 0 LINE",
"450 201 LINE SMOOTH",
"434 236 OFFCURVE",
"424 255 OFFCURVE",
"394 270 CURVE",
"488 288 OFFCURVE",
"536 353 OFFCURVE",
"536 452 CURVE SMOOTH",
"536 569 OFFCURVE",
"479 644 OFFCURVE",
"344 644 CURVE SMOOTH",
"75 644 LINE",
"75 0 LINE"
);
},
{
closed = 1;
nodes = (
"130 599 LINE",
"340 599 LINE SMOOTH",
"434 599 OFFCURVE",
"481 549 OFFCURVE",
"481 452 CURVE SMOOTH",
"481 346 OFFCURVE",
"423 302 OFFCURVE",
"328 302 CURVE SMOOTH",
"130 302 LINE"
);
},
{
closed = 1;
nodes = (
"325 -152 LINE",
"325 -95 LINE",
"266 -95 LINE",
"266 -152 LINE"
);
}
);
width = 592;
}
);
note = Rdotbelow;
rightKerningGroup = R;
unicode = 1E5A;
},
{
glyphname = Rdotbelowmacron;
lastChange = "2015-11-24 08:46:34 +0000";
layers = (
{
layerId = "50AE23BC-B42B-4352-B38F-74DD4C968971";
name = Light;
paths = (
{
closed = 1;
nodes = (
"130 0 LINE",
"130 258 LINE",
"281 258 LINE SMOOTH",
"356 258 OFFCURVE",
"375 240 OFFCURVE",
"395 194 CURVE SMOOTH",
"480 0 LINE",
"536 0 LINE",
"450 201 LINE SMOOTH",
"434 236 OFFCURVE",
"424 255 OFFCURVE",
"394 270 CURVE",
"488 288 OFFCURVE",
"536 353 OFFCURVE",
"536 452 CURVE SMOOTH",
"536 569 OFFCURVE",
"479 644 OFFCURVE",
"344 644 CURVE SMOOTH",
"75 644 LINE",
"75 0 LINE"
);
},
{
closed = 1;
nodes = (
"130 599 LINE",
"340 599 LINE SMOOTH",
"434 599 OFFCURVE",
"481 549 OFFCURVE",
"481 452 CURVE SMOOTH",
"481 346 OFFCURVE",
"423 302 OFFCURVE",
"328 302 CURVE SMOOTH",
"130 302 LINE"
);
},
{
closed = 1;
nodes = (
"325 -152 LINE",
"325 -95 LINE",
"266 -95 LINE",
"266 -152 LINE"
);
},
{
closed = 1;
nodes = (
"430 717 LINE",
"430 759 LINE",
"153 759 LINE",
"153 717 LINE"
);
}
);
width = 592;
}
);
note = Rdotbelowmacron;
rightKerningGroup = R;
unicode = 1E5C;
},
{
glyphname = Rlinebelow;
lastChange = "2015-11-24 08:46:39 +0000";
layers = (
{
layerId = "50AE23BC-B42B-4352-B38F-74DD4C968971";
name = Light;
paths = (
{
closed = 1;
nodes = (
"130 0 LINE",
"130 258 LINE",
"281 258 LINE SMOOTH",
"356 258 OFFCURVE",
"375 240 OFFCURVE",
"395 194 CURVE SMOOTH",
"480 0 LINE",
"536 0 LINE",
"450 201 LINE SMOOTH",
"434 236 OFFCURVE",
"424 255 OFFCURVE",
"394 270 CURVE",
"488 288 OFFCURVE",
"536 353 OFFCURVE",
"536 452 CURVE SMOOTH",
"536 569 OFFCURVE",
"479 644 OFFCURVE",
"344 644 CURVE SMOOTH",
"75 644 LINE",
"75 0 LINE"
);
},
{
closed = 1;
nodes = (
"130 599 LINE",
"340 599 LINE SMOOTH",
"434 599 OFFCURVE",
"481 549 OFFCURVE",
"481 452 CURVE SMOOTH",
"481 346 OFFCURVE",
"423 302 OFFCURVE",
"328 302 CURVE SMOOTH",
"130 302 LINE"
);
},
{
closed = 1;
nodes = (
"426 -116 LINE",
"426 -74 LINE",
"149 -74 LINE",
"149 -116 LINE"
);
}
);
width = 592;
}
);
note = Rlinebelow;
rightKerningGroup = R;
unicode = 1E5E;
},
{
glyphname = S;
lastChange = "2015-10-24 21:18:07 +0000";
layers = (
{
layerId = "50AE23BC-B42B-4352-B38F-74DD4C968971";
name = Light;
paths = (
{
closed = 1;
nodes = (
"415 -10 OFFCURVE",
"498 49 OFFCURVE",
"498 164 CURVE SMOOTH",
"498 256 OFFCURVE",
"449 311 OFFCURVE",
"292 348 CURVE SMOOTH",
"151 381 OFFCURVE",
"109 407 OFFCURVE",
"109 481 CURVE SMOOTH",
"109 569 OFFCURVE",
"175 606 OFFCURVE",
"297 606 CURVE SMOOTH",
"357 606 OFFCURVE",
"413 597 OFFCURVE",
"459 581 CURVE",
"459 630 LINE",
"426 641 OFFCURVE",
"358 654 OFFCURVE",
"286 654 CURVE SMOOTH",
"128 654 OFFCURVE",
"55 585 OFFCURVE",
"55 481 CURVE SMOOTH",
"55 390 OFFCURVE",
"105 341 OFFCURVE",
"253 308 CURVE SMOOTH",
"392 277 OFFCURVE",
"444 247 OFFCURVE",
"444 164 CURVE SMOOTH",
"444 72 OFFCURVE",
"379 37 OFFCURVE",
"254 37 CURVE SMOOTH",
"186 37 OFFCURVE",
"126 47 OFFCURVE",
"71 67 CURVE",
"71 18 LINE",
"119 -1 OFFCURVE",
"180 -10 OFFCURVE",
"258 -10 CURVE SMOOTH"
);
}
);
width = 553;
}
);
leftKerningGroup = S;
note = S;
rightKerningGroup = S;
unicode = 0053;
},
{
glyphname = Sacute;
lastChange = "2015-10-24 21:18:08 +0000";
layers = (
{
layerId = "50AE23BC-B42B-4352-B38F-74DD4C968971";
name = Light;
paths = (
{
closed = 1;
nodes = (
"415 -10 OFFCURVE",
"498 49 OFFCURVE",
"498 164 CURVE SMOOTH",
"498 256 OFFCURVE",
"449 311 OFFCURVE",
"292 348 CURVE SMOOTH",
"151 381 OFFCURVE",
"109 407 OFFCURVE",
"109 481 CURVE SMOOTH",
"109 569 OFFCURVE",
"175 606 OFFCURVE",
"297 606 CURVE SMOOTH",
"357 606 OFFCURVE",
"413 597 OFFCURVE",
"459 581 CURVE",
"459 630 LINE",
"426 641 OFFCURVE",
"358 654 OFFCURVE",
"286 654 CURVE SMOOTH",
"128 654 OFFCURVE",
"55 585 OFFCURVE",
"55 481 CURVE SMOOTH",
"55 390 OFFCURVE",
"105 341 OFFCURVE",
"253 308 CURVE SMOOTH",
"392 277 OFFCURVE",
"444 247 OFFCURVE",
"444 164 CURVE SMOOTH",
"444 72 OFFCURVE",
"379 37 OFFCURVE",
"254 37 CURVE SMOOTH",
"186 37 OFFCURVE",
"126 47 OFFCURVE",
"71 67 CURVE",
"71 18 LINE",
"119 -1 OFFCURVE",
"180 -10 OFFCURVE",
"258 -10 CURVE SMOOTH"
);
},
{
closed = 1;
nodes = (
"284 694 LINE",
"358 852 LINE",
"306 852 LINE",
"239 694 LINE"
);
}
);
width = 553;
}
);
leftKerningGroup = S;
note = Sacute;
rightKerningGroup = S;
unicode = 015A;
},
{
glyphname = Scaron;
lastChange = "2015-10-24 21:18:09 +0000";
layers = (
{
layerId = "50AE23BC-B42B-4352-B38F-74DD4C968971";
name = Light;
paths = (
{
closed = 1;
nodes = (
"415 -10 OFFCURVE",
"498 49 OFFCURVE",
"498 164 CURVE SMOOTH",
"498 256 OFFCURVE",
"449 311 OFFCURVE",
"292 348 CURVE SMOOTH",
"151 381 OFFCURVE",
"109 407 OFFCURVE",
"109 481 CURVE SMOOTH",
"109 569 OFFCURVE",
"175 606 OFFCURVE",
"297 606 CURVE SMOOTH",
"357 606 OFFCURVE",
"413 597 OFFCURVE",
"459 581 CURVE",
"459 630 LINE",
"426 641 OFFCURVE",
"358 654 OFFCURVE",
"286 654 CURVE SMOOTH",
"128 654 OFFCURVE",
"55 585 OFFCURVE",
"55 481 CURVE SMOOTH",
"55 390 OFFCURVE",
"105 341 OFFCURVE",
"253 308 CURVE SMOOTH",
"392 277 OFFCURVE",
"444 247 OFFCURVE",
"444 164 CURVE SMOOTH",
"444 72 OFFCURVE",
"379 37 OFFCURVE",
"254 37 CURVE SMOOTH",
"186 37 OFFCURVE",
"126 47 OFFCURVE",
"71 67 CURVE",
"71 18 LINE",
"119 -1 OFFCURVE",
"180 -10 OFFCURVE",
"258 -10 CURVE SMOOTH"
);
},
{
closed = 1;
nodes = (
"315 687 LINE",
"420 822 LINE",
"370 822 LINE",
"291 719 LINE",
"212 822 LINE",
"162 822 LINE",
"267 687 LINE"
);
}
);
width = 553;
}
);
leftKerningGroup = S;
note = Scaron;
rightKerningGroup = S;
unicode = 0160;
},
{
glyphname = Scedilla;
lastChange = "2015-10-24 21:18:08 +0000";
layers = (
{
layerId = "50AE23BC-B42B-4352-B38F-74DD4C968971";
name = Light;
paths = (
{
closed = 1;
nodes = (
"415 -10 OFFCURVE",
"498 49 OFFCURVE",
"498 164 CURVE SMOOTH",
"498 256 OFFCURVE",
"449 311 OFFCURVE",
"292 348 CURVE SMOOTH",
"151 381 OFFCURVE",
"109 407 OFFCURVE",
"109 481 CURVE SMOOTH",
"109 569 OFFCURVE",
"175 606 OFFCURVE",
"297 606 CURVE SMOOTH",
"357 606 OFFCURVE",
"413 597 OFFCURVE",
"459 581 CURVE",
"459 630 LINE",
"426 641 OFFCURVE",
"358 654 OFFCURVE",
"286 654 CURVE SMOOTH",
"128 654 OFFCURVE",
"55 585 OFFCURVE",
"55 481 CURVE SMOOTH",
"55 390 OFFCURVE",
"105 341 OFFCURVE",
"253 308 CURVE SMOOTH",
"392 277 OFFCURVE",
"444 247 OFFCURVE",
"444 164 CURVE SMOOTH",
"444 72 OFFCURVE",
"379 37 OFFCURVE",
"254 37 CURVE SMOOTH",
"186 37 OFFCURVE",
"126 47 OFFCURVE",
"71 67 CURVE",
"71 18 LINE",
"119 -1 OFFCURVE",
"180 -10 OFFCURVE",
"258 -10 CURVE SMOOTH"
);
},
{
closed = 1;
nodes = (
"346 -240 OFFCURVE",
"387 -204 OFFCURVE",
"387 -139 CURVE SMOOTH",
"387 -81 OFFCURVE",
"347 -51 OFFCURVE",
"273 -51 CURVE",
"290 0 LINE",
"247 0 LINE",
"219 -84 LINE",
"252 -84 LINE SMOOTH",
"314 -84 OFFCURVE",
"344 -96 OFFCURVE",
"344 -139 CURVE SMOOTH",
"344 -187 OFFCURVE",
"312 -203 OFFCURVE",
"245 -203 CURVE SMOOTH",
"223 -203 OFFCURVE",
"200 -200 OFFCURVE",
"182 -195 CURVE",
"182 -232 LINE",
"197 -236 OFFCURVE",
"227 -240 OFFCURVE",
"248 -240 CURVE SMOOTH"
);
}
);
width = 553;
}
);
leftKerningGroup = S;
note = Scedilla;
rightKerningGroup = S;
unicode = 015E;
},
{
glyphname = Scircumflex;
lastChange = "2015-10-24 21:18:09 +0000";
layers = (
{
layerId = "50AE23BC-B42B-4352-B38F-74DD4C968971";
name = Light;
paths = (
{
closed = 1;
nodes = (
"415 -10 OFFCURVE",
"498 49 OFFCURVE",
"498 164 CURVE SMOOTH",
"498 256 OFFCURVE",
"449 311 OFFCURVE",
"292 348 CURVE SMOOTH",
"151 381 OFFCURVE",
"109 407 OFFCURVE",
"109 481 CURVE SMOOTH",
"109 569 OFFCURVE",
"175 606 OFFCURVE",
"297 606 CURVE SMOOTH",
"357 606 OFFCURVE",
"413 597 OFFCURVE",
"459 581 CURVE",
"459 630 LINE",
"426 641 OFFCURVE",
"358 654 OFFCURVE",
"286 654 CURVE SMOOTH",
"128 654 OFFCURVE",
"55 585 OFFCURVE",
"55 481 CURVE SMOOTH",
"55 390 OFFCURVE",
"105 341 OFFCURVE",
"253 308 CURVE SMOOTH",
"392 277 OFFCURVE",
"444 247 OFFCURVE",
"444 164 CURVE SMOOTH",
"444 72 OFFCURVE",
"379 37 OFFCURVE",
"254 37 CURVE SMOOTH",
"186 37 OFFCURVE",
"126 47 OFFCURVE",
"71 67 CURVE",
"71 18 LINE",
"119 -1 OFFCURVE",
"180 -10 OFFCURVE",
"258 -10 CURVE SMOOTH"
);
},
{
closed = 1;
nodes = (
"197 703 LINE",
"276 806 LINE",
"355 703 LINE",
"405 703 LINE",
"300 838 LINE",
"252 838 LINE",
"147 703 LINE"
);
}
);
width = 553;
}
);
leftKerningGroup = S;
note = Scircumflex;
rightKerningGroup = S;
unicode = 015C;
},
{
glyphname = Scommaaccent;
lastChange = "2015-10-24 21:18:09 +0000";
layers = (
{
layerId = "50AE23BC-B42B-4352-B38F-74DD4C968971";
name = Light;
paths = (
{
closed = 1;
nodes = (
"415 -10 OFFCURVE",
"498 49 OFFCURVE",
"498 164 CURVE SMOOTH",
"498 256 OFFCURVE",
"449 311 OFFCURVE",
"292 348 CURVE SMOOTH",
"151 381 OFFCURVE",
"109 407 OFFCURVE",
"109 481 CURVE SMOOTH",
"109 569 OFFCURVE",
"175 606 OFFCURVE",
"297 606 CURVE SMOOTH",
"357 606 OFFCURVE",
"413 597 OFFCURVE",
"459 581 CURVE",
"459 630 LINE",
"426 641 OFFCURVE",
"358 654 OFFCURVE",
"286 654 CURVE SMOOTH",
"128 654 OFFCURVE",
"55 585 OFFCURVE",
"55 481 CURVE SMOOTH",
"55 390 OFFCURVE",
"105 341 OFFCURVE",
"253 308 CURVE SMOOTH",
"392 277 OFFCURVE",
"444 247 OFFCURVE",
"444 164 CURVE SMOOTH",
"444 72 OFFCURVE",
"379 37 OFFCURVE",
"254 37 CURVE SMOOTH",
"186 37 OFFCURVE",
"126 47 OFFCURVE",
"71 67 CURVE",
"71 18 LINE",
"119 -1 OFFCURVE",
"180 -10 OFFCURVE",
"258 -10 CURVE SMOOTH"
);
},
{
closed = 1;
nodes = (
"263 -215 LINE",
"300 -55 LINE",
"246 -55 LINE",
"220 -215 LINE"
);
}
);
width = 553;
}
);
leftKerningGroup = S;
note = Scommaaccent;
rightKerningGroup = S;
unicode = 0218;
},
{
glyphname = Sdotaccent;
lastChange = "2015-10-24 21:18:09 +0000";
layers = (
{
layerId = "50AE23BC-B42B-4352-B38F-74DD4C968971";
name = Light;
paths = (
{
closed = 1;
nodes = (
"415 -10 OFFCURVE",
"498 49 OFFCURVE",
"498 164 CURVE SMOOTH",
"498 256 OFFCURVE",
"449 311 OFFCURVE",
"292 348 CURVE SMOOTH",
"151 381 OFFCURVE",
"109 407 OFFCURVE",
"109 481 CURVE SMOOTH",
"109 569 OFFCURVE",
"175 606 OFFCURVE",
"297 606 CURVE SMOOTH",
"357 606 OFFCURVE",
"413 597 OFFCURVE",
"459 581 CURVE",
"459 630 LINE",
"426 641 OFFCURVE",
"358 654 OFFCURVE",
"286 654 CURVE SMOOTH",
"128 654 OFFCURVE",
"55 585 OFFCURVE",
"55 481 CURVE SMOOTH",
"55 390 OFFCURVE",
"105 341 OFFCURVE",
"253 308 CURVE SMOOTH",
"392 277 OFFCURVE",
"444 247 OFFCURVE",
"444 164 CURVE SMOOTH",
"444 72 OFFCURVE",
"379 37 OFFCURVE",
"254 37 CURVE SMOOTH",
"186 37 OFFCURVE",
"126 47 OFFCURVE",
"71 67 CURVE",
"71 18 LINE",
"119 -1 OFFCURVE",
"180 -10 OFFCURVE",
"258 -10 CURVE SMOOTH"
);
},
{
closed = 1;
nodes = (
"303 714 LINE",
"303 770 LINE",
"246 770 LINE",
"246 714 LINE"
);
}
);
width = 553;
}
);
leftKerningGroup = S;
note = Sdotaccent;
rightKerningGroup = S;
unicode = 1E60;
},
{
glyphname = Sdotbelow;
lastChange = "2015-10-24 21:18:09 +0000";
layers = (
{
layerId = "50AE23BC-B42B-4352-B38F-74DD4C968971";
name = Light;
paths = (
{
closed = 1;
nodes = (
"415 -10 OFFCURVE",
"498 49 OFFCURVE",
"498 164 CURVE SMOOTH",
"498 256 OFFCURVE",
"449 311 OFFCURVE",
"292 348 CURVE SMOOTH",
"151 381 OFFCURVE",
"109 407 OFFCURVE",
"109 481 CURVE SMOOTH",
"109 569 OFFCURVE",
"175 606 OFFCURVE",
"297 606 CURVE SMOOTH",
"357 606 OFFCURVE",
"413 597 OFFCURVE",
"459 581 CURVE",
"459 630 LINE",
"426 641 OFFCURVE",
"358 654 OFFCURVE",
"286 654 CURVE SMOOTH",
"128 654 OFFCURVE",
"55 585 OFFCURVE",
"55 481 CURVE SMOOTH",
"55 390 OFFCURVE",
"105 341 OFFCURVE",
"253 308 CURVE SMOOTH",
"392 277 OFFCURVE",
"444 247 OFFCURVE",
"444 164 CURVE SMOOTH",
"444 72 OFFCURVE",
"379 37 OFFCURVE",
"254 37 CURVE SMOOTH",
"186 37 OFFCURVE",
"126 47 OFFCURVE",
"71 67 CURVE",
"71 18 LINE",
"119 -1 OFFCURVE",
"180 -10 OFFCURVE",
"258 -10 CURVE SMOOTH"
);
},
{
closed = 1;
nodes = (
"298 -152 LINE",
"298 -95 LINE",
"239 -95 LINE",
"239 -152 LINE"
);
}
);
width = 553;
}
);
leftKerningGroup = S;
note = Sdotbelow;
rightKerningGroup = S;
unicode = 1E62;
},
{
glyphname = Germandbls;
lastChange = "2015-10-24 21:18:08 +0000";
layers = (
{
layerId = "50AE23BC-B42B-4352-B38F-74DD4C968971";
name = Light;
paths = (
{
closed = 1;
nodes = (
"494 -10 OFFCURVE",
"563 57 OFFCURVE",
"563 179 CURVE SMOOTH",
"563 283 OFFCURVE",
"505 345 OFFCURVE",
"391 345 CURVE SMOOTH",
"333 345 LINE",
"530 466 LINE",
"530 573 OFFCURVE",
"464 654 OFFCURVE",
"305 654 CURVE SMOOTH",
"155 654 OFFCURVE",
"70 582 OFFCURVE",
"70 444 CURVE SMOOTH",
"70 0 LINE",
"125 0 LINE",
"125 442 LINE SMOOTH",
"125 556 OFFCURVE",
"183 606 OFFCURVE",
"305 606 CURVE SMOOTH",
"432 606 OFFCURVE",
"477 553 OFFCURVE",
"477 484 CURVE",
"270 355 LINE",
"270 302 LINE",
"370 302 LINE SMOOTH",
"471 302 OFFCURVE",
"508 264 OFFCURVE",
"508 180 CURVE SMOOTH",
"508 83 OFFCURVE",
"460 37 OFFCURVE",
"363 37 CURVE SMOOTH",
"315 37 OFFCURVE",
"265 43 OFFCURVE",
"225 60 CURVE",
"225 12 LINE",
"265 -4 OFFCURVE",
"317 -10 OFFCURVE",
"369 -10 CURVE SMOOTH"
);
}
);
width = 618;
}
);
note = uni1E9E;
unicode = 1E9E;
},
{
glyphname = Schwa;
lastChange = "2015-10-24 21:18:09 +0000";
layers = (
{
layerId = "50AE23BC-B42B-4352-B38F-74DD4C968971";
name = Light;
paths = (
{
closed = 1;
nodes = (
"525 -10 OFFCURVE",
"607 113 OFFCURVE",
"607 316 CURVE SMOOTH",
"607 545 OFFCURVE",
"512 654 OFFCURVE",
"282 654 CURVE SMOOTH",
"218 654 OFFCURVE",
"149 640 OFFCURVE",
"96 619 CURVE",
"96 573 LINE",
"152 596 OFFCURVE",
"214 608 OFFCURVE",
"270 608 CURVE SMOOTH",
"480 608 OFFCURVE",
"551 523 OFFCURVE",
"556 351 CURVE",
"55 351 LINE",
"55 247 LINE SMOOTH",
"55 101 OFFCURVE",
"133 -10 OFFCURVE",
"315 -10 CURVE SMOOTH"
);
},
{
closed = 1;
nodes = (
"179 35 OFFCURVE",
"105 108 OFFCURVE",
"105 241 CURVE SMOOTH",
"105 308 LINE",
"556 308 LINE",
"556 131 OFFCURVE",
"485 35 OFFCURVE",
"315 35 CURVE SMOOTH"
);
}
);
width = 662;
}
);
note = uni018F;
unicode = 018F;
},
{
glyphname = T;
lastChange = "2015-10-24 21:18:07 +0000";
layers = (
{
layerId = "50AE23BC-B42B-4352-B38F-74DD4C968971";
name = Light;
paths = (
{
closed = 1;
nodes = (
"312 0 LINE",
"312 599 LINE",
"534 599 LINE",
"534 644 LINE",
"35 644 LINE",
"35 599 LINE",
"257 599 LINE",
"257 0 LINE"
);
}
);
width = 569;
}
);
leftKerningGroup = T;
note = T;
rightKerningGroup = T;
unicode = 0054;
},
{
glyphname = Tbar;
lastChange = "2015-10-24 21:18:07 +0000";
layers = (
{
layerId = "50AE23BC-B42B-4352-B38F-74DD4C968971";
name = Light;
paths = (
{
closed = 1;
nodes = (
"312 0 LINE",
"312 333 LINE",
"455 333 LINE",
"455 377 LINE",
"312 377 LINE",
"312 599 LINE",
"534 599 LINE",
"534 644 LINE",
"35 644 LINE",
"35 599 LINE",
"257 599 LINE",
"257 377 LINE",
"97 377 LINE",
"97 333 LINE",
"257 333 LINE",
"257 0 LINE"
);
}
);
width = 569;
}
);
leftKerningGroup = T;
note = Tbar;
rightKerningGroup = T;
unicode = 0166;
},
{
glyphname = Tcaron;
lastChange = "2015-10-24 21:18:09 +0000";
layers = (
{
layerId = "50AE23BC-B42B-4352-B38F-74DD4C968971";
name = Light;
paths = (
{
closed = 1;
nodes = (
"312 0 LINE",
"312 599 LINE",
"534 599 LINE",
"534 644 LINE",
"35 644 LINE",
"35 599 LINE",
"257 599 LINE",
"257 0 LINE"
);
},
{
closed = 1;
nodes = (
"308 703 LINE",
"413 838 LINE",
"363 838 LINE",
"284 735 LINE",
"205 838 LINE",
"155 838 LINE",
"260 703 LINE"
);
}
);
width = 569;
}
);
leftKerningGroup = T;
note = Tcaron;
rightKerningGroup = T;
unicode = 0164;
},
{
glyphname = Tcedilla;
lastChange = "2015-10-24 21:18:08 +0000";
layers = (
{
layerId = "50AE23BC-B42B-4352-B38F-74DD4C968971";
name = Light;
paths = (
{
closed = 1;
nodes = (
"312 0 LINE",
"312 599 LINE",
"534 599 LINE",
"534 644 LINE",
"35 644 LINE",
"35 599 LINE",
"257 599 LINE",
"257 0 LINE"
);
},
{
closed = 1;
nodes = (
"361 -240 OFFCURVE",
"402 -204 OFFCURVE",
"402 -139 CURVE SMOOTH",
"402 -81 OFFCURVE",
"362 -51 OFFCURVE",
"288 -51 CURVE",
"305 0 LINE",
"262 0 LINE",
"234 -84 LINE",
"267 -84 LINE SMOOTH",
"329 -84 OFFCURVE",
"359 -96 OFFCURVE",
"359 -139 CURVE SMOOTH",
"359 -187 OFFCURVE",
"327 -203 OFFCURVE",
"260 -203 CURVE SMOOTH",
"238 -203 OFFCURVE",
"215 -200 OFFCURVE",
"197 -195 CURVE",
"197 -232 LINE",
"212 -236 OFFCURVE",
"242 -240 OFFCURVE",
"263 -240 CURVE SMOOTH"
);
}
);
width = 569;
}
);
leftKerningGroup = T;
note = Tcedilla;
rightKerningGroup = T;
unicode = 0162;
},
{
glyphname = Tcommaaccent;
lastChange = "2015-10-24 21:18:09 +0000";
layers = (
{
layerId = "50AE23BC-B42B-4352-B38F-74DD4C968971";
name = Light;
paths = (
{
closed = 1;
nodes = (
"312 0 LINE",
"312 599 LINE",
"534 599 LINE",
"534 644 LINE",
"35 644 LINE",
"35 599 LINE",
"257 599 LINE",
"257 0 LINE"
);
},
{
closed = 1;
nodes = (
"273 -205 LINE",
"311 -40 LINE",
"258 -40 LINE",
"232 -205 LINE"
);
}
);
width = 569;
}
);
leftKerningGroup = T;
note = Tcommaaccent;
rightKerningGroup = T;
unicode = 021A;
},
{
glyphname = Tdotbelow;
lastChange = "2015-10-24 21:18:09 +0000";
layers = (
{
layerId = "50AE23BC-B42B-4352-B38F-74DD4C968971";
name = Light;
paths = (
{
closed = 1;
nodes = (
"312 0 LINE",
"312 599 LINE",
"534 599 LINE",
"534 644 LINE",
"35 644 LINE",
"35 599 LINE",
"257 599 LINE",
"257 0 LINE"
);
},
{
closed = 1;
nodes = (
"314 -150 LINE",
"314 -93 LINE",
"255 -93 LINE",
"255 -150 LINE"
);
}
);
width = 569;
}
);
leftKerningGroup = T;
note = Tdotbelow;
rightKerningGroup = T;
unicode = 1E6C;
},
{
glyphname = Tlinebelow;
lastChange = "2015-10-24 21:18:09 +0000";
layers = (
{
layerId = "50AE23BC-B42B-4352-B38F-74DD4C968971";
name = Light;
paths = (
{
closed = 1;
nodes = (
"312 0 LINE",
"312 599 LINE",
"534 599 LINE",
"534 644 LINE",
"35 644 LINE",
"35 599 LINE",
"257 599 LINE",
"257 0 LINE"
);
},
{
closed = 1;
nodes = (
"423 -114 LINE",
"423 -72 LINE",
"146 -72 LINE",
"146 -114 LINE"
);
}
);
width = 569;
}
);
leftKerningGroup = T;
note = Tlinebelow;
rightKerningGroup = T;
unicode = 1E6E;
},
{
glyphname = U;
lastChange = "2015-10-24 21:18:07 +0000";
layers = (
{
layerId = "50AE23BC-B42B-4352-B38F-74DD4C968971";
name = Light;
paths = (
{
closed = 1;
nodes = (
"506 -10 OFFCURVE",
"593 75 OFFCURVE",
"593 233 CURVE SMOOTH",
"593 644 LINE",
"538 644 LINE",
"538 227 LINE SMOOTH",
"538 99 OFFCURVE",
"462 38 OFFCURVE",
"332 38 CURVE SMOOTH",
"201 38 OFFCURVE",
"125 99 OFFCURVE",
"125 227 CURVE SMOOTH",
"125 644 LINE",
"70 644 LINE",
"70 233 LINE SMOOTH",
"70 75 OFFCURVE",
"157 -10 OFFCURVE",
"332 -10 CURVE SMOOTH"
);
}
);
width = 663;
}
);
leftKerningGroup = U;
note = U;
rightKerningGroup = U;
unicode = 0055;
},
{
glyphname = Uacute;
lastChange = "2015-10-24 21:18:09 +0000";
layers = (
{
layerId = "50AE23BC-B42B-4352-B38F-74DD4C968971";
name = Light;
paths = (
{
closed = 1;
nodes = (
"506 -10 OFFCURVE",
"593 75 OFFCURVE",
"593 233 CURVE SMOOTH",
"593 644 LINE",
"538 644 LINE",
"538 227 LINE SMOOTH",
"538 99 OFFCURVE",
"462 38 OFFCURVE",
"332 38 CURVE SMOOTH",
"201 38 OFFCURVE",
"125 99 OFFCURVE",
"125 227 CURVE SMOOTH",
"125 644 LINE",
"70 644 LINE",
"70 233 LINE SMOOTH",
"70 75 OFFCURVE",
"157 -10 OFFCURVE",
"332 -10 CURVE SMOOTH"
);
},
{
closed = 1;
nodes = (
"346 688 LINE",
"420 846 LINE",
"368 846 LINE",
"301 688 LINE"
);
}
);
width = 663;
}
);
leftKerningGroup = U;
note = Uacute;
rightKerningGroup = U;
unicode = 00DA;
},
{
glyphname = Ubreve;
lastChange = "2015-10-24 21:18:08 +0000";
layers = (
{
layerId = "50AE23BC-B42B-4352-B38F-74DD4C968971";
name = Light;
paths = (
{
closed = 1;
nodes = (
"506 -10 OFFCURVE",
"593 75 OFFCURVE",
"593 233 CURVE SMOOTH",
"593 644 LINE",
"538 644 LINE",
"538 227 LINE SMOOTH",
"538 99 OFFCURVE",
"462 38 OFFCURVE",
"332 38 CURVE SMOOTH",
"201 38 OFFCURVE",
"125 99 OFFCURVE",
"125 227 CURVE SMOOTH",
"125 644 LINE",
"70 644 LINE",
"70 233 LINE SMOOTH",
"70 75 OFFCURVE",
"157 -10 OFFCURVE",
"332 -10 CURVE SMOOTH"
);
},
{
closed = 1;
nodes = (
"400 687 OFFCURVE",
"443 734 OFFCURVE",
"443 798 CURVE",
"401 798 LINE",
"401 752 OFFCURVE",
"373 726 OFFCURVE",
"331 726 CURVE SMOOTH",
"290 726 OFFCURVE",
"262 752 OFFCURVE",
"262 798 CURVE",
"220 798 LINE",
"220 734 OFFCURVE",
"263 687 OFFCURVE",
"331 687 CURVE SMOOTH"
);
}
);
width = 663;
}
);
leftKerningGroup = U;
note = Ubreve;
rightKerningGroup = U;
unicode = 016C;
},
{
glyphname = Ucaron;
lastChange = "2015-10-24 21:18:09 +0000";
layers = (
{
layerId = "50AE23BC-B42B-4352-B38F-74DD4C968971";
name = Light;
paths = (
{
closed = 1;
nodes = (
"506 -10 OFFCURVE",
"593 75 OFFCURVE",
"593 233 CURVE SMOOTH",
"593 644 LINE",
"538 644 LINE",
"538 227 LINE SMOOTH",
"538 99 OFFCURVE",
"462 38 OFFCURVE",
"332 38 CURVE SMOOTH",
"201 38 OFFCURVE",
"125 99 OFFCURVE",
"125 227 CURVE SMOOTH",
"125 644 LINE",
"70 644 LINE",
"70 233 LINE SMOOTH",
"70 75 OFFCURVE",
"157 -10 OFFCURVE",
"332 -10 CURVE SMOOTH"
);
},
{
closed = 1;
nodes = (
"355 687 LINE",
"460 822 LINE",
"410 822 LINE",
"331 719 LINE",
"252 822 LINE",
"202 822 LINE",
"307 687 LINE"
);
}
);
width = 663;
}
);
leftKerningGroup = U;
note = Ucaron;
rightKerningGroup = U;
unicode = 01D3;
},
{
glyphname = Ucircumflex;
lastChange = "2015-10-24 21:18:08 +0000";
layers = (
{
layerId = "50AE23BC-B42B-4352-B38F-74DD4C968971";
name = Light;
paths = (
{
closed = 1;
nodes = (
"506 -10 OFFCURVE",
"593 75 OFFCURVE",
"593 233 CURVE SMOOTH",
"593 644 LINE",
"538 644 LINE",
"538 227 LINE SMOOTH",
"538 99 OFFCURVE",
"462 38 OFFCURVE",
"332 38 CURVE SMOOTH",
"201 38 OFFCURVE",
"125 99 OFFCURVE",
"125 227 CURVE SMOOTH",
"125 644 LINE",
"70 644 LINE",
"70 233 LINE SMOOTH",
"70 75 OFFCURVE",
"157 -10 OFFCURVE",
"332 -10 CURVE SMOOTH"
);
},
{
closed = 1;
nodes = (
"252 687 LINE",
"331 790 LINE",
"410 687 LINE",
"460 687 LINE",
"355 822 LINE",
"307 822 LINE",
"202 687 LINE"
);
}
);
width = 663;
}
);
leftKerningGroup = U;
note = Ucircumflex;
rightKerningGroup = U;
unicode = 00DB;
},
{
glyphname = Udieresis;
lastChange = "2015-10-24 21:18:09 +0000";
layers = (
{
layerId = "50AE23BC-B42B-4352-B38F-74DD4C968971";
name = Light;
paths = (
{
closed = 1;
nodes = (
"506 -10 OFFCURVE",
"593 75 OFFCURVE",
"593 233 CURVE SMOOTH",
"593 644 LINE",
"538 644 LINE",
"538 227 LINE SMOOTH",
"538 99 OFFCURVE",
"462 38 OFFCURVE",
"332 38 CURVE SMOOTH",
"201 38 OFFCURVE",
"125 99 OFFCURVE",
"125 227 CURVE SMOOTH",
"125 644 LINE",
"70 644 LINE",
"70 233 LINE SMOOTH",
"70 75 OFFCURVE",
"157 -10 OFFCURVE",
"332 -10 CURVE SMOOTH"
);
},
{
closed = 1;
nodes = (
"270 714 LINE",
"270 769 LINE",
"213 769 LINE",
"213 714 LINE"
);
},
{
closed = 1;
nodes = (
"436 714 LINE",
"436 769 LINE",
"380 769 LINE",
"380 714 LINE"
);
}
);
width = 663;
}
);
leftKerningGroup = U;
note = Udieresis;
rightKerningGroup = U;
unicode = 00DC;
},
{
glyphname = Udieresisacute;
lastChange = "2015-10-24 21:18:09 +0000";
layers = (
{
layerId = "50AE23BC-B42B-4352-B38F-74DD4C968971";
name = Light;
paths = (
{
closed = 1;
nodes = (
"506 -10 OFFCURVE",
"593 75 OFFCURVE",
"593 233 CURVE SMOOTH",
"593 644 LINE",
"538 644 LINE",
"538 227 LINE SMOOTH",
"538 99 OFFCURVE",
"462 38 OFFCURVE",
"332 38 CURVE SMOOTH",
"201 38 OFFCURVE",
"125 99 OFFCURVE",
"125 227 CURVE SMOOTH",
"125 644 LINE",
"70 644 LINE",
"70 233 LINE SMOOTH",
"70 75 OFFCURVE",
"157 -10 OFFCURVE",
"332 -10 CURVE SMOOTH"
);
},
{
closed = 1;
nodes = (
"269 687 LINE",
"269 742 LINE",
"212 742 LINE",
"212 687 LINE"
);
},
{
closed = 1;
nodes = (
"445 687 LINE",
"445 742 LINE",
"389 742 LINE",
"389 687 LINE"
);
},
{
closed = 1;
nodes = (
"350 764 LINE",
"416 881 LINE",
"365 881 LINE",
"305 764 LINE"
);
}
);
width = 663;
}
);
leftKerningGroup = U;
note = Udieresisacute;
rightKerningGroup = U;
unicode = 01D7;
},
{
glyphname = Udieresiscaron;
lastChange = "2015-10-24 21:18:08 +0000";
layers = (
{
layerId = "50AE23BC-B42B-4352-B38F-74DD4C968971";
name = Light;
paths = (
{
closed = 1;
nodes = (
"506 -10 OFFCURVE",
"593 75 OFFCURVE",
"593 233 CURVE SMOOTH",
"593 644 LINE",
"538 644 LINE",
"538 227 LINE SMOOTH",
"538 99 OFFCURVE",
"462 38 OFFCURVE",
"332 38 CURVE SMOOTH",
"201 38 OFFCURVE",
"125 99 OFFCURVE",
"125 227 CURVE SMOOTH",
"125 644 LINE",
"70 644 LINE",
"70 233 LINE SMOOTH",
"70 75 OFFCURVE",
"157 -10 OFFCURVE",
"332 -10 CURVE SMOOTH"
);
},
{
closed = 1;
nodes = (
"269 687 LINE",
"269 742 LINE",
"212 742 LINE",
"212 687 LINE"
);
},
{
closed = 1;
nodes = (
"445 687 LINE",
"445 742 LINE",
"389 742 LINE",
"389 687 LINE"
);
},
{
closed = 1;
nodes = (
"355 764 LINE",
"458 874 LINE",
"409 874 LINE",
"331 789 LINE",
"253 874 LINE",
"204 874 LINE",
"307 764 LINE"
);
}
);
width = 663;
}
);
leftKerningGroup = U;
note = Udieresiscaron;
rightKerningGroup = U;
unicode = 01D9;
},
{
glyphname = Udieresisgrave;
lastChange = "2015-10-24 21:18:09 +0000";
layers = (
{
layerId = "50AE23BC-B42B-4352-B38F-74DD4C968971";
name = Light;
paths = (
{
closed = 1;
nodes = (
"506 -10 OFFCURVE",
"593 75 OFFCURVE",
"593 233 CURVE SMOOTH",
"593 644 LINE",
"538 644 LINE",
"538 227 LINE SMOOTH",
"538 99 OFFCURVE",
"462 38 OFFCURVE",
"332 38 CURVE SMOOTH",
"201 38 OFFCURVE",
"125 99 OFFCURVE",
"125 227 CURVE SMOOTH",
"125 644 LINE",
"70 644 LINE",
"70 233 LINE SMOOTH",
"70 75 OFFCURVE",
"157 -10 OFFCURVE",
"332 -10 CURVE SMOOTH"
);
},
{
closed = 1;
nodes = (
"271 687 LINE",
"271 742 LINE",
"215 742 LINE",
"215 687 LINE"
);
},
{
closed = 1;
nodes = (
"355 764 LINE",
"295 881 LINE",
"244 881 LINE",
"310 764 LINE"
);
},
{
closed = 1;
nodes = (
"448 687 LINE",
"448 742 LINE",
"391 742 LINE",
"391 687 LINE"
);
}
);
width = 663;
}
);
leftKerningGroup = U;
note = Udieresisgrave;
rightKerningGroup = U;
unicode = 01DB;
},
{
glyphname = Udieresismacron;
lastChange = "2015-11-24 08:47:28 +0000";
layers = (
{
layerId = "50AE23BC-B42B-4352-B38F-74DD4C968971";
name = Light;
paths = (
{
closed = 1;
nodes = (
"506 -10 OFFCURVE",
"593 75 OFFCURVE",
"593 233 CURVE SMOOTH",
"593 644 LINE",
"538 644 LINE",
"538 227 LINE SMOOTH",
"538 99 OFFCURVE",
"462 38 OFFCURVE",
"332 38 CURVE SMOOTH",
"201 38 OFFCURVE",
"125 99 OFFCURVE",
"125 227 CURVE SMOOTH",
"125 644 LINE",
"70 644 LINE",
"70 233 LINE SMOOTH",
"70 75 OFFCURVE",
"157 -10 OFFCURVE",
"332 -10 CURVE SMOOTH"
);
},
{
closed = 1;
nodes = (
"277 711 LINE",
"277 766 LINE",
"220 766 LINE",
"220 711 LINE"
);
},
{
closed = 1;
nodes = (
"443 711 LINE",
"443 766 LINE",
"387 766 LINE",
"387 711 LINE"
);
},
{
closed = 1;
nodes = (
"470 819 LINE",
"470 861 LINE",
"193 861 LINE",
"193 819 LINE"
);
}
);
width = 663;
}
);
leftKerningGroup = U;
note = Udieresismacron;
rightKerningGroup = U;
unicode = 01D5;
},
{
glyphname = Udotbelow;
lastChange = "2015-10-24 21:18:08 +0000";
layers = (
{
layerId = "50AE23BC-B42B-4352-B38F-74DD4C968971";
name = Light;
paths = (
{
closed = 1;
nodes = (
"506 -10 OFFCURVE",
"593 75 OFFCURVE",
"593 233 CURVE SMOOTH",
"593 644 LINE",
"538 644 LINE",
"538 227 LINE SMOOTH",
"538 99 OFFCURVE",
"462 38 OFFCURVE",
"332 38 CURVE SMOOTH",
"201 38 OFFCURVE",
"125 99 OFFCURVE",
"125 227 CURVE SMOOTH",
"125 644 LINE",
"70 644 LINE",
"70 233 LINE SMOOTH",
"70 75 OFFCURVE",
"157 -10 OFFCURVE",
"332 -10 CURVE SMOOTH"
);
},
{
closed = 1;
nodes = (
"361 -152 LINE",
"361 -95 LINE",
"302 -95 LINE",
"302 -152 LINE"
);
}
);
width = 663;
}
);
leftKerningGroup = U;
note = Udotbelow;
rightKerningGroup = U;
unicode = 1EE4;
},
{
glyphname = Ugrave;
lastChange = "2015-10-24 21:18:08 +0000";
layers = (
{
layerId = "50AE23BC-B42B-4352-B38F-74DD4C968971";
name = Light;
paths = (
{
closed = 1;
nodes = (
"506 -10 OFFCURVE",
"593 75 OFFCURVE",
"593 233 CURVE SMOOTH",
"593 644 LINE",
"538 644 LINE",
"538 227 LINE SMOOTH",
"538 99 OFFCURVE",
"462 38 OFFCURVE",
"332 38 CURVE SMOOTH",
"201 38 OFFCURVE",
"125 99 OFFCURVE",
"125 227 CURVE SMOOTH",
"125 644 LINE",
"70 644 LINE",
"70 233 LINE SMOOTH",
"70 75 OFFCURVE",
"157 -10 OFFCURVE",
"332 -10 CURVE SMOOTH"
);
},
{
closed = 1;
nodes = (
"374 688 LINE",
"307 846 LINE",
"255 846 LINE",
"329 688 LINE"
);
}
);
width = 663;
}
);
leftKerningGroup = U;
note = Ugrave;
rightKerningGroup = U;
unicode = 00D9;
},
{
glyphname = Uhookabove;
lastChange = "2015-10-24 21:18:09 +0000";
layers = (
{
layerId = "50AE23BC-B42B-4352-B38F-74DD4C968971";
name = Light;
paths = (
{
closed = 1;
nodes = (
"506 -10 OFFCURVE",
"593 75 OFFCURVE",
"593 233 CURVE SMOOTH",
"593 644 LINE",
"538 644 LINE",
"538 227 LINE SMOOTH",
"538 99 OFFCURVE",
"462 38 OFFCURVE",
"332 38 CURVE SMOOTH",
"201 38 OFFCURVE",
"125 99 OFFCURVE",
"125 227 CURVE SMOOTH",
"125 644 LINE",
"70 644 LINE",
"70 233 LINE SMOOTH",
"70 75 OFFCURVE",
"157 -10 OFFCURVE",
"332 -10 CURVE SMOOTH"
);
},
{
closed = 1;
nodes = (
"352 688 LINE",
"352 740 LINE",
"420 747 OFFCURVE",
"442 776 OFFCURVE",
"442 829 CURVE SMOOTH",
"442 885 OFFCURVE",
"402 917 OFFCURVE",
"326 917 CURVE SMOOTH",
"302 917 OFFCURVE",
"267 912 OFFCURVE",
"249 905 CURVE",
"249 867 LINE",
"266 874 OFFCURVE",
"295 879 OFFCURVE",
"316 879 CURVE SMOOTH",
"374 879 OFFCURVE",
"399 862 OFFCURVE",
"399 826 CURVE SMOOTH",
"399 788 OFFCURVE",
"385 771 OFFCURVE",
"305 767 CURVE",
"305 688 LINE"
);
}
);
width = 663;
}
);
leftKerningGroup = U;
note = Uhookabove;
rightKerningGroup = U;
unicode = 1EE6;
},
{
glyphname = Uhorn;
lastChange = "2015-10-24 21:18:07 +0000";
layers = (
{
layerId = "50AE23BC-B42B-4352-B38F-74DD4C968971";
name = Light;
paths = (
{
closed = 1;
nodes = (
"506 -10 OFFCURVE",
"593 75 OFFCURVE",
"593 233 CURVE SMOOTH",
"593 519 LINE",
"695 520 OFFCURVE",
"750 559 OFFCURVE",
"750 688 CURVE",
"702 688 LINE",
"702 593 OFFCURVE",
"675 564 OFFCURVE",
"593 564 CURVE",
"593 644 LINE",
"538 644 LINE",
"538 227 LINE SMOOTH",
"538 99 OFFCURVE",
"462 38 OFFCURVE",
"332 38 CURVE SMOOTH",
"201 38 OFFCURVE",
"125 99 OFFCURVE",
"125 227 CURVE SMOOTH",
"125 644 LINE",
"70 644 LINE",
"70 233 LINE SMOOTH",
"70 75 OFFCURVE",
"157 -10 OFFCURVE",
"332 -10 CURVE SMOOTH"
);
}
);
width = 785;
}
);
leftKerningGroup = U;
note = Uhorn;
rightKerningGroup = U;
unicode = 01AF;
},
{
glyphname = Uhornacute;
lastChange = "2015-10-24 21:18:08 +0000";
layers = (
{
layerId = "50AE23BC-B42B-4352-B38F-74DD4C968971";
name = Light;
paths = (
{
closed = 1;
nodes = (
"506 -10 OFFCURVE",
"593 75 OFFCURVE",
"593 233 CURVE SMOOTH",
"593 519 LINE",
"695 520 OFFCURVE",
"750 559 OFFCURVE",
"750 688 CURVE",
"702 688 LINE",
"702 593 OFFCURVE",
"675 564 OFFCURVE",
"593 564 CURVE",
"593 644 LINE",
"538 644 LINE",
"538 227 LINE SMOOTH",
"538 99 OFFCURVE",
"462 38 OFFCURVE",
"332 38 CURVE SMOOTH",
"201 38 OFFCURVE",
"125 99 OFFCURVE",
"125 227 CURVE SMOOTH",
"125 644 LINE",
"70 644 LINE",
"70 233 LINE SMOOTH",
"70 75 OFFCURVE",
"157 -10 OFFCURVE",
"332 -10 CURVE SMOOTH"
);
},
{
closed = 1;
nodes = (
"363 688 LINE",
"437 846 LINE",
"385 846 LINE",
"318 688 LINE"
);
}
);
width = 785;
}
);
leftKerningGroup = U;
note = Uhornacute;
rightKerningGroup = U;
unicode = 1EE8;
},
{
glyphname = Uhorndotbelow;
lastChange = "2015-10-24 21:18:09 +0000";
layers = (
{
layerId = "50AE23BC-B42B-4352-B38F-74DD4C968971";
name = Light;
paths = (
{
closed = 1;
nodes = (
"506 -10 OFFCURVE",
"593 75 OFFCURVE",
"593 233 CURVE SMOOTH",
"593 519 LINE",
"695 520 OFFCURVE",
"750 559 OFFCURVE",
"750 688 CURVE",
"702 688 LINE",
"702 593 OFFCURVE",
"675 564 OFFCURVE",
"593 564 CURVE",
"593 644 LINE",
"538 644 LINE",
"538 227 LINE SMOOTH",
"538 99 OFFCURVE",
"462 38 OFFCURVE",
"332 38 CURVE SMOOTH",
"201 38 OFFCURVE",
"125 99 OFFCURVE",
"125 227 CURVE SMOOTH",
"125 644 LINE",
"70 644 LINE",
"70 233 LINE SMOOTH",
"70 75 OFFCURVE",
"157 -10 OFFCURVE",
"332 -10 CURVE SMOOTH"
);
},
{
closed = 1;
nodes = (
"358 -152 LINE",
"358 -95 LINE",
"299 -95 LINE",
"299 -152 LINE"
);
}
);
width = 785;
}
);
leftKerningGroup = U;
note = Uhorndotbelow;
rightKerningGroup = U;
unicode = 1EF0;
},
{
glyphname = Uhorngrave;
lastChange = "2015-10-24 21:18:08 +0000";
layers = (
{
layerId = "50AE23BC-B42B-4352-B38F-74DD4C968971";
name = Light;
paths = (
{
closed = 1;
nodes = (
"506 -10 OFFCURVE",
"593 75 OFFCURVE",
"593 233 CURVE SMOOTH",
"593 519 LINE",
"695 520 OFFCURVE",
"750 559 OFFCURVE",
"750 688 CURVE",
"702 688 LINE",
"702 593 OFFCURVE",
"675 564 OFFCURVE",
"593 564 CURVE",
"593 644 LINE",
"538 644 LINE",
"538 227 LINE SMOOTH",
"538 99 OFFCURVE",
"462 38 OFFCURVE",
"332 38 CURVE SMOOTH",
"201 38 OFFCURVE",
"125 99 OFFCURVE",
"125 227 CURVE SMOOTH",
"125 644 LINE",
"70 644 LINE",
"70 233 LINE SMOOTH",
"70 75 OFFCURVE",
"157 -10 OFFCURVE",
"332 -10 CURVE SMOOTH"
);
},
{
closed = 1;
nodes = (
"364 688 LINE",
"297 846 LINE",
"245 846 LINE",
"319 688 LINE"
);
}
);
width = 785;
}
);
leftKerningGroup = U;
note = Uhorngrave;
rightKerningGroup = U;
unicode = 1EEA;
},
{
glyphname = Uhornhookabove;
lastChange = "2015-10-24 21:18:09 +0000";
layers = (
{
layerId = "50AE23BC-B42B-4352-B38F-74DD4C968971";
name = Light;
paths = (
{
closed = 1;
nodes = (
"506 -10 OFFCURVE",
"593 75 OFFCURVE",
"593 233 CURVE SMOOTH",
"593 519 LINE",
"695 520 OFFCURVE",
"750 559 OFFCURVE",
"750 688 CURVE",
"702 688 LINE",
"702 593 OFFCURVE",
"675 564 OFFCURVE",
"593 564 CURVE",
"593 644 LINE",
"538 644 LINE",
"538 227 LINE SMOOTH",
"538 99 OFFCURVE",
"462 38 OFFCURVE",
"332 38 CURVE SMOOTH",
"201 38 OFFCURVE",
"125 99 OFFCURVE",
"125 227 CURVE SMOOTH",
"125 644 LINE",
"70 644 LINE",
"70 233 LINE SMOOTH",
"70 75 OFFCURVE",
"157 -10 OFFCURVE",
"332 -10 CURVE SMOOTH"
);
},
{
closed = 1;
nodes = (
"362 688 LINE",
"362 740 LINE",
"430 747 OFFCURVE",
"452 776 OFFCURVE",
"452 829 CURVE SMOOTH",
"452 885 OFFCURVE",
"412 917 OFFCURVE",
"336 917 CURVE SMOOTH",
"312 917 OFFCURVE",
"277 912 OFFCURVE",
"259 905 CURVE",
"259 867 LINE",
"276 874 OFFCURVE",
"305 879 OFFCURVE",
"326 879 CURVE SMOOTH",
"384 879 OFFCURVE",
"409 862 OFFCURVE",
"409 826 CURVE SMOOTH",
"409 788 OFFCURVE",
"395 771 OFFCURVE",
"315 767 CURVE",
"315 688 LINE"
);
}
);
width = 785;
}
);
leftKerningGroup = U;
note = Uhornhookabove;
rightKerningGroup = U;
unicode = 1EEC;
},
{
glyphname = Uhorntilde;
lastChange = "2015-10-24 21:18:09 +0000";
layers = (
{
layerId = "50AE23BC-B42B-4352-B38F-74DD4C968971";
name = Light;
paths = (
{
closed = 1;
nodes = (
"506 -10 OFFCURVE",
"593 75 OFFCURVE",
"593 233 CURVE SMOOTH",
"593 519 LINE",
"695 520 OFFCURVE",
"750 559 OFFCURVE",
"750 688 CURVE",
"702 688 LINE",
"702 593 OFFCURVE",
"675 564 OFFCURVE",
"593 564 CURVE",
"593 644 LINE",
"538 644 LINE",
"538 227 LINE SMOOTH",
"538 99 OFFCURVE",
"462 38 OFFCURVE",
"332 38 CURVE SMOOTH",
"201 38 OFFCURVE",
"125 99 OFFCURVE",
"125 227 CURVE SMOOTH",
"125 644 LINE",
"70 644 LINE",
"70 233 LINE SMOOTH",
"70 75 OFFCURVE",
"157 -10 OFFCURVE",
"332 -10 CURVE SMOOTH"
);
},
{
closed = 1;
nodes = (
"432 712 OFFCURVE",
"458 723 OFFCURVE",
"471 741 CURVE",
"471 788 LINE",
"453 763 OFFCURVE",
"430 753 OFFCURVE",
"398 753 CURVE SMOOTH",
"352 753 OFFCURVE",
"318 790 OFFCURVE",
"266 790 CURVE SMOOTH",
"236 790 OFFCURVE",
"204 779 OFFCURVE",
"188 761 CURVE",
"188 714 LINE",
"210 741 OFFCURVE",
"237 749 OFFCURVE",
"267 749 CURVE SMOOTH",
"307 749 OFFCURVE",
"351 712 OFFCURVE",
"400 712 CURVE SMOOTH"
);
}
);
width = 785;
}
);
leftKerningGroup = U;
note = Uhorntilde;
rightKerningGroup = U;
unicode = 1EEE;
},
{
glyphname = Uhungarumlaut;
lastChange = "2015-10-24 21:18:09 +0000";
layers = (
{
layerId = "50AE23BC-B42B-4352-B38F-74DD4C968971";
name = Light;
paths = (
{
closed = 1;
nodes = (
"506 -10 OFFCURVE",
"593 75 OFFCURVE",
"593 233 CURVE SMOOTH",
"593 644 LINE",
"538 644 LINE",
"538 227 LINE SMOOTH",
"538 99 OFFCURVE",
"462 38 OFFCURVE",
"332 38 CURVE SMOOTH",
"201 38 OFFCURVE",
"125 99 OFFCURVE",
"125 227 CURVE SMOOTH",
"125 644 LINE",
"70 644 LINE",
"70 233 LINE SMOOTH",
"70 75 OFFCURVE",
"157 -10 OFFCURVE",
"332 -10 CURVE SMOOTH"
);
},
{
closed = 1;
nodes = (
"220 687 LINE",
"296 828 LINE",
"242 828 LINE",
"175 687 LINE"
);
},
{
closed = 1;
nodes = (
"419 687 LINE",
"495 828 LINE",
"441 828 LINE",
"374 687 LINE"
);
}
);
width = 663;
}
);
leftKerningGroup = U;
note = Uhungarumlaut;
rightKerningGroup = U;
unicode = 0170;
},
{
glyphname = Umacron;
lastChange = "2015-10-24 21:18:08 +0000";
layers = (
{
layerId = "50AE23BC-B42B-4352-B38F-74DD4C968971";
name = Light;
paths = (
{
closed = 1;
nodes = (
"506 -10 OFFCURVE",
"593 75 OFFCURVE",
"593 233 CURVE SMOOTH",
"593 644 LINE",
"538 644 LINE",
"538 227 LINE SMOOTH",
"538 99 OFFCURVE",
"462 38 OFFCURVE",
"332 38 CURVE SMOOTH",
"201 38 OFFCURVE",
"125 99 OFFCURVE",
"125 227 CURVE SMOOTH",
"125 644 LINE",
"70 644 LINE",
"70 233 LINE SMOOTH",
"70 75 OFFCURVE",
"157 -10 OFFCURVE",
"332 -10 CURVE SMOOTH"
);
},
{
closed = 1;
nodes = (
"470 719 LINE",
"470 761 LINE",
"193 761 LINE",
"193 719 LINE"
);
}
);
width = 663;
}
);
leftKerningGroup = U;
note = Umacron;
rightKerningGroup = U;
unicode = 016A;
},
{
glyphname = Uogonek;
lastChange = "2015-10-24 21:18:08 +0000";
layers = (
{
layerId = "50AE23BC-B42B-4352-B38F-74DD4C968971";
name = Light;
paths = (
{
closed = 1;
nodes = (
"506 -10 OFFCURVE",
"593 75 OFFCURVE",
"593 233 CURVE SMOOTH",
"593 644 LINE",
"538 644 LINE",
"538 227 LINE SMOOTH",
"538 99 OFFCURVE",
"462 38 OFFCURVE",
"332 38 CURVE SMOOTH",
"201 38 OFFCURVE",
"125 99 OFFCURVE",
"125 227 CURVE SMOOTH",
"125 644 LINE",
"70 644 LINE",
"70 233 LINE SMOOTH",
"70 75 OFFCURVE",
"157 -10 OFFCURVE",
"332 -10 CURVE SMOOTH"
);
},
{
closed = 1;
nodes = (
"371 -220 OFFCURVE",
"396 -217 OFFCURVE",
"411 -209 CURVE",
"411 -168 LINE",
"399 -175 OFFCURVE",
"378 -179 OFFCURVE",
"361 -179 CURVE SMOOTH",
"324 -179 OFFCURVE",
"308 -165 OFFCURVE",
"308 -128 CURVE SMOOTH",
"308 -83 OFFCURVE",
"332 -37 OFFCURVE",
"382 0 CURVE",
"336 0 LINE",
"294 -29 OFFCURVE",
"261 -80 OFFCURVE",
"261 -134 CURVE SMOOTH",
"261 -197 OFFCURVE",
"301 -220 OFFCURVE",
"352 -220 CURVE SMOOTH"
);
}
);
width = 663;
}
);
leftKerningGroup = U;
note = Uogonek;
rightKerningGroup = U;
unicode = 0172;
},
{
glyphname = Uring;
lastChange = "2015-10-24 21:18:08 +0000";
layers = (
{
layerId = "50AE23BC-B42B-4352-B38F-74DD4C968971";
name = Light;
paths = (
{
closed = 1;
nodes = (
"506 -10 OFFCURVE",
"593 75 OFFCURVE",
"593 233 CURVE SMOOTH",
"593 644 LINE",
"538 644 LINE",
"538 227 LINE SMOOTH",
"538 99 OFFCURVE",
"462 38 OFFCURVE",
"332 38 CURVE SMOOTH",
"201 38 OFFCURVE",
"125 99 OFFCURVE",
"125 227 CURVE SMOOTH",
"125 644 LINE",
"70 644 LINE",
"70 233 LINE SMOOTH",
"70 75 OFFCURVE",
"157 -10 OFFCURVE",
"332 -10 CURVE SMOOTH"
);
},
{
closed = 1;
nodes = (
"391 687 OFFCURVE",
"434 732 OFFCURVE",
"434 788 CURVE SMOOTH",
"434 845 OFFCURVE",
"391 890 OFFCURVE",
"331 890 CURVE SMOOTH",
"272 890 OFFCURVE",
"229 845 OFFCURVE",
"229 788 CURVE SMOOTH",
"229 732 OFFCURVE",
"272 687 OFFCURVE",
"331 687 CURVE SMOOTH"
);
},
{
closed = 1;
nodes = (
"293 723 OFFCURVE",
"265 751 OFFCURVE",
"265 788 CURVE SMOOTH",
"265 826 OFFCURVE",
"293 854 OFFCURVE",
"331 854 CURVE SMOOTH",
"370 854 OFFCURVE",
"397 826 OFFCURVE",
"397 788 CURVE SMOOTH",
"397 751 OFFCURVE",
"370 723 OFFCURVE",
"331 723 CURVE SMOOTH"
);
}
);
width = 663;
}
);
leftKerningGroup = U;
note = Uring;
rightKerningGroup = U;
unicode = 016E;
},
{
glyphname = Utilde;
lastChange = "2015-10-24 21:18:09 +0000";
layers = (
{
layerId = "50AE23BC-B42B-4352-B38F-74DD4C968971";
name = Light;
paths = (
{
closed = 1;
nodes = (
"506 -10 OFFCURVE",
"593 75 OFFCURVE",
"593 233 CURVE SMOOTH",
"593 644 LINE",
"538 644 LINE",
"538 227 LINE SMOOTH",
"538 99 OFFCURVE",
"462 38 OFFCURVE",
"332 38 CURVE SMOOTH",
"201 38 OFFCURVE",
"125 99 OFFCURVE",
"125 227 CURVE SMOOTH",
"125 644 LINE",
"70 644 LINE",
"70 233 LINE SMOOTH",
"70 75 OFFCURVE",
"157 -10 OFFCURVE",
"332 -10 CURVE SMOOTH"
);
},
{
closed = 1;
nodes = (
"434 713 OFFCURVE",
"460 724 OFFCURVE",
"473 742 CURVE",
"473 789 LINE",
"455 764 OFFCURVE",
"432 754 OFFCURVE",
"400 754 CURVE SMOOTH",
"354 754 OFFCURVE",
"320 791 OFFCURVE",
"268 791 CURVE SMOOTH",
"238 791 OFFCURVE",
"206 780 OFFCURVE",
"190 762 CURVE",
"190 715 LINE",
"212 742 OFFCURVE",
"239 750 OFFCURVE",
"269 750 CURVE SMOOTH",
"309 750 OFFCURVE",
"353 713 OFFCURVE",
"402 713 CURVE SMOOTH"
);
}
);
width = 663;
}
);
leftKerningGroup = U;
note = Utilde;
rightKerningGroup = U;
unicode = 0168;
},
{
glyphname = V;
lastChange = "2015-10-24 21:18:07 +0000";
layers = (
{
layerId = "50AE23BC-B42B-4352-B38F-74DD4C968971";
name = Light;
paths = (
{
closed = 1;
nodes = (
"370 0 LINE",
"613 644 LINE",
"556 644 LINE",
"334 49 LINE",
"112 644 LINE",
"55 644 LINE",
"298 0 LINE"
);
}
);
width = 668;
}
);
note = V;
unicode = 0056;
},
{
glyphname = W;
lastChange = "2015-10-24 21:18:07 +0000";
layers = (
{
layerId = "50AE23BC-B42B-4352-B38F-74DD4C968971";
name = Light;
paths = (
{
closed = 1;
nodes = (
"272 0 LINE",
"431 530 LINE",
"580 0 LINE",
"646 0 LINE",
"795 644 LINE",
"741 644 LINE",
"607 67 LINE",
"444 644 LINE",
"399 644 LINE",
"399 579 LINE",
"243 67 LINE",
"110 644 LINE",
"55 644 LINE",
"205 0 LINE"
);
}
);
width = 850;
}
);
leftKerningGroup = W;
note = W;
rightKerningGroup = W;
unicode = 0057;
},
{
glyphname = Wacute;
lastChange = "2015-10-24 21:18:09 +0000";
layers = (
{
layerId = "50AE23BC-B42B-4352-B38F-74DD4C968971";
name = Light;
paths = (
{
closed = 1;
nodes = (
"272 0 LINE",
"431 530 LINE",
"580 0 LINE",
"646 0 LINE",
"795 644 LINE",
"741 644 LINE",
"607 67 LINE",
"444 644 LINE",
"399 644 LINE",
"399 579 LINE",
"243 67 LINE",
"110 644 LINE",
"55 644 LINE",
"205 0 LINE"
);
},
{
closed = 1;
nodes = (
"454 688 LINE",
"528 846 LINE",
"476 846 LINE",
"409 688 LINE"
);
}
);
width = 850;
}
);
leftKerningGroup = W;
note = Wacute;
rightKerningGroup = W;
unicode = 1E82;
},
{
glyphname = Wcircumflex;
lastChange = "2015-10-24 21:18:09 +0000";
layers = (
{
layerId = "50AE23BC-B42B-4352-B38F-74DD4C968971";
name = Light;
paths = (
{
closed = 1;
nodes = (
"272 0 LINE",
"431 530 LINE",
"580 0 LINE",
"646 0 LINE",
"795 644 LINE",
"741 644 LINE",
"607 67 LINE",
"444 644 LINE",
"399 644 LINE",
"399 579 LINE",
"243 67 LINE",
"110 644 LINE",
"55 644 LINE",
"205 0 LINE"
);
},
{
closed = 1;
nodes = (
"351 687 LINE",
"430 790 LINE",
"509 687 LINE",
"559 687 LINE",
"454 822 LINE",
"406 822 LINE",
"301 687 LINE"
);
}
);
width = 850;
}
);
leftKerningGroup = W;
note = Wcircumflex;
rightKerningGroup = W;
unicode = 0174;
},
{
glyphname = Wdieresis;
lastChange = "2015-10-24 21:18:09 +0000";
layers = (
{
layerId = "50AE23BC-B42B-4352-B38F-74DD4C968971";
name = Light;
paths = (
{
closed = 1;
nodes = (
"272 0 LINE",
"431 530 LINE",
"580 0 LINE",
"646 0 LINE",
"795 644 LINE",
"741 644 LINE",
"607 67 LINE",
"444 644 LINE",
"399 644 LINE",
"399 579 LINE",
"243 67 LINE",
"110 644 LINE",
"55 644 LINE",
"205 0 LINE"
);
},
{
closed = 1;
nodes = (
"376 712 LINE",
"376 767 LINE",
"319 767 LINE",
"319 712 LINE"
);
},
{
closed = 1;
nodes = (
"542 712 LINE",
"542 767 LINE",
"486 767 LINE",
"486 712 LINE"
);
}
);
width = 850;
}
);
leftKerningGroup = W;
note = Wdieresis;
rightKerningGroup = W;
unicode = 1E84;
},
{
glyphname = Wgrave;
lastChange = "2015-10-24 21:18:08 +0000";
layers = (
{
layerId = "50AE23BC-B42B-4352-B38F-74DD4C968971";
name = Light;
paths = (
{
closed = 1;
nodes = (
"272 0 LINE",
"431 530 LINE",
"580 0 LINE",
"646 0 LINE",
"795 644 LINE",
"741 644 LINE",
"607 67 LINE",
"444 644 LINE",
"399 644 LINE",
"399 579 LINE",
"243 67 LINE",
"110 644 LINE",
"55 644 LINE",
"205 0 LINE"
);
},
{
closed = 1;
nodes = (
"446 688 LINE",
"379 846 LINE",
"327 846 LINE",
"401 688 LINE"
);
}
);
width = 850;
}
);
leftKerningGroup = W;
note = Wgrave;
rightKerningGroup = W;
unicode = 1E80;
},
{
glyphname = X;
lastChange = "2015-10-24 21:18:07 +0000";
layers = (
{
layerId = "50AE23BC-B42B-4352-B38F-74DD4C968971";
name = Light;
paths = (
{
closed = 1;
nodes = (
"117 0 LINE",
"312 278 LINE",
"507 0 LINE",
"569 0 LINE",
"344 318 LINE",
"567 644 LINE",
"506 644 LINE",
"312 357 LINE",
"118 644 LINE",
"56 644 LINE",
"279 318 LINE",
"55 0 LINE"
);
}
);
width = 624;
}
);
note = X;
unicode = 0058;
},
{
glyphname = Y;
lastChange = "2015-10-24 21:18:07 +0000";
layers = (
{
layerId = "50AE23BC-B42B-4352-B38F-74DD4C968971";
name = Light;
paths = (
{
closed = 1;
nodes = (
"339 0 LINE",
"339 241 LINE",
"569 644 LINE",
"512 644 LINE",
"312 289 LINE",
"112 644 LINE",
"55 644 LINE",
"284 241 LINE",
"284 0 LINE"
);
}
);
width = 624;
}
);
leftKerningGroup = Y;
note = Y;
rightKerningGroup = Y;
unicode = 0059;
},
{
glyphname = Yacute;
lastChange = "2015-10-24 21:18:09 +0000";
layers = (
{
layerId = "50AE23BC-B42B-4352-B38F-74DD4C968971";
name = Light;
paths = (
{
closed = 1;
nodes = (
"339 0 LINE",
"339 241 LINE",
"569 644 LINE",
"512 644 LINE",
"312 289 LINE",
"112 644 LINE",
"55 644 LINE",
"284 241 LINE",
"284 0 LINE"
);
},
{
closed = 1;
nodes = (
"321 688 LINE",
"395 846 LINE",
"343 846 LINE",
"276 688 LINE"
);
}
);
width = 624;
}
);
leftKerningGroup = Y;
note = Yacute;
rightKerningGroup = Y;
unicode = 00DD;
},
{
glyphname = Ycircumflex;
lastChange = "2015-10-24 21:18:09 +0000";
layers = (
{
layerId = "50AE23BC-B42B-4352-B38F-74DD4C968971";
name = Light;
paths = (
{
closed = 1;
nodes = (
"339 0 LINE",
"339 241 LINE",
"569 644 LINE",
"512 644 LINE",
"312 289 LINE",
"112 644 LINE",
"55 644 LINE",
"284 241 LINE",
"284 0 LINE"
);
},
{
closed = 1;
nodes = (
"232 687 LINE",
"311 790 LINE",
"390 687 LINE",
"440 687 LINE",
"335 822 LINE",
"287 822 LINE",
"182 687 LINE"
);
}
);
width = 624;
}
);
leftKerningGroup = Y;
note = Ycircumflex;
rightKerningGroup = Y;
unicode = 0176;
},
{
glyphname = Ydieresis;
lastChange = "2015-10-24 21:18:08 +0000";
layers = (
{
layerId = "50AE23BC-B42B-4352-B38F-74DD4C968971";
name = Light;
paths = (
{
closed = 1;
nodes = (
"339 0 LINE",
"339 241 LINE",
"569 644 LINE",
"512 644 LINE",
"312 289 LINE",
"112 644 LINE",
"55 644 LINE",
"284 241 LINE",
"284 0 LINE"
);
},
{
closed = 1;
nodes = (
"258 714 LINE",
"258 769 LINE",
"201 769 LINE",
"201 714 LINE"
);
},
{
closed = 1;
nodes = (
"424 714 LINE",
"424 769 LINE",
"368 769 LINE",
"368 714 LINE"
);
}
);
width = 624;
}
);
leftKerningGroup = Y;
note = Ydieresis;
rightKerningGroup = Y;
unicode = 0178;
},
{
glyphname = Ydotaccent;
lastChange = "2015-10-24 21:18:09 +0000";
layers = (
{
layerId = "50AE23BC-B42B-4352-B38F-74DD4C968971";
name = Light;
paths = (
{
closed = 1;
nodes = (
"339 0 LINE",
"339 241 LINE",
"569 644 LINE",
"512 644 LINE",
"312 289 LINE",
"112 644 LINE",
"55 644 LINE",
"284 241 LINE",
"284 0 LINE"
);
},
{
closed = 1;
nodes = (
"340 714 LINE",
"340 770 LINE",
"283 770 LINE",
"283 714 LINE"
);
}
);
width = 624;
}
);
leftKerningGroup = Y;
note = Ydotaccent;
rightKerningGroup = Y;
unicode = 1E8E;
},
{
glyphname = Ydotbelow;
lastChange = "2015-10-24 21:18:08 +0000";
layers = (
{
layerId = "50AE23BC-B42B-4352-B38F-74DD4C968971";
name = Light;
paths = (
{
closed = 1;
nodes = (
"339 0 LINE",
"339 241 LINE",
"569 644 LINE",
"512 644 LINE",
"312 289 LINE",
"112 644 LINE",
"55 644 LINE",
"284 241 LINE",
"284 0 LINE"
);
},
{
closed = 1;
nodes = (
"342 -135 LINE",
"342 -78 LINE",
"283 -78 LINE",
"283 -135 LINE"
);
}
);
width = 624;
}
);
leftKerningGroup = Y;
note = Ydotbelow;
rightKerningGroup = Y;
unicode = 1EF4;
},
{
glyphname = Ygrave;
lastChange = "2015-10-24 21:18:08 +0000";
layers = (
{
layerId = "50AE23BC-B42B-4352-B38F-74DD4C968971";
name = Light;
paths = (
{
closed = 1;
nodes = (
"339 0 LINE",
"339 241 LINE",
"569 644 LINE",
"512 644 LINE",
"312 289 LINE",
"112 644 LINE",
"55 644 LINE",
"284 241 LINE",
"284 0 LINE"
);
},
{
closed = 1;
nodes = (
"348 688 LINE",
"281 846 LINE",
"229 846 LINE",
"303 688 LINE"
);
}
);
width = 624;
}
);
leftKerningGroup = Y;
note = Ygrave;
rightKerningGroup = Y;
unicode = 1EF2;
},
{
glyphname = Yhookabove;
lastChange = "2015-10-24 21:18:08 +0000";
layers = (
{
layerId = "50AE23BC-B42B-4352-B38F-74DD4C968971";
name = Light;
paths = (
{
closed = 1;
nodes = (
"339 0 LINE",
"339 241 LINE",
"569 644 LINE",
"512 644 LINE",
"312 289 LINE",
"112 644 LINE",
"55 644 LINE",
"284 241 LINE",
"284 0 LINE"
);
},
{
closed = 1;
nodes = (
"324 688 LINE",
"324 740 LINE",
"392 747 OFFCURVE",
"414 776 OFFCURVE",
"414 829 CURVE SMOOTH",
"414 885 OFFCURVE",
"374 917 OFFCURVE",
"298 917 CURVE SMOOTH",
"274 917 OFFCURVE",
"239 912 OFFCURVE",
"221 905 CURVE",
"221 867 LINE",
"238 874 OFFCURVE",
"267 879 OFFCURVE",
"288 879 CURVE SMOOTH",
"346 879 OFFCURVE",
"371 862 OFFCURVE",
"371 826 CURVE SMOOTH",
"371 788 OFFCURVE",
"357 771 OFFCURVE",
"277 767 CURVE",
"277 688 LINE"
);
}
);
width = 624;
}
);
leftKerningGroup = Y;
note = Yhookabove;
rightKerningGroup = Y;
unicode = 1EF6;
},
{
glyphname = Ytilde;
lastChange = "2015-10-24 21:18:09 +0000";
layers = (
{
layerId = "50AE23BC-B42B-4352-B38F-74DD4C968971";
name = Light;
paths = (
{
closed = 1;
nodes = (
"339 0 LINE",
"339 241 LINE",
"569 644 LINE",
"512 644 LINE",
"312 289 LINE",
"112 644 LINE",
"55 644 LINE",
"284 241 LINE",
"284 0 LINE"
);
},
{
closed = 1;
nodes = (
"415 713 OFFCURVE",
"441 724 OFFCURVE",
"454 742 CURVE",
"454 789 LINE",
"436 764 OFFCURVE",
"413 754 OFFCURVE",
"381 754 CURVE SMOOTH",
"335 754 OFFCURVE",
"301 791 OFFCURVE",
"249 791 CURVE SMOOTH",
"219 791 OFFCURVE",
"187 780 OFFCURVE",
"171 762 CURVE",
"171 715 LINE",
"193 742 OFFCURVE",
"220 750 OFFCURVE",
"250 750 CURVE SMOOTH",
"290 750 OFFCURVE",
"334 713 OFFCURVE",
"383 713 CURVE SMOOTH"
);
}
);
width = 624;
}
);
leftKerningGroup = Y;
note = Ytilde;
rightKerningGroup = Y;
unicode = 1EF8;
},
{
glyphname = Z;
lastChange = "2015-10-24 21:18:07 +0000";
layers = (
{
layerId = "50AE23BC-B42B-4352-B38F-74DD4C968971";
name = Light;
paths = (
{
closed = 1;
nodes = (
"518 0 LINE",
"518 44 LINE",
"126 44 LINE",
"513 605 LINE",
"513 644 LINE",
"72 644 LINE",
"72 599 LINE",
"445 599 LINE",
"55 34 LINE",
"55 0 LINE"
);
}
);
width = 568;
}
);
leftKerningGroup = Z;
note = Z;
rightKerningGroup = Z;
unicode = 005A;
},
{
glyphname = Zacute;
lastChange = "2015-10-24 21:18:08 +0000";
layers = (
{
layerId = "50AE23BC-B42B-4352-B38F-74DD4C968971";
name = Light;
paths = (
{
closed = 1;
nodes = (
"518 0 LINE",
"518 44 LINE",
"126 44 LINE",
"513 605 LINE",
"513 644 LINE",
"72 644 LINE",
"72 599 LINE",
"445 599 LINE",
"55 34 LINE",
"55 0 LINE"
);
},
{
closed = 1;
nodes = (
"324 688 LINE",
"398 846 LINE",
"346 846 LINE",
"279 688 LINE"
);
}
);
width = 568;
}
);
leftKerningGroup = Z;
note = Zacute;
rightKerningGroup = Z;
unicode = 0179;
},
{
glyphname = Zcaron;
lastChange = "2015-10-24 21:18:08 +0000";
layers = (
{
layerId = "50AE23BC-B42B-4352-B38F-74DD4C968971";
name = Light;
paths = (
{
closed = 1;
nodes = (
"518 0 LINE",
"518 44 LINE",
"126 44 LINE",
"513 605 LINE",
"513 644 LINE",
"72 644 LINE",
"72 599 LINE",
"445 599 LINE",
"55 34 LINE",
"55 0 LINE"
);
},
{
closed = 1;
nodes = (
"331 687 LINE",
"436 822 LINE",
"386 822 LINE",
"307 719 LINE",
"228 822 LINE",
"178 822 LINE",
"283 687 LINE"
);
}
);
width = 568;
}
);
leftKerningGroup = Z;
note = Zcaron;
rightKerningGroup = Z;
unicode = 017D;
},
{
glyphname = Zdotaccent;
lastChange = "2015-10-24 21:18:09 +0000";
layers = (
{
layerId = "50AE23BC-B42B-4352-B38F-74DD4C968971";
name = Light;
paths = (
{
closed = 1;
nodes = (
"518 0 LINE",
"518 44 LINE",
"126 44 LINE",
"513 605 LINE",
"513 644 LINE",
"72 644 LINE",
"72 599 LINE",
"445 599 LINE",
"55 34 LINE",
"55 0 LINE"
);
},
{
closed = 1;
nodes = (
"328 714 LINE",
"328 770 LINE",
"271 770 LINE",
"271 714 LINE"
);
}
);
width = 568;
}
);
leftKerningGroup = Z;
note = Zdotaccent;
rightKerningGroup = Z;
unicode = 017B;
},
{
glyphname = Zdotbelow;
lastChange = "2015-11-24 08:47:53 +0000";
layers = (
{
layerId = "50AE23BC-B42B-4352-B38F-74DD4C968971";
name = Light;
paths = (
{
closed = 1;
nodes = (
"518 0 LINE",
"518 44 LINE",
"126 44 LINE",
"513 605 LINE",
"513 644 LINE",
"72 644 LINE",
"72 599 LINE",
"445 599 LINE",
"55 34 LINE",
"55 0 LINE"
);
},
{
closed = 1;
nodes = (
"320 -152 LINE",
"320 -95 LINE",
"261 -95 LINE",
"261 -152 LINE"
);
}
);
width = 568;
}
);
leftKerningGroup = Z;
note = Zdotbelow;
rightKerningGroup = Z;
unicode = 1E92;
},
{
glyphname = a;
lastChange = "2015-10-24 21:18:09 +0000";
layers = (
{
layerId = "50AE23BC-B42B-4352-B38F-74DD4C968971";
name = Light;
paths = (
{
closed = 1;
nodes = (
"310 -10 OFFCURVE",
"367 12 OFFCURVE",
"411 59 CURVE",
"416 0 LINE",
"461 0 LINE",
"461 314 LINE SMOOTH",
"461 435 OFFCURVE",
"400 484 OFFCURVE",
"270 484 CURVE SMOOTH",
"207 484 OFFCURVE",
"150 474 OFFCURVE",
"109 458 CURVE",
"109 411 LINE",
"154 427 OFFCURVE",
"205 437 OFFCURVE",
"260 437 CURVE SMOOTH",
"381 437 OFFCURVE",
"408 403 OFFCURVE",
"408 313 CURVE SMOOTH",
"408 268 LINE",
"231 268 LINE SMOOTH",
"103 268 OFFCURVE",
"55 210 OFFCURVE",
"55 126 CURVE SMOOTH",
"55 31 OFFCURVE",
"130 -10 OFFCURVE",
"220 -10 CURVE SMOOTH"
);
},
{
closed = 1;
nodes = (
"157 36 OFFCURVE",
"109 60 OFFCURVE",
"109 126 CURVE SMOOTH",
"109 190 OFFCURVE",
"139 224 OFFCURVE",
"233 224 CURVE SMOOTH",
"408 224 LINE",
"408 110 LINE",
"366 61 OFFCURVE",
"310 36 OFFCURVE",
"234 36 CURVE SMOOTH"
);
}
);
width = 531;
}
);
leftKerningGroup = a;
note = a;
rightKerningGroup = a;
unicode = 0061;
},
{
glyphname = aacute;
lastChange = "2015-11-24 08:48:03 +0000";
layers = (
{
layerId = "50AE23BC-B42B-4352-B38F-74DD4C968971";
name = Light;
paths = (
{
closed = 1;
nodes = (
"310 -10 OFFCURVE",
"367 12 OFFCURVE",
"411 59 CURVE",
"416 0 LINE",
"461 0 LINE",
"461 314 LINE SMOOTH",
"461 435 OFFCURVE",
"400 484 OFFCURVE",
"270 484 CURVE SMOOTH",
"207 484 OFFCURVE",
"150 474 OFFCURVE",
"109 458 CURVE",
"109 411 LINE",
"154 427 OFFCURVE",
"205 437 OFFCURVE",
"260 437 CURVE SMOOTH",
"381 437 OFFCURVE",
"408 403 OFFCURVE",
"408 313 CURVE SMOOTH",
"408 268 LINE",
"231 268 LINE SMOOTH",
"103 268 OFFCURVE",
"55 210 OFFCURVE",
"55 126 CURVE SMOOTH",
"55 31 OFFCURVE",
"130 -10 OFFCURVE",
"220 -10 CURVE SMOOTH"
);
},
{
closed = 1;
nodes = (
"157 36 OFFCURVE",
"109 60 OFFCURVE",
"109 126 CURVE SMOOTH",
"109 190 OFFCURVE",
"139 224 OFFCURVE",
"233 224 CURVE SMOOTH",
"408 224 LINE",
"408 110 LINE",
"366 61 OFFCURVE",
"310 36 OFFCURVE",
"234 36 CURVE SMOOTH"
);
},
{
closed = 1;
nodes = (
"297 522 LINE",
"371 680 LINE",
"319 680 LINE",
"252 522 LINE"
);
}
);
width = 531;
}
);
leftKerningGroup = a;
note = aacute;
rightKerningGroup = a;
unicode = 00E1;
},
{
glyphname = abreve;
lastChange = "2015-10-24 21:18:09 +0000";
layers = (
{
layerId = "50AE23BC-B42B-4352-B38F-74DD4C968971";
name = Light;
paths = (
{
closed = 1;
nodes = (
"310 -10 OFFCURVE",
"367 12 OFFCURVE",
"411 59 CURVE",
"416 0 LINE",
"461 0 LINE",
"461 314 LINE SMOOTH",
"461 435 OFFCURVE",
"400 484 OFFCURVE",
"270 484 CURVE SMOOTH",
"207 484 OFFCURVE",
"150 474 OFFCURVE",
"109 458 CURVE",
"109 411 LINE",
"154 427 OFFCURVE",
"205 437 OFFCURVE",
"260 437 CURVE SMOOTH",
"381 437 OFFCURVE",
"408 403 OFFCURVE",
"408 313 CURVE SMOOTH",
"408 268 LINE",
"231 268 LINE SMOOTH",
"103 268 OFFCURVE",
"55 210 OFFCURVE",
"55 126 CURVE SMOOTH",
"55 31 OFFCURVE",
"130 -10 OFFCURVE",
"220 -10 CURVE SMOOTH"
);
},
{
closed = 1;
nodes = (
"157 36 OFFCURVE",
"109 60 OFFCURVE",
"109 126 CURVE SMOOTH",
"109 190 OFFCURVE",
"139 224 OFFCURVE",
"233 224 CURVE SMOOTH",
"408 224 LINE",
"408 110 LINE",
"366 61 OFFCURVE",
"310 36 OFFCURVE",
"234 36 CURVE SMOOTH"
);
},
{
closed = 1;
nodes = (
"354 521 OFFCURVE",
"397 568 OFFCURVE",
"397 632 CURVE",
"355 632 LINE",
"355 586 OFFCURVE",
"327 560 OFFCURVE",
"285 560 CURVE SMOOTH",
"244 560 OFFCURVE",
"216 586 OFFCURVE",
"216 632 CURVE",
"174 632 LINE",
"174 568 OFFCURVE",
"217 521 OFFCURVE",
"285 521 CURVE SMOOTH"
);
}
);
width = 531;
}
);
leftKerningGroup = a;
note = abreve;
rightKerningGroup = a;
unicode = 0103;
},
{
glyphname = abreveacute;
lastChange = "2015-10-24 21:18:08 +0000";
layers = (
{
layerId = "50AE23BC-B42B-4352-B38F-74DD4C968971";
name = Light;
paths = (
{
closed = 1;
nodes = (
"310 -10 OFFCURVE",
"367 12 OFFCURVE",
"411 59 CURVE",
"416 0 LINE",
"461 0 LINE",
"461 314 LINE SMOOTH",
"461 435 OFFCURVE",
"400 484 OFFCURVE",
"270 484 CURVE SMOOTH",
"207 484 OFFCURVE",
"150 474 OFFCURVE",
"109 458 CURVE",
"109 411 LINE",
"154 427 OFFCURVE",
"205 437 OFFCURVE",
"260 437 CURVE SMOOTH",
"381 437 OFFCURVE",
"408 403 OFFCURVE",
"408 313 CURVE SMOOTH",
"408 268 LINE",
"231 268 LINE SMOOTH",
"103 268 OFFCURVE",
"55 210 OFFCURVE",
"55 126 CURVE SMOOTH",
"55 31 OFFCURVE",
"130 -10 OFFCURVE",
"220 -10 CURVE SMOOTH"
);
},
{
closed = 1;
nodes = (
"157 36 OFFCURVE",
"109 60 OFFCURVE",
"109 126 CURVE SMOOTH",
"109 190 OFFCURVE",
"139 224 OFFCURVE",
"233 224 CURVE SMOOTH",
"408 224 LINE",
"408 110 LINE",
"366 61 OFFCURVE",
"310 36 OFFCURVE",
"234 36 CURVE SMOOTH"
);
},
{
closed = 1;
nodes = (
"361 522 OFFCURVE",
"426 557 OFFCURVE",
"426 654 CURVE",
"388 654 LINE",
"388 588 OFFCURVE",
"347 558 OFFCURVE",
"288 558 CURVE SMOOTH",
"229 558 OFFCURVE",
"188 588 OFFCURVE",
"188 654 CURVE",
"149 654 LINE",
"149 557 OFFCURVE",
"215 522 OFFCURVE",
"288 522 CURVE SMOOTH"
);
},
{
closed = 1;
nodes = (
"297 620 LINE",
"363 737 LINE",
"316 737 LINE",
"256 620 LINE"
);
}
);
width = 531;
}
);
leftKerningGroup = a;
note = abreveacute;
rightKerningGroup = a;
unicode = 1EAF;
},
{
glyphname = abrevedotbelow;
lastChange = "2015-11-24 08:48:17 +0000";
layers = (
{
layerId = "50AE23BC-B42B-4352-B38F-74DD4C968971";
name = Light;
paths = (
{
closed = 1;
nodes = (
"310 -10 OFFCURVE",
"367 12 OFFCURVE",
"411 59 CURVE",
"416 0 LINE",
"461 0 LINE",
"461 314 LINE SMOOTH",
"461 435 OFFCURVE",
"400 484 OFFCURVE",
"270 484 CURVE SMOOTH",
"207 484 OFFCURVE",
"150 474 OFFCURVE",
"109 458 CURVE",
"109 411 LINE",
"154 427 OFFCURVE",
"205 437 OFFCURVE",
"260 437 CURVE SMOOTH",
"381 437 OFFCURVE",
"408 403 OFFCURVE",
"408 313 CURVE SMOOTH",
"408 268 LINE",
"231 268 LINE SMOOTH",
"103 268 OFFCURVE",
"55 210 OFFCURVE",
"55 126 CURVE SMOOTH",
"55 31 OFFCURVE",
"130 -10 OFFCURVE",
"220 -10 CURVE SMOOTH"
);
},
{
closed = 1;
nodes = (
"157 36 OFFCURVE",
"109 60 OFFCURVE",
"109 126 CURVE SMOOTH",
"109 190 OFFCURVE",
"139 224 OFFCURVE",
"233 224 CURVE SMOOTH",
"408 224 LINE",
"408 110 LINE",
"366 61 OFFCURVE",
"310 36 OFFCURVE",
"234 36 CURVE SMOOTH"
);
},
{
closed = 1;
nodes = (
"310 -152 LINE",
"310 -95 LINE",
"251 -95 LINE",
"251 -152 LINE"
);
},
{
closed = 1;
nodes = (
"348 521 OFFCURVE",
"391 568 OFFCURVE",
"391 632 CURVE",
"349 632 LINE",
"349 586 OFFCURVE",
"321 560 OFFCURVE",
"279 560 CURVE SMOOTH",
"238 560 OFFCURVE",
"210 586 OFFCURVE",
"210 632 CURVE",
"168 632 LINE",
"168 568 OFFCURVE",
"211 521 OFFCURVE",
"279 521 CURVE SMOOTH"
);
}
);
width = 531;
}
);
leftKerningGroup = a;
note = abrevedotbelow;
rightKerningGroup = a;
unicode = 1EB7;
},
{
glyphname = abrevegrave;
lastChange = "2015-11-24 08:48:35 +0000";
layers = (
{
layerId = "50AE23BC-B42B-4352-B38F-74DD4C968971";
name = Light;
paths = (
{
closed = 1;
nodes = (
"310 -10 OFFCURVE",
"367 12 OFFCURVE",
"411 59 CURVE",
"416 0 LINE",
"461 0 LINE",
"461 314 LINE SMOOTH",
"461 435 OFFCURVE",
"400 484 OFFCURVE",
"270 484 CURVE SMOOTH",
"207 484 OFFCURVE",
"150 474 OFFCURVE",
"109 458 CURVE",
"109 411 LINE",
"154 427 OFFCURVE",
"205 437 OFFCURVE",
"260 437 CURVE SMOOTH",
"381 437 OFFCURVE",
"408 403 OFFCURVE",
"408 313 CURVE SMOOTH",
"408 268 LINE",
"231 268 LINE SMOOTH",
"103 268 OFFCURVE",
"55 210 OFFCURVE",
"55 126 CURVE SMOOTH",
"55 31 OFFCURVE",
"130 -10 OFFCURVE",
"220 -10 CURVE SMOOTH"
);
},
{
closed = 1;
nodes = (
"157 36 OFFCURVE",
"109 60 OFFCURVE",
"109 126 CURVE SMOOTH",
"109 190 OFFCURVE",
"139 224 OFFCURVE",
"233 224 CURVE SMOOTH",
"408 224 LINE",
"408 110 LINE",
"366 61 OFFCURVE",
"310 36 OFFCURVE",
"234 36 CURVE SMOOTH"
);
},
{
closed = 1;
nodes = (
"352 522 OFFCURVE",
"417 557 OFFCURVE",
"417 654 CURVE",
"379 654 LINE",
"379 588 OFFCURVE",
"338 558 OFFCURVE",
"279 558 CURVE SMOOTH",
"220 558 OFFCURVE",
"179 588 OFFCURVE",
"179 654 CURVE",
"140 654 LINE",
"140 557 OFFCURVE",
"206 522 OFFCURVE",
"279 522 CURVE SMOOTH"
);
},
{
closed = 1;
nodes = (
"310 620 LINE",
"251 737 LINE",
"204 737 LINE",
"270 620 LINE"
);
}
);
width = 531;
}
);
leftKerningGroup = a;
note = abrevegrave;
rightKerningGroup = a;
unicode = 1EB1;
},
{
glyphname = abrevehookabove;
lastChange = "2015-11-24 08:48:30 +0000";
layers = (
{
layerId = "50AE23BC-B42B-4352-B38F-74DD4C968971";
name = Light;
paths = (
{
closed = 1;
nodes = (
"310 -10 OFFCURVE",
"367 12 OFFCURVE",
"411 59 CURVE",
"416 0 LINE",
"461 0 LINE",
"461 314 LINE SMOOTH",
"461 435 OFFCURVE",
"400 484 OFFCURVE",
"270 484 CURVE SMOOTH",
"207 484 OFFCURVE",
"150 474 OFFCURVE",
"109 458 CURVE",
"109 411 LINE",
"154 427 OFFCURVE",
"205 437 OFFCURVE",
"260 437 CURVE SMOOTH",
"381 437 OFFCURVE",
"408 403 OFFCURVE",
"408 313 CURVE SMOOTH",
"408 268 LINE",
"231 268 LINE SMOOTH",
"103 268 OFFCURVE",
"55 210 OFFCURVE",
"55 126 CURVE SMOOTH",
"55 31 OFFCURVE",
"130 -10 OFFCURVE",
"220 -10 CURVE SMOOTH"
);
},
{
closed = 1;
nodes = (
"157 36 OFFCURVE",
"109 60 OFFCURVE",
"109 126 CURVE SMOOTH",
"109 190 OFFCURVE",
"139 224 OFFCURVE",
"233 224 CURVE SMOOTH",
"408 224 LINE",
"408 110 LINE",
"366 61 OFFCURVE",
"310 36 OFFCURVE",
"234 36 CURVE SMOOTH"
);
},
{
closed = 1;
nodes = (
"352 522 OFFCURVE",
"417 557 OFFCURVE",
"417 654 CURVE",
"379 654 LINE",
"379 588 OFFCURVE",
"338 558 OFFCURVE",
"279 558 CURVE SMOOTH",
"220 558 OFFCURVE",
"179 588 OFFCURVE",
"179 654 CURVE",
"140 654 LINE",
"140 557 OFFCURVE",
"206 522 OFFCURVE",
"279 522 CURVE SMOOTH"
);
},
{
closed = 1;
nodes = (
"288 610 LINE",
"288 645 LINE",
"345 653 OFFCURVE",
"368 674 OFFCURVE",
"368 717 CURVE SMOOTH",
"368 762 OFFCURVE",
"336 788 OFFCURVE",
"281 788 CURVE SMOOTH",
"255 788 OFFCURVE",
"232 783 OFFCURVE",
"214 776 CURVE",
"214 743 LINE",
"232 751 OFFCURVE",
"250 756 OFFCURVE",
"273 756 CURVE SMOOTH",
"310 756 OFFCURVE",
"327 742 OFFCURVE",
"327 714 CURVE SMOOTH",
"327 685 OFFCURVE",
"313 670 OFFCURVE",
"244 667 CURVE",
"244 610 LINE"
);
}
);
width = 531;
}
);
leftKerningGroup = a;
note = abrevehookabove;
rightKerningGroup = a;
unicode = 1EB3;
},
{
glyphname = abrevetilde;
lastChange = "2015-11-24 08:48:25 +0000";
layers = (
{
layerId = "50AE23BC-B42B-4352-B38F-74DD4C968971";
name = Light;
paths = (
{
closed = 1;
nodes = (
"310 -10 OFFCURVE",
"367 12 OFFCURVE",
"411 59 CURVE",
"416 0 LINE",
"461 0 LINE",
"461 314 LINE SMOOTH",
"461 435 OFFCURVE",
"400 484 OFFCURVE",
"270 484 CURVE SMOOTH",
"207 484 OFFCURVE",
"150 474 OFFCURVE",
"109 458 CURVE",
"109 411 LINE",
"154 427 OFFCURVE",
"205 437 OFFCURVE",
"260 437 CURVE SMOOTH",
"381 437 OFFCURVE",
"408 403 OFFCURVE",
"408 313 CURVE SMOOTH",
"408 268 LINE",
"231 268 LINE SMOOTH",
"103 268 OFFCURVE",
"55 210 OFFCURVE",
"55 126 CURVE SMOOTH",
"55 31 OFFCURVE",
"130 -10 OFFCURVE",
"220 -10 CURVE SMOOTH"
);
},
{
closed = 1;
nodes = (
"157 36 OFFCURVE",
"109 60 OFFCURVE",
"109 126 CURVE SMOOTH",
"109 190 OFFCURVE",
"139 224 OFFCURVE",
"233 224 CURVE SMOOTH",
"408 224 LINE",
"408 110 LINE",
"366 61 OFFCURVE",
"310 36 OFFCURVE",
"234 36 CURVE SMOOTH"
);
},
{
closed = 1;
nodes = (
"353 522 OFFCURVE",
"418 557 OFFCURVE",
"418 654 CURVE",
"380 654 LINE",
"380 588 OFFCURVE",
"339 558 OFFCURVE",
"280 558 CURVE SMOOTH",
"221 558 OFFCURVE",
"180 588 OFFCURVE",
"180 654 CURVE",
"141 654 LINE",
"141 557 OFFCURVE",
"207 522 OFFCURVE",
"280 522 CURVE SMOOTH"
);
},
{
closed = 1;
nodes = (
"372 682 OFFCURVE",
"399 692 OFFCURVE",
"413 709 CURVE",
"413 753 LINE",
"393 728 OFFCURVE",
"370 720 OFFCURVE",
"341 720 CURVE SMOOTH",
"297 720 OFFCURVE",
"269 754 OFFCURVE",
"219 754 CURVE SMOOTH",
"191 754 OFFCURVE",
"162 744 OFFCURVE",
"146 727 CURVE",
"146 684 LINE",
"168 709 OFFCURVE",
"192 716 OFFCURVE",
"221 716 CURVE SMOOTH",
"259 716 OFFCURVE",
"295 682 OFFCURVE",
"342 682 CURVE SMOOTH"
);
}
);
width = 531;
}
);
leftKerningGroup = a;
note = abrevetilde;
rightKerningGroup = a;
unicode = 1EB5;
},
{
glyphname = acaron;
lastChange = "2015-10-24 21:18:09 +0000";
layers = (
{
layerId = "50AE23BC-B42B-4352-B38F-74DD4C968971";
name = Light;
paths = (
{
closed = 1;
nodes = (
"310 -10 OFFCURVE",
"367 12 OFFCURVE",
"411 59 CURVE",
"416 0 LINE",
"461 0 LINE",
"461 314 LINE SMOOTH",
"461 435 OFFCURVE",
"400 484 OFFCURVE",
"270 484 CURVE SMOOTH",
"207 484 OFFCURVE",
"150 474 OFFCURVE",
"109 458 CURVE",
"109 411 LINE",
"154 427 OFFCURVE",
"205 437 OFFCURVE",
"260 437 CURVE SMOOTH",
"381 437 OFFCURVE",
"408 403 OFFCURVE",
"408 313 CURVE SMOOTH",
"408 268 LINE",
"231 268 LINE SMOOTH",
"103 268 OFFCURVE",
"55 210 OFFCURVE",
"55 126 CURVE SMOOTH",
"55 31 OFFCURVE",
"130 -10 OFFCURVE",
"220 -10 CURVE SMOOTH"
);
},
{
closed = 1;
nodes = (
"157 36 OFFCURVE",
"109 60 OFFCURVE",
"109 126 CURVE SMOOTH",
"109 190 OFFCURVE",
"139 224 OFFCURVE",
"233 224 CURVE SMOOTH",
"408 224 LINE",
"408 110 LINE",
"366 61 OFFCURVE",
"310 36 OFFCURVE",
"234 36 CURVE SMOOTH"
);
},
{
closed = 1;
nodes = (
"300 521 LINE",
"405 656 LINE",
"355 656 LINE",
"276 553 LINE",
"197 656 LINE",
"147 656 LINE",
"252 521 LINE"
);
}
);
width = 531;
}
);
leftKerningGroup = a;
note = acaron;
rightKerningGroup = a;
unicode = 01CE;
},
{
glyphname = acircumflex;
lastChange = "2015-10-24 21:18:09 +0000";
layers = (
{
layerId = "50AE23BC-B42B-4352-B38F-74DD4C968971";
name = Light;
paths = (
{
closed = 1;
nodes = (
"310 -10 OFFCURVE",
"367 12 OFFCURVE",
"411 59 CURVE",
"416 0 LINE",
"461 0 LINE",
"461 314 LINE SMOOTH",
"461 435 OFFCURVE",
"400 484 OFFCURVE",
"270 484 CURVE SMOOTH",
"207 484 OFFCURVE",
"150 474 OFFCURVE",
"109 458 CURVE",
"109 411 LINE",
"154 427 OFFCURVE",
"205 437 OFFCURVE",
"260 437 CURVE SMOOTH",
"381 437 OFFCURVE",
"408 403 OFFCURVE",
"408 313 CURVE SMOOTH",
"408 268 LINE",
"231 268 LINE SMOOTH",
"103 268 OFFCURVE",
"55 210 OFFCURVE",
"55 126 CURVE SMOOTH",
"55 31 OFFCURVE",
"130 -10 OFFCURVE",
"220 -10 CURVE SMOOTH"
);
},
{
closed = 1;
nodes = (
"157 36 OFFCURVE",
"109 60 OFFCURVE",
"109 126 CURVE SMOOTH",
"109 190 OFFCURVE",
"139 224 OFFCURVE",
"233 224 CURVE SMOOTH",
"408 224 LINE",
"408 110 LINE",
"366 61 OFFCURVE",
"310 36 OFFCURVE",
"234 36 CURVE SMOOTH"
);
},
{
closed = 1;
nodes = (
"199 521 LINE",
"278 624 LINE",
"357 521 LINE",
"407 521 LINE",
"302 656 LINE",
"254 656 LINE",
"149 521 LINE"
);
}
);
width = 531;
}
);
leftKerningGroup = a;
note = acircumflex;
rightKerningGroup = a;
unicode = 00E2;
},
{
glyphname = acircumflexacute;
lastChange = "2015-11-24 08:48:44 +0000";
layers = (
{
layerId = "50AE23BC-B42B-4352-B38F-74DD4C968971";
name = Light;
paths = (
{
closed = 1;
nodes = (
"310 -10 OFFCURVE",
"367 12 OFFCURVE",
"411 59 CURVE",
"416 0 LINE",
"461 0 LINE",
"461 314 LINE SMOOTH",
"461 435 OFFCURVE",
"400 484 OFFCURVE",
"270 484 CURVE SMOOTH",
"207 484 OFFCURVE",
"150 474 OFFCURVE",
"109 458 CURVE",
"109 411 LINE",
"154 427 OFFCURVE",
"205 437 OFFCURVE",
"260 437 CURVE SMOOTH",
"381 437 OFFCURVE",
"408 403 OFFCURVE",
"408 313 CURVE SMOOTH",
"408 268 LINE",
"231 268 LINE SMOOTH",
"103 268 OFFCURVE",
"55 210 OFFCURVE",
"55 126 CURVE SMOOTH",
"55 31 OFFCURVE",
"130 -10 OFFCURVE",
"220 -10 CURVE SMOOTH"
);
},
{
closed = 1;
nodes = (
"157 36 OFFCURVE",
"109 60 OFFCURVE",
"109 126 CURVE SMOOTH",
"109 190 OFFCURVE",
"139 224 OFFCURVE",
"233 224 CURVE SMOOTH",
"408 224 LINE",
"408 110 LINE",
"366 61 OFFCURVE",
"310 36 OFFCURVE",
"234 36 CURVE SMOOTH"
);
},
{
closed = 1;
nodes = (
"203 521 LINE",
"281 606 LINE",
"359 521 LINE",
"408 521 LINE",
"305 631 LINE",
"257 631 LINE",
"154 521 LINE"
);
},
{
closed = 1;
nodes = (
"391 627 LINE",
"457 744 LINE",
"410 744 LINE",
"350 627 LINE"
);
}
);
width = 531;
}
);
leftKerningGroup = a;
note = acircumflexacute;
rightKerningGroup = a;
unicode = 1EA5;
},
{
glyphname = acircumflexdotbelow;
lastChange = "2015-11-24 08:48:52 +0000";
layers = (
{
layerId = "50AE23BC-B42B-4352-B38F-74DD4C968971";
name = Light;
paths = (
{
closed = 1;
nodes = (
"310 -10 OFFCURVE",
"367 12 OFFCURVE",
"411 59 CURVE",
"416 0 LINE",
"461 0 LINE",
"461 314 LINE SMOOTH",
"461 435 OFFCURVE",
"400 484 OFFCURVE",
"270 484 CURVE SMOOTH",
"207 484 OFFCURVE",
"150 474 OFFCURVE",
"109 458 CURVE",
"109 411 LINE",
"154 427 OFFCURVE",
"205 437 OFFCURVE",
"260 437 CURVE SMOOTH",
"381 437 OFFCURVE",
"408 403 OFFCURVE",
"408 313 CURVE SMOOTH",
"408 268 LINE",
"231 268 LINE SMOOTH",
"103 268 OFFCURVE",
"55 210 OFFCURVE",
"55 126 CURVE SMOOTH",
"55 31 OFFCURVE",
"130 -10 OFFCURVE",
"220 -10 CURVE SMOOTH"
);
},
{
closed = 1;
nodes = (
"157 36 OFFCURVE",
"109 60 OFFCURVE",
"109 126 CURVE SMOOTH",
"109 190 OFFCURVE",
"139 224 OFFCURVE",
"233 224 CURVE SMOOTH",
"408 224 LINE",
"408 110 LINE",
"366 61 OFFCURVE",
"310 36 OFFCURVE",
"234 36 CURVE SMOOTH"
);
},
{
closed = 1;
nodes = (
"306 -152 LINE",
"306 -95 LINE",
"247 -95 LINE",
"247 -152 LINE"
);
},
{
closed = 1;
nodes = (
"197 521 LINE",
"276 624 LINE",
"355 521 LINE",
"405 521 LINE",
"300 656 LINE",
"252 656 LINE",
"147 521 LINE"
);
}
);
width = 531;
}
);
leftKerningGroup = a;
note = acircumflexdotbelow;
rightKerningGroup = a;
unicode = 1EAD;
},
{
glyphname = acircumflexgrave;
lastChange = "2015-10-24 21:18:09 +0000";
layers = (
{
layerId = "50AE23BC-B42B-4352-B38F-74DD4C968971";
name = Light;
paths = (
{
closed = 1;
nodes = (
"310 -10 OFFCURVE",
"367 12 OFFCURVE",
"411 59 CURVE",
"416 0 LINE",
"461 0 LINE",
"461 314 LINE SMOOTH",
"461 435 OFFCURVE",
"400 484 OFFCURVE",
"270 484 CURVE SMOOTH",
"207 484 OFFCURVE",
"150 474 OFFCURVE",
"109 458 CURVE",
"109 411 LINE",
"154 427 OFFCURVE",
"205 437 OFFCURVE",
"260 437 CURVE SMOOTH",
"381 437 OFFCURVE",
"408 403 OFFCURVE",
"408 313 CURVE SMOOTH",
"408 268 LINE",
"231 268 LINE SMOOTH",
"103 268 OFFCURVE",
"55 210 OFFCURVE",
"55 126 CURVE SMOOTH",
"55 31 OFFCURVE",
"130 -10 OFFCURVE",
"220 -10 CURVE SMOOTH"
);
},
{
closed = 1;
nodes = (
"157 36 OFFCURVE",
"109 60 OFFCURVE",
"109 126 CURVE SMOOTH",
"109 190 OFFCURVE",
"139 224 OFFCURVE",
"233 224 CURVE SMOOTH",
"408 224 LINE",
"408 110 LINE",
"366 61 OFFCURVE",
"310 36 OFFCURVE",
"234 36 CURVE SMOOTH"
);
},
{
closed = 1;
nodes = (
"203 627 LINE",
"144 744 LINE",
"97 744 LINE",
"163 627 LINE"
);
},
{
closed = 1;
nodes = (
"195 521 LINE",
"273 606 LINE",
"350 521 LINE",
"400 521 LINE",
"297 631 LINE",
"249 631 LINE",
"146 521 LINE"
);
}
);
width = 531;
}
);
leftKerningGroup = a;
note = acircumflexgrave;
rightKerningGroup = a;
unicode = 1EA7;
},
{
glyphname = acircumflexhookabove;
lastChange = "2015-11-24 08:49:06 +0000";
layers = (
{
layerId = "50AE23BC-B42B-4352-B38F-74DD4C968971";
name = Light;
paths = (
{
closed = 1;
nodes = (
"310 -10 OFFCURVE",
"367 12 OFFCURVE",
"411 59 CURVE",
"416 0 LINE",
"461 0 LINE",
"461 314 LINE SMOOTH",
"461 435 OFFCURVE",
"400 484 OFFCURVE",
"270 484 CURVE SMOOTH",
"207 484 OFFCURVE",
"150 474 OFFCURVE",
"109 458 CURVE",
"109 411 LINE",
"154 427 OFFCURVE",
"205 437 OFFCURVE",
"260 437 CURVE SMOOTH",
"381 437 OFFCURVE",
"408 403 OFFCURVE",
"408 313 CURVE SMOOTH",
"408 268 LINE",
"231 268 LINE SMOOTH",
"103 268 OFFCURVE",
"55 210 OFFCURVE",
"55 126 CURVE SMOOTH",
"55 31 OFFCURVE",
"130 -10 OFFCURVE",
"220 -10 CURVE SMOOTH"
);
},
{
closed = 1;
nodes = (
"157 36 OFFCURVE",
"109 60 OFFCURVE",
"109 126 CURVE SMOOTH",
"109 190 OFFCURVE",
"139 224 OFFCURVE",
"233 224 CURVE SMOOTH",
"408 224 LINE",
"408 110 LINE",
"366 61 OFFCURVE",
"310 36 OFFCURVE",
"234 36 CURVE SMOOTH"
);
},
{
closed = 1;
nodes = (
"197 521 LINE",
"274 606 LINE",
"352 521 LINE",
"401 521 LINE",
"298 631 LINE",
"250 631 LINE",
"147 521 LINE"
);
},
{
closed = 1;
nodes = (
"396 606 LINE",
"396 642 LINE",
"452 648 OFFCURVE",
"476 671 OFFCURVE",
"476 713 CURVE SMOOTH",
"476 759 OFFCURVE",
"443 785 OFFCURVE",
"388 785 CURVE SMOOTH",
"361 785 OFFCURVE",
"339 780 OFFCURVE",
"322 773 CURVE",
"322 739 LINE",
"339 747 OFFCURVE",
"357 752 OFFCURVE",
"381 752 CURVE SMOOTH",
"417 752 OFFCURVE",
"434 738 OFFCURVE",
"434 711 CURVE SMOOTH",
"434 683 OFFCURVE",
"421 669 OFFCURVE",
"351 665 CURVE",
"351 606 LINE"
);
}
);
width = 531;
}
);
leftKerningGroup = a;
note = acircumflexhookabove;
rightKerningGroup = a;
unicode = 1EA9;
},
{
glyphname = acircumflextilde;
lastChange = "2015-10-24 21:18:09 +0000";
layers = (
{
layerId = "50AE23BC-B42B-4352-B38F-74DD4C968971";
name = Light;
paths = (
{
closed = 1;
nodes = (
"310 -10 OFFCURVE",
"367 12 OFFCURVE",
"411 59 CURVE",
"416 0 LINE",
"461 0 LINE",
"461 314 LINE SMOOTH",
"461 435 OFFCURVE",
"400 484 OFFCURVE",
"270 484 CURVE SMOOTH",
"207 484 OFFCURVE",
"150 474 OFFCURVE",
"109 458 CURVE",
"109 411 LINE",
"154 427 OFFCURVE",
"205 437 OFFCURVE",
"260 437 CURVE SMOOTH",
"381 437 OFFCURVE",
"408 403 OFFCURVE",
"408 313 CURVE SMOOTH",
"408 268 LINE",
"231 268 LINE SMOOTH",
"103 268 OFFCURVE",
"55 210 OFFCURVE",
"55 126 CURVE SMOOTH",
"55 31 OFFCURVE",
"130 -10 OFFCURVE",
"220 -10 CURVE SMOOTH"
);
},
{
closed = 1;
nodes = (
"157 36 OFFCURVE",
"109 60 OFFCURVE",
"109 126 CURVE SMOOTH",
"109 190 OFFCURVE",
"139 224 OFFCURVE",
"233 224 CURVE SMOOTH",
"408 224 LINE",
"408 110 LINE",
"366 61 OFFCURVE",
"310 36 OFFCURVE",
"234 36 CURVE SMOOTH"
);
},
{
closed = 1;
nodes = (
"203 521 LINE",
"280 606 LINE",
"358 521 LINE",
"407 521 LINE",
"304 631 LINE",
"256 631 LINE",
"153 521 LINE"
);
},
{
closed = 1;
nodes = (
"375 639 OFFCURVE",
"402 649 OFFCURVE",
"416 665 CURVE",
"416 709 LINE",
"396 685 OFFCURVE",
"373 677 OFFCURVE",
"344 677 CURVE SMOOTH",
"300 677 OFFCURVE",
"272 710 OFFCURVE",
"222 710 CURVE SMOOTH",
"194 710 OFFCURVE",
"165 700 OFFCURVE",
"149 684 CURVE",
"149 640 LINE",
"171 665 OFFCURVE",
"195 672 OFFCURVE",
"224 672 CURVE SMOOTH",
"262 672 OFFCURVE",
"298 639 OFFCURVE",
"345 639 CURVE SMOOTH"
);
}
);
width = 531;
}
);
leftKerningGroup = a;
note = acircumflextilde;
rightKerningGroup = a;
unicode = 1EAB;
},
{
glyphname = adieresis;
lastChange = "2015-10-24 21:18:08 +0000";
layers = (
{
layerId = "50AE23BC-B42B-4352-B38F-74DD4C968971";
name = Light;
paths = (
{
closed = 1;
nodes = (
"310 -10 OFFCURVE",
"367 12 OFFCURVE",
"411 59 CURVE",
"416 0 LINE",
"461 0 LINE",
"461 314 LINE SMOOTH",
"461 435 OFFCURVE",
"400 484 OFFCURVE",
"270 484 CURVE SMOOTH",
"207 484 OFFCURVE",
"150 474 OFFCURVE",
"109 458 CURVE",
"109 411 LINE",
"154 427 OFFCURVE",
"205 437 OFFCURVE",
"260 437 CURVE SMOOTH",
"381 437 OFFCURVE",
"408 403 OFFCURVE",
"408 313 CURVE SMOOTH",
"408 268 LINE",
"231 268 LINE SMOOTH",
"103 268 OFFCURVE",
"55 210 OFFCURVE",
"55 126 CURVE SMOOTH",
"55 31 OFFCURVE",
"130 -10 OFFCURVE",
"220 -10 CURVE SMOOTH"
);
},
{
closed = 1;
nodes = (
"157 36 OFFCURVE",
"109 60 OFFCURVE",
"109 126 CURVE SMOOTH",
"109 190 OFFCURVE",
"139 224 OFFCURVE",
"233 224 CURVE SMOOTH",
"408 224 LINE",
"408 110 LINE",
"366 61 OFFCURVE",
"310 36 OFFCURVE",
"234 36 CURVE SMOOTH"
);
},
{
closed = 1;
nodes = (
"228 548 LINE",
"228 603 LINE",
"171 603 LINE",
"171 548 LINE"
);
},
{
closed = 1;
nodes = (
"394 548 LINE",
"394 603 LINE",
"338 603 LINE",
"338 548 LINE"
);
}
);
width = 531;
}
);
leftKerningGroup = a;
note = adieresis;
rightKerningGroup = a;
unicode = 00E4;
},
{
glyphname = adotbelow;
lastChange = "2015-11-24 08:49:13 +0000";
layers = (
{
layerId = "50AE23BC-B42B-4352-B38F-74DD4C968971";
name = Light;
paths = (
{
closed = 1;
nodes = (
"310 -10 OFFCURVE",
"367 12 OFFCURVE",
"411 59 CURVE",
"416 0 LINE",
"461 0 LINE",
"461 314 LINE SMOOTH",
"461 435 OFFCURVE",
"400 484 OFFCURVE",
"270 484 CURVE SMOOTH",
"207 484 OFFCURVE",
"150 474 OFFCURVE",
"109 458 CURVE",
"109 411 LINE",
"154 427 OFFCURVE",
"205 437 OFFCURVE",
"260 437 CURVE SMOOTH",
"381 437 OFFCURVE",
"408 403 OFFCURVE",
"408 313 CURVE SMOOTH",
"408 268 LINE",
"231 268 LINE SMOOTH",
"103 268 OFFCURVE",
"55 210 OFFCURVE",
"55 126 CURVE SMOOTH",
"55 31 OFFCURVE",
"130 -10 OFFCURVE",
"220 -10 CURVE SMOOTH"
);
},
{
closed = 1;
nodes = (
"157 36 OFFCURVE",
"109 60 OFFCURVE",
"109 126 CURVE SMOOTH",
"109 190 OFFCURVE",
"139 224 OFFCURVE",
"233 224 CURVE SMOOTH",
"408 224 LINE",
"408 110 LINE",
"366 61 OFFCURVE",
"310 36 OFFCURVE",
"234 36 CURVE SMOOTH"
);
},
{
closed = 1;
nodes = (
"308 -152 LINE",
"308 -95 LINE",
"249 -95 LINE",
"249 -152 LINE"
);
}
);
width = 531;
}
);
leftKerningGroup = a;
note = adotbelow;
rightKerningGroup = a;
unicode = 1EA1;
},
{
glyphname = agrave;
lastChange = "2015-10-24 21:18:09 +0000";
layers = (
{
layerId = "50AE23BC-B42B-4352-B38F-74DD4C968971";
name = Light;
paths = (
{
closed = 1;
nodes = (
"310 -10 OFFCURVE",
"367 12 OFFCURVE",
"411 59 CURVE",
"416 0 LINE",
"461 0 LINE",
"461 314 LINE SMOOTH",
"461 435 OFFCURVE",
"400 484 OFFCURVE",
"270 484 CURVE SMOOTH",
"207 484 OFFCURVE",
"150 474 OFFCURVE",
"109 458 CURVE",
"109 411 LINE",
"154 427 OFFCURVE",
"205 437 OFFCURVE",
"260 437 CURVE SMOOTH",
"381 437 OFFCURVE",
"408 403 OFFCURVE",
"408 313 CURVE SMOOTH",
"408 268 LINE",
"231 268 LINE SMOOTH",
"103 268 OFFCURVE",
"55 210 OFFCURVE",
"55 126 CURVE SMOOTH",
"55 31 OFFCURVE",
"130 -10 OFFCURVE",
"220 -10 CURVE SMOOTH"
);
},
{
closed = 1;
nodes = (
"157 36 OFFCURVE",
"109 60 OFFCURVE",
"109 126 CURVE SMOOTH",
"109 190 OFFCURVE",
"139 224 OFFCURVE",
"233 224 CURVE SMOOTH",
"408 224 LINE",
"408 110 LINE",
"366 61 OFFCURVE",
"310 36 OFFCURVE",
"234 36 CURVE SMOOTH"
);
},
{
closed = 1;
nodes = (
"313 522 LINE",
"246 680 LINE",
"194 680 LINE",
"268 522 LINE"
);
}
);
width = 531;
}
);
leftKerningGroup = a;
note = agrave;
rightKerningGroup = a;
unicode = 00E0;
},
{
glyphname = ahookabove;
lastChange = "2015-10-24 21:18:08 +0000";
layers = (
{
layerId = "50AE23BC-B42B-4352-B38F-74DD4C968971";
name = Light;
paths = (
{
closed = 1;
nodes = (
"310 -10 OFFCURVE",
"367 12 OFFCURVE",
"411 59 CURVE",
"416 0 LINE",
"461 0 LINE",
"461 314 LINE SMOOTH",
"461 435 OFFCURVE",
"400 484 OFFCURVE",
"270 484 CURVE SMOOTH",
"207 484 OFFCURVE",
"150 474 OFFCURVE",
"109 458 CURVE",
"109 411 LINE",
"154 427 OFFCURVE",
"205 437 OFFCURVE",
"260 437 CURVE SMOOTH",
"381 437 OFFCURVE",
"408 403 OFFCURVE",
"408 313 CURVE SMOOTH",
"408 268 LINE",
"231 268 LINE SMOOTH",
"103 268 OFFCURVE",
"55 210 OFFCURVE",
"55 126 CURVE SMOOTH",
"55 31 OFFCURVE",
"130 -10 OFFCURVE",
"220 -10 CURVE SMOOTH"
);
},
{
closed = 1;
nodes = (
"157 36 OFFCURVE",
"109 60 OFFCURVE",
"109 126 CURVE SMOOTH",
"109 190 OFFCURVE",
"139 224 OFFCURVE",
"233 224 CURVE SMOOTH",
"408 224 LINE",
"408 110 LINE",
"366 61 OFFCURVE",
"310 36 OFFCURVE",
"234 36 CURVE SMOOTH"
);
},
{
closed = 1;
nodes = (
"293 517 LINE",
"293 569 LINE",
"361 576 OFFCURVE",
"383 605 OFFCURVE",
"383 658 CURVE SMOOTH",
"383 714 OFFCURVE",
"343 746 OFFCURVE",
"267 746 CURVE SMOOTH",
"243 746 OFFCURVE",
"208 741 OFFCURVE",
"190 734 CURVE",
"190 696 LINE",
"207 703 OFFCURVE",
"236 708 OFFCURVE",
"257 708 CURVE SMOOTH",
"315 708 OFFCURVE",
"340 691 OFFCURVE",
"340 655 CURVE SMOOTH",
"340 617 OFFCURVE",
"326 600 OFFCURVE",
"246 596 CURVE",
"246 517 LINE"
);
}
);
width = 531;
}
);
leftKerningGroup = a;
note = ahookabove;
rightKerningGroup = a;
unicode = 1EA3;
},
{
glyphname = "alpha-latin";
lastChange = "2015-10-24 21:18:09 +0000";
layers = (
{
layerId = "50AE23BC-B42B-4352-B38F-74DD4C968971";
name = Light;
paths = (
{
closed = 1;
nodes = (
"340 -10 OFFCURVE",
"392 10 OFFCURVE",
"438 53 CURVE",
"443 0 LINE",
"489 0 LINE",
"489 474 LINE",
"434 474 LINE",
"434 434 LINE",
"386 470 OFFCURVE",
"343 484 OFFCURVE",
"277 484 CURVE SMOOTH",
"148 484 OFFCURVE",
"55 393 OFFCURVE",
"55 221 CURVE SMOOTH",
"55 48 OFFCURVE",
"142 -10 OFFCURVE",
"267 -10 CURVE SMOOTH"
);
},
{
closed = 1;
nodes = (
"164 35 OFFCURVE",
"109 86 OFFCURVE",
"109 221 CURVE SMOOTH",
"109 362 OFFCURVE",
"175 438 OFFCURVE",
"293 438 CURVE SMOOTH",
"357 438 OFFCURVE",
"397 418 OFFCURVE",
"434 386 CURVE",
"434 99 LINE",
"393 55 OFFCURVE",
"342 35 OFFCURVE",
"280 35 CURVE SMOOTH"
);
}
);
width = 564;
}
);
leftKerningGroup = a;
note = ascript;
rightKerningGroup = a;
unicode = 0251;
},
{
glyphname = amacron;
lastChange = "2015-10-24 21:18:09 +0000";
layers = (
{
layerId = "50AE23BC-B42B-4352-B38F-74DD4C968971";
name = Light;
paths = (
{
closed = 1;
nodes = (
"310 -10 OFFCURVE",
"367 12 OFFCURVE",
"411 59 CURVE",
"416 0 LINE",
"461 0 LINE",
"461 314 LINE SMOOTH",
"461 435 OFFCURVE",
"400 484 OFFCURVE",
"270 484 CURVE SMOOTH",
"207 484 OFFCURVE",
"150 474 OFFCURVE",
"109 458 CURVE",
"109 411 LINE",
"154 427 OFFCURVE",
"205 437 OFFCURVE",
"260 437 CURVE SMOOTH",
"381 437 OFFCURVE",
"408 403 OFFCURVE",
"408 313 CURVE SMOOTH",
"408 268 LINE",
"231 268 LINE SMOOTH",
"103 268 OFFCURVE",
"55 210 OFFCURVE",
"55 126 CURVE SMOOTH",
"55 31 OFFCURVE",
"130 -10 OFFCURVE",
"220 -10 CURVE SMOOTH"
);
},
{
closed = 1;
nodes = (
"157 36 OFFCURVE",
"109 60 OFFCURVE",
"109 126 CURVE SMOOTH",
"109 190 OFFCURVE",
"139 224 OFFCURVE",
"233 224 CURVE SMOOTH",
"408 224 LINE",
"408 110 LINE",
"366 61 OFFCURVE",
"310 36 OFFCURVE",
"234 36 CURVE SMOOTH"
);
},
{
closed = 1;
nodes = (
"415 549 LINE",
"415 591 LINE",
"138 591 LINE",
"138 549 LINE"
);
}
);
width = 531;
}
);
leftKerningGroup = a;
note = amacron;
rightKerningGroup = a;
unicode = 0101;
},
{
glyphname = aogonek;
lastChange = "2015-11-24 08:50:13 +0000";
layers = (
{
layerId = "50AE23BC-B42B-4352-B38F-74DD4C968971";
name = Light;
paths = (
{
closed = 1;
nodes = (
"450 -220 OFFCURVE",
"475 -217 OFFCURVE",
"490 -209 CURVE",
"490 -168 LINE",
"478 -175 OFFCURVE",
"457 -179 OFFCURVE",
"440 -179 CURVE SMOOTH",
"403 -179 OFFCURVE",
"387 -165 OFFCURVE",
"387 -128 CURVE SMOOTH",
"387 -83 OFFCURVE",
"411 -37 OFFCURVE",
"461 0 CURVE",
"461 314 LINE SMOOTH",
"461 435 OFFCURVE",
"400 484 OFFCURVE",
"270 484 CURVE SMOOTH",
"207 484 OFFCURVE",
"150 474 OFFCURVE",
"109 458 CURVE",
"109 411 LINE",
"154 427 OFFCURVE",
"205 437 OFFCURVE",
"260 437 CURVE SMOOTH",
"381 437 OFFCURVE",
"408 403 OFFCURVE",
"408 313 CURVE SMOOTH",
"408 268 LINE",
"231 268 LINE SMOOTH",
"103 268 OFFCURVE",
"55 210 OFFCURVE",
"55 126 CURVE SMOOTH",
"55 31 OFFCURVE",
"130 -10 OFFCURVE",
"220 -10 CURVE SMOOTH",
"310 -10 OFFCURVE",
"367 12 OFFCURVE",
"411 59 CURVE",
"416 0 LINE",
"374 -29 OFFCURVE",
"340 -80 OFFCURVE",
"340 -134 CURVE SMOOTH",
"340 -197 OFFCURVE",
"380 -220 OFFCURVE",
"431 -220 CURVE SMOOTH"
);
},
{
closed = 1;
nodes = (
"157 36 OFFCURVE",
"109 60 OFFCURVE",
"109 126 CURVE SMOOTH",
"109 190 OFFCURVE",
"139 224 OFFCURVE",
"233 224 CURVE SMOOTH",
"408 224 LINE",
"408 110 LINE",
"366 61 OFFCURVE",
"310 36 OFFCURVE",
"234 36 CURVE SMOOTH"
);
}
);
width = 531;
}
);
leftKerningGroup = a;
note = aogonek;
rightKerningGroup = a;
unicode = 0105;
},
{
glyphname = aring;
lastChange = "2015-10-24 21:18:08 +0000";
layers = (
{
layerId = "50AE23BC-B42B-4352-B38F-74DD4C968971";
name = Light;
paths = (
{
closed = 1;
nodes = (
"310 -10 OFFCURVE",
"367 12 OFFCURVE",
"411 59 CURVE",
"416 0 LINE",
"461 0 LINE",
"461 314 LINE SMOOTH",
"461 435 OFFCURVE",
"400 484 OFFCURVE",
"270 484 CURVE SMOOTH",
"207 484 OFFCURVE",
"150 474 OFFCURVE",
"109 458 CURVE",
"109 411 LINE",
"154 427 OFFCURVE",
"205 437 OFFCURVE",
"260 437 CURVE SMOOTH",
"381 437 OFFCURVE",
"408 403 OFFCURVE",
"408 313 CURVE SMOOTH",
"408 268 LINE",
"231 268 LINE SMOOTH",
"103 268 OFFCURVE",
"55 210 OFFCURVE",
"55 126 CURVE SMOOTH",
"55 31 OFFCURVE",
"130 -10 OFFCURVE",
"220 -10 CURVE SMOOTH"
);
},
{
closed = 1;
nodes = (
"157 36 OFFCURVE",
"109 60 OFFCURVE",
"109 126 CURVE SMOOTH",
"109 190 OFFCURVE",
"139 224 OFFCURVE",
"233 224 CURVE SMOOTH",
"408 224 LINE",
"408 110 LINE",
"366 61 OFFCURVE",
"310 36 OFFCURVE",
"234 36 CURVE SMOOTH"
);
},
{
closed = 1;
nodes = (
"344 521 OFFCURVE",
"387 566 OFFCURVE",
"387 622 CURVE SMOOTH",
"387 679 OFFCURVE",
"344 724 OFFCURVE",
"284 724 CURVE SMOOTH",
"225 724 OFFCURVE",
"182 679 OFFCURVE",
"182 622 CURVE SMOOTH",
"182 566 OFFCURVE",
"225 521 OFFCURVE",
"284 521 CURVE SMOOTH"
);
},
{
closed = 1;
nodes = (
"246 557 OFFCURVE",
"218 585 OFFCURVE",
"218 622 CURVE SMOOTH",
"218 660 OFFCURVE",
"246 688 OFFCURVE",
"284 688 CURVE SMOOTH",
"323 688 OFFCURVE",
"350 660 OFFCURVE",
"350 622 CURVE SMOOTH",
"350 585 OFFCURVE",
"323 557 OFFCURVE",
"284 557 CURVE SMOOTH"
);
}
);
width = 531;
}
);
leftKerningGroup = a;
note = aring;
rightKerningGroup = a;
unicode = 00E5;
},
{
glyphname = aringacute;
lastChange = "2015-10-24 21:18:09 +0000";
layers = (
{
layerId = "50AE23BC-B42B-4352-B38F-74DD4C968971";
name = Light;
paths = (
{
closed = 1;
nodes = (
"310 -10 OFFCURVE",
"367 12 OFFCURVE",
"411 59 CURVE",
"416 0 LINE",
"461 0 LINE",
"461 314 LINE SMOOTH",
"461 435 OFFCURVE",
"400 484 OFFCURVE",
"270 484 CURVE SMOOTH",
"207 484 OFFCURVE",
"150 474 OFFCURVE",
"109 458 CURVE",
"109 411 LINE",
"154 427 OFFCURVE",
"205 437 OFFCURVE",
"260 437 CURVE SMOOTH",
"381 437 OFFCURVE",
"408 403 OFFCURVE",
"408 313 CURVE SMOOTH",
"408 268 LINE",
"231 268 LINE SMOOTH",
"103 268 OFFCURVE",
"55 210 OFFCURVE",
"55 126 CURVE SMOOTH",
"55 31 OFFCURVE",
"130 -10 OFFCURVE",
"220 -10 CURVE SMOOTH"
);
},
{
closed = 1;
nodes = (
"157 36 OFFCURVE",
"109 60 OFFCURVE",
"109 126 CURVE SMOOTH",
"109 190 OFFCURVE",
"139 224 OFFCURVE",
"233 224 CURVE SMOOTH",
"408 224 LINE",
"408 110 LINE",
"366 61 OFFCURVE",
"310 36 OFFCURVE",
"234 36 CURVE SMOOTH"
);
},
{
closed = 1;
nodes = (
"337 520 OFFCURVE",
"380 565 OFFCURVE",
"380 621 CURVE SMOOTH",
"380 678 OFFCURVE",
"337 723 OFFCURVE",
"277 723 CURVE SMOOTH",
"218 723 OFFCURVE",
"175 678 OFFCURVE",
"175 621 CURVE SMOOTH",
"175 565 OFFCURVE",
"218 520 OFFCURVE",
"277 520 CURVE SMOOTH"
);
},
{
closed = 1;
nodes = (
"239 556 OFFCURVE",
"211 584 OFFCURVE",
"211 621 CURVE SMOOTH",
"211 659 OFFCURVE",
"239 687 OFFCURVE",
"277 687 CURVE SMOOTH",
"316 687 OFFCURVE",
"343 659 OFFCURVE",
"343 621 CURVE SMOOTH",
"343 584 OFFCURVE",
"316 556 OFFCURVE",
"277 556 CURVE SMOOTH"
);
},
{
closed = 1;
nodes = (
"297 781 LINE",
"371 907 LINE",
"319 907 LINE",
"252 781 LINE"
);
}
);
width = 531;
}
);
leftKerningGroup = a;
note = aringacute;
rightKerningGroup = a;
unicode = 01FB;
},
{
glyphname = atilde;
lastChange = "2015-10-24 21:18:09 +0000";
layers = (
{
layerId = "50AE23BC-B42B-4352-B38F-74DD4C968971";
name = Light;
paths = (
{
closed = 1;
nodes = (
"310 -10 OFFCURVE",
"367 12 OFFCURVE",
"411 59 CURVE",
"416 0 LINE",
"461 0 LINE",
"461 314 LINE SMOOTH",
"461 435 OFFCURVE",
"400 484 OFFCURVE",
"270 484 CURVE SMOOTH",
"207 484 OFFCURVE",
"150 474 OFFCURVE",
"109 458 CURVE",
"109 411 LINE",
"154 427 OFFCURVE",
"205 437 OFFCURVE",
"260 437 CURVE SMOOTH",
"381 437 OFFCURVE",
"408 403 OFFCURVE",
"408 313 CURVE SMOOTH",
"408 268 LINE",
"231 268 LINE SMOOTH",
"103 268 OFFCURVE",
"55 210 OFFCURVE",
"55 126 CURVE SMOOTH",
"55 31 OFFCURVE",
"130 -10 OFFCURVE",
"220 -10 CURVE SMOOTH"
);
},
{
closed = 1;
nodes = (
"157 36 OFFCURVE",
"109 60 OFFCURVE",
"109 126 CURVE SMOOTH",
"109 190 OFFCURVE",
"139 224 OFFCURVE",
"233 224 CURVE SMOOTH",
"408 224 LINE",
"408 110 LINE",
"366 61 OFFCURVE",
"310 36 OFFCURVE",
"234 36 CURVE SMOOTH"
);
},
{
closed = 1;
nodes = (
"381 547 OFFCURVE",
"407 558 OFFCURVE",
"420 576 CURVE",
"420 623 LINE",
"402 598 OFFCURVE",
"379 588 OFFCURVE",
"347 588 CURVE SMOOTH",
"301 588 OFFCURVE",
"267 625 OFFCURVE",
"215 625 CURVE SMOOTH",
"185 625 OFFCURVE",
"153 614 OFFCURVE",
"137 596 CURVE",
"137 549 LINE",
"159 576 OFFCURVE",
"186 584 OFFCURVE",
"216 584 CURVE SMOOTH",
"256 584 OFFCURVE",
"300 547 OFFCURVE",
"349 547 CURVE SMOOTH"
);
}
);
width = 531;
}
);
leftKerningGroup = a;
note = atilde;
rightKerningGroup = a;
unicode = 00E3;
},
{
glyphname = ae;
lastChange = "2015-10-24 21:18:08 +0000";
layers = (
{
layerId = "50AE23BC-B42B-4352-B38F-74DD4C968971";
name = Light;
paths = (
{
closed = 1;
nodes = (
"333 -10 OFFCURVE",
"403 33 OFFCURVE",
"439 94 CURVE",
"474 22 OFFCURVE",
"542 -10 OFFCURVE",
"654 -10 CURVE SMOOTH",
"703 -10 OFFCURVE",
"753 -1 OFFCURVE",
"793 15 CURVE",
"793 60 LINE",
"752 44 OFFCURVE",
"708 35 OFFCURVE",
"664 35 CURVE SMOOTH",
"520 35 OFFCURVE",
"467 82 OFFCURVE",
"463 208 CURVE",
"824 208 LINE",
"824 294 LINE SMOOTH",
"824 400 OFFCURVE",
"761 484 OFFCURVE",
"625 484 CURVE SMOOTH",
"534 484 OFFCURVE",
"471 452 OFFCURVE",
"439 393 CURVE",
"416 453 OFFCURVE",
"360 484 OFFCURVE",
"270 484 CURVE SMOOTH",
"207 484 OFFCURVE",
"150 474 OFFCURVE",
"109 458 CURVE",
"109 411 LINE",
"154 427 OFFCURVE",
"206 437 OFFCURVE",
"262 437 CURVE SMOOTH",
"372 437 OFFCURVE",
"408 387 OFFCURVE",
"408 301 CURVE SMOOTH",
"408 268 LINE",
"231 268 LINE SMOOTH",
"103 268 OFFCURVE",
"55 210 OFFCURVE",
"55 126 CURVE SMOOTH",
"55 31 OFFCURVE",
"130 -10 OFFCURVE",
"220 -10 CURVE SMOOTH"
);
},
{
closed = 1;
nodes = (
"157 36 OFFCURVE",
"109 60 OFFCURVE",
"109 126 CURVE SMOOTH",
"109 190 OFFCURVE",
"139 224 OFFCURVE",
"233 224 CURVE SMOOTH",
"408 224 LINE",
"408 136 LINE",
"385 70 OFFCURVE",
"327 36 OFFCURVE",
"234 36 CURVE SMOOTH"
);
},
{
closed = 1;
nodes = (
"463 377 OFFCURVE",
"501 438 OFFCURVE",
"626 438 CURVE SMOOTH",
"728 438 OFFCURVE",
"773 384 OFFCURVE",
"773 296 CURVE SMOOTH",
"773 251 LINE",
"463 251 LINE"
);
}
);
width = 879;
}
);
leftKerningGroup = a;
note = ae;
rightKerningGroup = e;
unicode = 00E6;
},
{
glyphname = aeacute;
lastChange = "2015-10-24 21:18:09 +0000";
layers = (
{
layerId = "50AE23BC-B42B-4352-B38F-74DD4C968971";
name = Light;
paths = (
{
closed = 1;
nodes = (
"333 -10 OFFCURVE",
"403 33 OFFCURVE",
"439 94 CURVE",
"474 22 OFFCURVE",
"542 -10 OFFCURVE",
"654 -10 CURVE SMOOTH",
"703 -10 OFFCURVE",
"753 -1 OFFCURVE",
"793 15 CURVE",
"793 60 LINE",
"752 44 OFFCURVE",
"708 35 OFFCURVE",
"664 35 CURVE SMOOTH",
"520 35 OFFCURVE",
"467 82 OFFCURVE",
"463 208 CURVE",
"824 208 LINE",
"824 294 LINE SMOOTH",
"824 400 OFFCURVE",
"761 484 OFFCURVE",
"625 484 CURVE SMOOTH",
"534 484 OFFCURVE",
"471 452 OFFCURVE",
"439 393 CURVE",
"416 453 OFFCURVE",
"360 484 OFFCURVE",
"270 484 CURVE SMOOTH",
"207 484 OFFCURVE",
"150 474 OFFCURVE",
"109 458 CURVE",
"109 411 LINE",
"154 427 OFFCURVE",
"206 437 OFFCURVE",
"262 437 CURVE SMOOTH",
"372 437 OFFCURVE",
"408 387 OFFCURVE",
"408 301 CURVE SMOOTH",
"408 268 LINE",
"231 268 LINE SMOOTH",
"103 268 OFFCURVE",
"55 210 OFFCURVE",
"55 126 CURVE SMOOTH",
"55 31 OFFCURVE",
"130 -10 OFFCURVE",
"220 -10 CURVE SMOOTH"
);
},
{
closed = 1;
nodes = (
"157 36 OFFCURVE",
"109 60 OFFCURVE",
"109 126 CURVE SMOOTH",
"109 190 OFFCURVE",
"139 224 OFFCURVE",
"233 224 CURVE SMOOTH",
"408 224 LINE",
"408 136 LINE",
"385 70 OFFCURVE",
"327 36 OFFCURVE",
"234 36 CURVE SMOOTH"
);
},
{
closed = 1;
nodes = (
"463 377 OFFCURVE",
"501 438 OFFCURVE",
"626 438 CURVE SMOOTH",
"728 438 OFFCURVE",
"773 384 OFFCURVE",
"773 296 CURVE SMOOTH",
"773 251 LINE",
"463 251 LINE"
);
},
{
closed = 1;
nodes = (
"457 522 LINE",
"531 680 LINE",
"479 680 LINE",
"412 522 LINE"
);
}
);
width = 879;
}
);
leftKerningGroup = a;
note = aeacute;
rightKerningGroup = e;
unicode = 01FD;
},
